<svg xmlns="http://www.w3.org/2000/svg"
     width="100%"
     viewBox="0,0,100,100"
     preserveAspectRatio="xMidYMin slice"
>
<style>
/* <![CDATA[ */
.bzpt { fill:blue; stroke:none; }
.bzpt2 { fill:green; stroke:none; }
.bzpt3 { fill:red; stroke:none; }
/* ]]> */
</style>
<g transform="scale(1,-1)">
<path d="M -5,-5 L 5,-10 L 0,0 C 200,80   -100,80   100,0 A10,10,0,0,1,100,10" stroke-width="0.03" stroke="black" fill="none" />
<circle cx="-4.66458980337503" cy="-4.32917960675006" seq="0" r="0.1" class="bzpt2"/>
<circle cx="-4.18746992030292" cy="-4.56773954828612" seq="1" r="0.1" class="bzpt2"/>
<circle cx="-3.71035003723081" cy="-4.80629948982217" seq="2" r="0.1" class="bzpt2"/>
<circle cx="-3.2332301541587" cy="-5.04485943135823" seq="3" r="0.1" class="bzpt2"/>
<circle cx="-2.75611027108659" cy="-5.28341937289429" seq="4" r="0.1" class="bzpt2"/>
<circle cx="-2.27899038801448" cy="-5.52197931443034" seq="5" r="0.1" class="bzpt2"/>
<circle cx="-1.80187050494237" cy="-5.7605392559664" seq="6" r="0.1" class="bzpt2"/>
<circle cx="-1.32475062187025" cy="-5.99909919750245" seq="7" r="0.1" class="bzpt2"/>
<circle cx="-0.847630738798143" cy="-6.23765913903851" seq="8" r="0.1" class="bzpt2"/>
<circle cx="-0.370510855726032" cy="-6.47621908057456" seq="9" r="0.1" class="bzpt2"/>
<circle cx="0.106609027346078" cy="-6.71477902211062" seq="10" r="0.1" class="bzpt2"/>
<circle cx="0.58372891041819" cy="-6.95333896364667" seq="11" r="0.1" class="bzpt2"/>
<circle cx="1.0608487934903" cy="-7.19189890518273" seq="12" r="0.1" class="bzpt2"/>
<circle cx="1.53796867656241" cy="-7.43045884671879" seq="13" r="0.1" class="bzpt2"/>
<circle cx="2.01508855963452" cy="-7.66901878825484" seq="14" r="0.1" class="bzpt2"/>
<circle cx="2.49220844270663" cy="-7.9075787297909" seq="15" r="0.1" class="bzpt2"/>
<circle cx="2.96932832577874" cy="-8.14613867132695" seq="16" r="0.1" class="bzpt2"/>
<circle cx="3.44644820885086" cy="-8.38469861286301" seq="17" r="0.1" class="bzpt2"/>
<circle cx="3.92356809192297" cy="-8.62325855439906" seq="18" r="0.1" class="bzpt2"/>
<circle cx="4.40068797499508" cy="-8.86181849593512" seq="19" r="0.1" class="bzpt2"/>
<circle cx="4.87780785806719" cy="-9.10037843747117" seq="20" r="0.1" class="bzpt2"/>
<circle cx="4.3194208344929" cy="-10.3158926521106" seq="21" r="0.1" class="bzpt2"/>
<circle cx="4.08086089295684" cy="-9.83877276903853" seq="22" r="0.1" class="bzpt2"/>
<circle cx="3.84230095142079" cy="-9.36165288596642" seq="23" r="0.1" class="bzpt2"/>
<circle cx="3.60374100988473" cy="-8.8845330028943" seq="24" r="0.1" class="bzpt2"/>
<circle cx="3.36518106834868" cy="-8.40741311982219" seq="25" r="0.1" class="bzpt2"/>
<circle cx="3.12662112681262" cy="-7.93029323675008" seq="26" r="0.1" class="bzpt2"/>
<circle cx="2.88806118527656" cy="-7.45317335367797" seq="27" r="0.1" class="bzpt2"/>
<circle cx="2.64950124374051" cy="-6.97605347060586" seq="28" r="0.1" class="bzpt2"/>
<circle cx="2.41094130220445" cy="-6.49893358753375" seq="29" r="0.1" class="bzpt2"/>
<circle cx="2.1723813606684" cy="-6.02181370446164" seq="30" r="0.1" class="bzpt2"/>
<circle cx="1.93382141913234" cy="-5.54469382138953" seq="31" r="0.1" class="bzpt2"/>
<circle cx="1.69526147759629" cy="-5.06757393831742" seq="32" r="0.1" class="bzpt2"/>
<circle cx="1.45670153606023" cy="-4.5904540552453" seq="33" r="0.1" class="bzpt2"/>
<circle cx="1.21814159452418" cy="-4.11333417217319" seq="34" r="0.1" class="bzpt2"/>
<circle cx="0.97958165298812" cy="-3.63621428910108" seq="35" r="0.1" class="bzpt2"/>
<circle cx="0.741021711452064" cy="-3.15909440602897" seq="36" r="0.1" class="bzpt2"/>
<circle cx="0.50246176991601" cy="-2.68197452295686" seq="37" r="0.1" class="bzpt2"/>
<circle cx="0.263901828379955" cy="-2.20485463988475" seq="38" r="0.1" class="bzpt2"/>
<circle cx="0.0253418868438985" cy="-1.72773475681264" seq="39" r="0.1" class="bzpt2"/>
<circle cx="-0.213218054692157" cy="-1.25061487374053" seq="40" r="0.1" class="bzpt2"/>
<circle cx="-0.451777996228213" cy="-0.773494990668416" seq="41" r="0.1" class="bzpt2"/>
<circle cx="-0.166770927424897" cy="0.741078867205984" seq="42" r="0.1" class="bzpt2"/>
<circle cx="1.19096468842639" cy="1.28634354356816" seq="43" r="0.1" class="bzpt2"/>
<circle cx="2.53315099366224" cy="1.82909833444952" seq="44" r="0.1" class="bzpt2"/>
<circle cx="3.85985878278172" cy="2.36934289200086" seq="45" r="0.1" class="bzpt2"/>
<circle cx="5.17115884087034" cy="2.90707685662556" seq="46" r="0.1" class="bzpt2"/>
<circle cx="6.4671219433412" cy="3.44229985650508" seq="47" r="0.1" class="bzpt2"/>
<circle cx="7.74781885566904" cy="3.9750115071023" seq="48" r="0.1" class="bzpt2"/>
<circle cx="9.01332033311719" cy="4.50521141064165" seq="49" r="0.1" class="bzpt2"/>
<circle cx="10.2636971204573" cy="5.03289915556479" seq="50" r="0.1" class="bzpt2"/>
<circle cx="11.4990199516818" cy="5.55807431596061" seq="51" r="0.1" class="bzpt2"/>
<circle cx="12.7193595497089" cy="6.08073645096814" seq="52" r="0.1" class="bzpt2"/>
<circle cx="13.9247866260806" cy="6.60088510415088" seq="53" r="0.1" class="bzpt2"/>
<circle cx="15.1153718806523" cy="7.11851980284128" seq="54" r="0.1" class="bzpt2"/>
<circle cx="16.2911860012762" cy="7.63364005745338" seq="55" r="0.1" class="bzpt2"/>
<circle cx="17.452299663476" cy="8.14624536076235" seq="56" r="0.1" class="bzpt2"/>
<circle cx="18.5987835301152" cy="8.65633518714881" seq="57" r="0.1" class="bzpt2"/>
<circle cx="19.7307082510574" cy="9.16390899180618" seq="58" r="0.1" class="bzpt2"/>
<circle cx="20.8481444628195" cy="9.66896620990907" seq="59" r="0.1" class="bzpt2"/>
<circle cx="21.951162788218" cy="10.1715062557406" seq="60" r="0.1" class="bzpt2"/>
<circle cx="23.0398338360083" cy="10.6715285217761" seq="61" r="0.1" class="bzpt2"/>
<circle cx="24.114228200517" cy="11.1690323777218" seq="62" r="0.1" class="bzpt2"/>
<circle cx="25.1744164612684" cy="11.6640171695043" seq="63" r="0.1" class="bzpt2"/>
<circle cx="26.2204691826047" cy="12.1564822182101" seq="64" r="0.1" class="bzpt2"/>
<circle cx="27.2524569133005" cy="12.646426818971" seq="65" r="0.1" class="bzpt2"/>
<circle cx="28.2704501861725" cy="13.1338502397926" seq="66" r="0.1" class="bzpt2"/>
<circle cx="29.2745195176848" cy="13.6187517203242" seq="67" r="0.1" class="bzpt2"/>
<circle cx="30.2647354075507" cy="14.1011304705639" seq="68" r="0.1" class="bzpt2"/>
<circle cx="31.2411683383307" cy="14.5809856694988" seq="69" r="0.1" class="bzpt2"/>
<circle cx="32.2038887750303" cy="15.0583164636738" seq="70" r="0.1" class="bzpt2"/>
<circle cx="33.1529671646949" cy="15.5331219656864" seq="71" r="0.1" class="bzpt2"/>
<circle cx="34.0884739360077" cy="16.005401252604" seq="72" r="0.1" class="bzpt2"/>
<circle cx="35.010479498887" cy="16.475153364297" seq="73" r="0.1" class="bzpt2"/>
<circle cx="35.9190542440892" cy="16.9423773016858" seq="74" r="0.1" class="bzpt2"/>
<circle cx="36.8142685428162" cy="17.4070720248955" seq="75" r="0.1" class="bzpt2"/>
<circle cx="37.6961927463307" cy="17.869236451312" seq="76" r="0.1" class="bzpt2"/>
<circle cx="38.5648971855816" cy="18.3288694535373" seq="77" r="0.1" class="bzpt2"/>
<circle cx="39.4204521708422" cy="18.7859698572344" seq="78" r="0.1" class="bzpt2"/>
<circle cx="40.2629279913643" cy="19.2405364388588" seq="79" r="0.1" class="bzpt2"/>
<circle cx="41.0923949150509" cy="19.692567923269" seq="80" r="0.1" class="bzpt2"/>
<circle cx="41.9089231881537" cy="20.1420629812088" seq="81" r="0.1" class="bzpt2"/>
<circle cx="42.7125830349958" cy="20.5890202266557" seq="82" r="0.1" class="bzpt2"/>
<circle cx="43.5034446577288" cy="21.0334382140269" seq="83" r="0.1" class="bzpt2"/>
<circle cx="44.2815782361265" cy="21.4753154352357" seq="84" r="0.1" class="bzpt2"/>
<circle cx="45.0470539274232" cy="21.9146503165905" seq="85" r="0.1" class="bzpt2"/>
<circle cx="45.7999418662016" cy="22.3514412155264" seq="86" r="0.1" class="bzpt2"/>
<circle cx="46.5403121643405" cy="22.7856864171632" seq="87" r="0.1" class="bzpt2"/>
<circle cx="47.268234911028" cy="23.2173841306777" seq="88" r="0.1" class="bzpt2"/>
<circle cx="47.9837801728511" cy="23.646532485483" seq="89" r="0.1" class="bzpt2"/>
<circle cx="48.6870179939725" cy="24.073129527203" seq="90" r="0.1" class="bzpt2"/>
<circle cx="49.3780183964052" cy="24.4971732134338" seq="91" r="0.1" class="bzpt2"/>
<circle cx="50.0568513803985" cy="24.9186614092794" seq="92" r="0.1" class="bzpt2"/>
<circle cx="50.7235869249498" cy="25.3375918826521" seq="93" r="0.1" class="bzpt2"/>
<circle cx="51.3782949884587" cy="25.7539622993262" seq="94" r="0.1" class="bzpt2"/>
<circle cx="52.0210455095395" cy="26.1677702177333" seq="95" r="0.1" class="bzpt2"/>
<circle cx="52.6519084080147" cy="26.579013083488" seq="96" r="0.1" class="bzpt2"/>
<circle cx="53.270953586108" cy="26.9876882236326" seq="97" r="0.1" class="bzpt2"/>
<circle cx="53.878250929864" cy="27.3937928405896" seq="98" r="0.1" class="bzpt2"/>
<circle cx="54.4738703108198" cy="27.7973240058097" seq="99" r="0.1" class="bzpt2"/>
<circle cx="55.0578815879579" cy="28.198278653106" seq="100" r="0.1" class="bzpt2"/>
<circle cx="55.6303546099747" cy="28.596653571663" seq="101" r="0.1" class="bzpt2"/>
<circle cx="56.1913592178992" cy="28.9924453987107" seq="102" r="0.1" class="bzpt2"/>
<circle cx="56.7409652481027" cy="29.3856506118563" seq="103" r="0.1" class="bzpt2"/>
<circle cx="57.2792425357429" cy="29.7762655210657" seq="104" r="0.1" class="bzpt2"/>
<circle cx="57.8062609186916" cy="30.1642862602887" seq="105" r="0.1" class="bzpt2"/>
<circle cx="58.3220902419981" cy="30.5497087787258" seq="106" r="0.1" class="bzpt2"/>
<circle cx="58.8268003629478" cy="30.9325288317355" seq="107" r="0.1" class="bzpt2"/>
<circle cx="59.3204611567792" cy="31.3127419713843" seq="108" r="0.1" class="bzpt2"/>
<circle cx="59.8031425231301" cy="31.6903435366466" seq="109" r="0.1" class="bzpt2"/>
<circle cx="60.2749143932892" cy="32.0653286432659" seq="110" r="0.1" class="bzpt2"/>
<circle cx="60.7358467383367" cy="32.4376921732939" seq="111" r="0.1" class="bzpt2"/>
<circle cx="61.1860095782658" cy="32.807428764332" seq="112" r="0.1" class="bzpt2"/>
<circle cx="61.6254729921827" cy="33.174532798507" seq="113" r="0.1" class="bzpt2"/>
<circle cx="62.0543071296924" cy="33.5389983912225" seq="114" r="0.1" class="bzpt2"/>
<circle cx="62.4725822235874" cy="33.900819379738" seq="115" r="0.1" class="bzpt2"/>
<circle cx="62.8803686039616" cy="34.2599893116421" seq="116" r="0.1" class="bzpt2"/>
<circle cx="63.2777367138838" cy="34.6165014332999" seq="117" r="0.1" class="bzpt2"/>
<circle cx="63.6647571267735" cy="34.9703486783716" seq="118" r="0.1" class="bzpt2"/>
<circle cx="64.041500565629" cy="35.3215236565223" seq="119" r="0.1" class="bzpt2"/>
<circle cx="64.4080379242682" cy="35.670018642461" seq="120" r="0.1" class="bzpt2"/>
<circle cx="64.7644402907478" cy="36.0158255654792" seq="121" r="0.1" class="bzpt2"/>
<circle cx="65.1107789731355" cy="36.3589359996828" seq="122" r="0.1" class="bzpt2"/>
<circle cx="65.4471255278128" cy="36.6993411551505" seq="123" r="0.1" class="bzpt2"/>
<circle cx="65.7735517904889" cy="37.0370318702863" seq="124" r="0.1" class="bzpt2"/>
<circle cx="66.090129910107" cy="37.3719986056777" seq="125" r="0.1" class="bzpt2"/>
<circle cx="66.3969323858183" cy="37.7042314398184" seq="126" r="0.1" class="bzpt2"/>
<circle cx="66.6940321071937" cy="38.0337200671069" seq="127" r="0.1" class="bzpt2"/>
<circle cx="66.9815023978231" cy="38.3604537985891" seq="128" r="0.1" class="bzpt2"/>
<circle cx="67.2594170624363" cy="38.6844215659764" seq="129" r="0.1" class="bzpt2"/>
<circle cx="67.5278504376448" cy="39.0056119295377" seq="130" r="0.1" class="bzpt2"/>
<circle cx="67.7868774463626" cy="39.3240130905348" seq="131" r="0.1" class="bzpt2"/>
<circle cx="68.0365736559125" cy="39.639612908945" seq="132" r="0.1" class="bzpt2"/>
<circle cx="68.2770153397528" cy="39.9523989272935" seq="133" r="0.1" class="bzpt2"/>
<circle cx="68.5082795426759" cy="40.2623584014917" seq="134" r="0.1" class="bzpt2"/>
<circle cx="68.730444149223" cy="40.5694783396564" seq="135" r="0.1" class="bzpt2"/>
<circle cx="68.9435879549337" cy="40.8737455499495" seq="136" r="0.1" class="bzpt2"/>
<circle cx="69.1477907398964" cy="41.1751466985426" seq="137" r="0.1" class="bzpt2"/>
<circle cx="69.3431333438898" cy="41.4736683788523" seq="138" r="0.1" class="bzpt2"/>
<circle cx="69.5296977421971" cy="41.7692971932176" seq="139" r="0.1" class="bzpt2"/>
<circle cx="69.7075671209439" cy="42.0620198481889" seq="140" r="0.1" class="bzpt2"/>
<circle cx="69.8768259505457" cy="42.3518232645556" seq="141" r="0.1" class="bzpt2"/>
<circle cx="70.0375600555635" cy="42.6386947031556" seq="142" r="0.1" class="bzpt2"/>
<circle cx="70.1898566789542" cy="42.9226219073632" seq="143" r="0.1" class="bzpt2"/>
<circle cx="70.3338045383732" cy="43.2035932629451" seq="144" r="0.1" class="bzpt2"/>
<circle cx="70.4694938718556" cy="43.4815979756798" seq="145" r="0.1" class="bzpt2"/>
<circle cx="70.5970164698695" cy="43.7566262667535" seq="146" r="0.1" class="bzpt2"/>
<circle cx="70.7164656904327" cy="44.0286695854663" seq="147" r="0.1" class="bzpt2"/>
<circle cx="70.8279364537233" cy="44.2977208381865" seq="148" r="0.1" class="bzpt2"/>
<circle cx="70.9315252124222" cy="44.5637746317962" seq="149" r="0.1" class="bzpt2"/>
<circle cx="71.0273298939379" cy="44.8268275290563" seq="150" r="0.1" class="bzpt2"/>
<circle cx="71.1154498107042" cy="45.0868783124154" seq="151" r="0.1" class="bzpt2"/>
<circle cx="71.195985534955" cy="45.3439282518019" seq="152" r="0.1" class="bzpt2"/>
<circle cx="71.2690387347888" cy="45.5979813709056" seq="153" r="0.1" class="bzpt2"/>
<circle cx="71.3347119689846" cy="45.8490447054191" seq="154" r="0.1" class="bzpt2"/>
<circle cx="71.3931084389314" cy="46.097128545728" seq="155" r="0.1" class="bzpt2"/>
<circle cx="71.444331697205" cy="46.3422466556743" seq="156" r="0.1" class="bzpt2"/>
<circle cx="71.4884853137647" cy="46.5844164583524" seq="157" r="0.1" class="bzpt2"/>
<circle cx="71.5256725024205" cy="46.8236591795183" seq="158" r="0.1" class="bzpt2"/>
<circle cx="71.5559957120994" cy="47.0599999391768" seq="159" r="0.1" class="bzpt2"/>
<circle cx="71.5795561894336" cy="47.2934677823434" seq="160" r="0.1" class="bzpt2"/>
<circle cx="71.5964535212129" cy="47.5240956409135" seq="161" r="0.1" class="bzpt2"/>
<circle cx="71.606785167163" cy="47.7519202200523" seq="162" r="0.1" class="bzpt2"/>
<circle cx="71.6106459951879" cy="47.9769818045347" seq="163" r="0.1" class="bzpt2"/>
<circle cx="71.6081278325126" cy="48.199323982987" seq="164" r="0.1" class="bzpt2"/>
<circle cx="71.5993190469273" cy="48.4189932909137" seq="165" r="0.1" class="bzpt2"/>
<circle cx="71.5843041724657" cy="48.6360387765958" seq="166" r="0.1" class="bzpt2"/>
<circle cx="71.5631635932456" cy="48.8505114972639" seq="167" r="0.1" class="bzpt2"/>
<circle cx="71.5359732978378" cy="49.0624639561517" seq="168" r="0.1" class="bzpt2"/>
<circle cx="71.5028047144311" cy="49.2719494939254" seq="169" r="0.1" class="bzpt2"/>
<circle cx="71.4637246343043" cy="49.4790216503453" seq="170" r="0.1" class="bzpt2"/>
<circle cx="71.4187952278543" cy="49.683733513661" seq="171" r="0.1" class="bzpt2"/>
<circle cx="71.3680741538529" cy="49.8861370760451" seq="172" r="0.1" class="bzpt2"/>
<circle cx="71.3116147589343" cy="50.0862826132541" seq="173" r="0.1" class="bzpt2"/>
<circle cx="71.249466360795" cy="50.2842181056694" seq="174" r="0.1" class="bzpt2"/>
<circle cx="71.1816746054387" cy="50.4799887159934" seq="175" r="0.1" class="bzpt2"/>
<circle cx="71.1082818862138" cy="50.6736363362848" seq="176" r="0.1" class="bzpt2"/>
<circle cx="71.0293278105176" cy="50.8651992139041" seq="177" r="0.1" class="bzpt2"/>
<circle cx="70.9448496989567" cy="51.0547116625285" seq="178" r="0.1" class="bzpt2"/>
<circle cx="70.8548831014725" cy="51.2422038608995" seq="179" r="0.1" class="bzpt2"/>
<circle cx="70.7594623154311" cy="51.4277017386171" seq="180" r="0.1" class="bzpt2"/>
<circle cx="70.6586208918224" cy="51.6112269452625" seq="181" r="0.1" class="bzpt2"/>
<circle cx="70.5523921173954" cy="51.7927968965728" seq="182" r="0.1" class="bzpt2"/>
<circle cx="70.4408094626116" cy="51.972424889387" seq="183" r="0.1" class="bzpt2"/>
<circle cx="70.3239069875596" cy="52.1501202756824" seq="184" r="0.1" class="bzpt2"/>
<circle cx="70.2017197003011" cy="52.3258886852166" seq="185" r="0.1" class="bzpt2"/>
<circle cx="70.0742838643569" cy="52.4997322860394" seq="186" r="0.1" class="bzpt2"/>
<circle cx="69.9416372541082" cy="52.6716500723667" seq="187" r="0.1" class="bzpt2"/>
<circle cx="69.8038193586834" cy="52.8416381699267" seq="188" r="0.1" class="bzpt2"/>
<circle cx="69.6608715363955" cy="53.0096901498028" seq="189" r="0.1" class="bzpt2"/>
<circle cx="69.5128371229607" cy="53.1757973428987" seq="190" r="0.1" class="bzpt2"/>
<circle cx="69.3597614975722" cy="53.3399491483658" seq="191" r="0.1" class="bzpt2"/>
<circle cx="69.2016921114486" cy="53.5021333305736" seq="192" r="0.1" class="bzpt2"/>
<circle cx="69.0386784837528" cy="53.6623363004119" seq="193" r="0.1" class="bzpt2"/>
<circle cx="68.870772169835" cy="53.8205433778406" seq="194" r="0.1" class="bzpt2"/>
<circle cx="68.6980267066244" cy="53.9767390336232" seq="195" r="0.1" class="bzpt2"/>
<circle cx="68.5204975397342" cy="54.1309071090645" seq="196" r="0.1" class="bzpt2"/>
<circle cx="68.3382419364875" cy="54.2830310133227" seq="197" r="0.1" class="bzpt2"/>
<circle cx="68.151318888649" cy="54.4330938984777" seq="198" r="0.1" class="bzpt2"/>
<circle cx="67.9597890082004" cy="54.581078813019" seq="199" r="0.1" class="bzpt2"/>
<circle cx="67.7637144190397" cy="54.726968834778" seq="200" r="0.1" class="bzpt2"/>
<circle cx="67.5631586470371" cy="54.8707471845877" seq="201" r="0.1" class="bzpt2"/>
<circle cx="67.3581865104614" cy="55.0123973221202" seq="202" r="0.1" class="bzpt2"/>
<circle cx="67.1488640124007" cy="55.1519030254463" seq="203" r="0.1" class="bzpt2"/>
<circle cx="66.9352582364548" cy="55.2892484558915" seq="204" r="0.1" class="bzpt2"/>
<circle cx="66.717437246667" cy="55.4244182097518" seq="205" r="0.1" class="bzpt2"/>
<circle cx="66.4954699923977" cy="55.5573973583785" seq="206" r="0.1" class="bzpt2"/>
<circle cx="66.2694262186158" cy="55.6881714780666" seq="207" r="0.1" class="bzpt2"/>
<circle cx="66.0393763818933" cy="55.8167266710892" seq="208" r="0.1" class="bzpt2"/>
<circle cx="65.8053915722342" cy="55.9430495791136" seq="209" r="0.1" class="bzpt2"/>
<circle cx="65.5675434407448" cy="56.0671273901283" seq="210" r="0.1" class="bzpt2"/>
<circle cx="65.3259041330509" cy="56.1889478398974" seq="211" r="0.1" class="bzpt2"/>
<circle cx="65.0805462282954" cy="56.3084992088541" seq="212" r="0.1" class="bzpt2"/>
<circle cx="64.8315426834928" cy="56.4257703152392" seq="213" r="0.1" class="bzpt2"/>
<circle cx="64.5789667829766" cy="56.5407505051953" seq="214" r="0.1" class="bzpt2"/>
<circle cx="64.3228920926511" cy="56.653429640435" seq="215" r="0.1" class="bzpt2"/>
<circle cx="64.0633924187446" cy="56.7637980840214" seq="216" r="0.1" class="bzpt2"/>
<circle cx="63.8005417707516" cy="56.8718466847216" seq="217" r="0.1" class="bzpt2"/>
<circle cx="63.5344143282574" cy="56.9775667603292" seq="218" r="0.1" class="bzpt2"/>
<circle cx="63.2650844113392" cy="57.0809500802889" seq="219" r="0.1" class="bzpt2"/>
<circle cx="62.992626454252" cy="57.1819888479049" seq="220" r="0.1" class="bzpt2"/>
<circle cx="62.7171149821173" cy="57.2806756823691" seq="221" r="0.1" class="bzpt2"/>
<circle cx="62.4386245903483" cy="57.3770036008006" seq="222" r="0.1" class="bzpt2"/>
<circle cx="62.1572299265633" cy="57.4709660004569" seq="223" r="0.1" class="bzpt2"/>
<circle cx="61.87300567475" cy="57.5625566412437" seq="224" r="0.1" class="bzpt2"/>
<circle cx="61.5860265414667" cy="57.651769628625" seq="225" r="0.1" class="bzpt2"/>
<circle cx="61.2963672438776" cy="57.738599397013" seq="226" r="0.1" class="bzpt2"/>
<circle cx="61.0041024994379" cy="57.8230406936976" seq="227" r="0.1" class="bzpt2"/>
<circle cx="60.70930701706" cy="57.9050885633604" seq="228" r="0.1" class="bzpt2"/>
<circle cx="60.4120554896052" cy="57.9847383332032" seq="229" r="0.1" class="bzpt2"/>
<circle cx="60.1124225875602" cy="58.0619855987111" seq="230" r="0.1" class="bzpt2"/>
<circle cx="59.8104829537713" cy="58.1368262100607" seq="231" r="0.1" class="bzpt2"/>
<circle cx="59.5063111991188" cy="58.2092562591762" seq="232" r="0.1" class="bzpt2"/>
<circle cx="59.1999818990294" cy="58.2792720674296" seq="233" r="0.1" class="bzpt2"/>
<circle cx="58.8915695907292" cy="58.3468701739789" seq="234" r="0.1" class="bzpt2"/>
<circle cx="58.5811487711557" cy="58.4120473247301" seq="235" r="0.1" class="bzpt2"/>
<circle cx="58.2687938954497" cy="58.4748004619094" seq="236" r="0.1" class="bzpt2"/>
<circle cx="57.9545793759607" cy="58.5351267142293" seq="237" r="0.1" class="bzpt2"/>
<circle cx="57.6385795817043" cy="58.5930233876289" seq="238" r="0.1" class="bzpt2"/>
<circle cx="57.3208688382162" cy="58.6484879565692" seq="239" r="0.1" class="bzpt2"/>
<circle cx="57.0015214277554" cy="58.7015180558639" seq="240" r="0.1" class="bzpt2"/>
<circle cx="56.6806115898124" cy="58.7521114730244" seq="241" r="0.1" class="bzpt2"/>
<circle cx="56.3582135218847" cy="58.8002661410993" seq="242" r="0.1" class="bzpt2"/>
<circle cx="56.0344013804848" cy="58.8459801319879" seq="243" r="0.1" class="bzpt2"/>
<circle cx="55.7092492823506" cy="58.8892516502082" seq="244" r="0.1" class="bzpt2"/>
<circle cx="55.3828313058324" cy="58.9300790271003" seq="245" r="0.1" class="bzpt2"/>
<circle cx="55.0552214924311" cy="58.9684607154472" seq="246" r="0.1" class="bzpt2"/>
<circle cx="54.7264938484696" cy="59.0043952844948" seq="247" r="0.1" class="bzpt2"/>
<circle cx="54.396722346876" cy="59.0378814153558" seq="248" r="0.1" class="bzpt2"/>
<circle cx="54.0659809290654" cy="59.0689178967799" seq="249" r="0.1" class="bzpt2"/>
<circle cx="53.7343435069041" cy="59.0975036212779" seq="250" r="0.1" class="bzpt2"/>
<circle cx="53.4018839647459" cy="59.123637581584" seq="251" r="0.1" class="bzpt2"/>
<circle cx="53.0686761615282" cy="59.1473188674453" seq="252" r="0.1" class="bzpt2"/>
<circle cx="52.7347939329194" cy="59.1685466627255" seq="253" r="0.1" class="bzpt2"/>
<circle cx="52.4003110935097" cy="59.1873202428132" seq="254" r="0.1" class="bzpt2"/>
<circle cx="52.0653014390377" cy="59.2036389723248" seq="255" r="0.1" class="bzpt2"/>
<circle cx="51.7298387486469" cy="59.2175023030935" seq="256" r="0.1" class="bzpt2"/>
<circle cx="51.393996787167" cy="59.2289097724366" seq="257" r="0.1" class="bzpt2"/>
<circle cx="51.0578493074149" cy="59.2378610016956" seq="258" r="0.1" class="bzpt2"/>
<circle cx="50.7214700525117" cy="59.2443556950419" seq="259" r="0.1" class="bzpt2"/>
<circle cx="50.3849327582125" cy="59.2483936385452" seq="260" r="0.1" class="bzpt2"/>
<circle cx="50.0483111552435" cy="59.2499746995003" seq="261" r="0.1" class="bzpt2"/>
<circle cx="49.7116789716473" cy="59.2490988260089" seq="262" r="0.1" class="bzpt2"/>
<circle cx="49.3751099351291" cy="59.2457660468172" seq="263" r="0.1" class="bzpt2"/>
<circle cx="49.038677775405" cy="59.2399764714057" seq="264" r="0.1" class="bzpt2"/>
<circle cx="48.702456226547" cy="59.2317302903339" seq="265" r="0.1" class="bzpt2"/>
<circle cx="48.3665190293234" cy="59.2210277758398" seq="266" r="0.1" class="bzpt2"/>
<circle cx="48.0309399335304" cy="59.2078692826977" seq="267" r="0.1" class="bzpt2"/>
<circle cx="47.6957927003136" cy="59.192255249336" seq="268" r="0.1" class="bzpt2"/>
<circle cx="47.3611511044739" cy="59.1741861992205" seq="269" r="0.1" class="bzpt2"/>
<circle cx="47.0270889367545" cy="59.1536627425086" seq="270" r="0.1" class="bzpt2"/>
<circle cx="46.6936800061057" cy="59.1306855779791" seq="271" r="0.1" class="bzpt2"/>
<circle cx="46.3609981419202" cy="59.1052554952468" seq="272" r="0.1" class="bzpt2"/>
<circle cx="46.0291171962349" cy="59.0773733772685" seq="273" r="0.1" class="bzpt2"/>
<circle cx="45.6981110458917" cy="59.0470402031509" seq="274" r="0.1" class="bzpt2"/>
<circle cx="45.3680535946492" cy="59.0142570512696" seq="275" r="0.1" class="bzpt2"/>
<circle cx="45.0390187752369" cy="58.9790251027118" seq="276" r="0.1" class="bzpt2"/>
<circle cx="44.7110805513417" cy="58.9413456450541" seq="277" r="0.1" class="bzpt2"/>
<circle cx="44.3843129195143" cy="58.9012200764886" seq="278" r="0.1" class="bzpt2"/>
<circle cx="44.0587899109829" cy="58.8586499103127" seq="279" r="0.1" class="bzpt2"/>
<circle cx="43.7345855933574" cy="58.8136367797972" seq="280" r="0.1" class="bzpt2"/>
<circle cx="43.4117740722089" cy="58.7661824434491" seq="281" r="0.1" class="bzpt2"/>
<circle cx="43.0904294925016" cy="58.7162887906868" seq="282" r="0.1" class="bzpt2"/>
<circle cx="42.7706260398569" cy="58.663957847945" seq="283" r="0.1" class="bzpt2"/>
<circle cx="42.4524379416224" cy="58.6091917852286" seq="284" r="0.1" class="bzpt2"/>
<circle cx="42.1359394677174" cy="58.5519929231354" seq="285" r="0.1" class="bzpt2"/>
<circle cx="41.8212049312211" cy="58.4923637403672" seq="286" r="0.1" class="bzpt2"/>
<circle cx="41.5083086886684" cy="58.4303068817489" seq="287" r="0.1" class="bzpt2"/>
<circle cx="41.1973251400082" cy="58.3658251667778" seq="288" r="0.1" class="bzpt2"/>
<circle cx="40.8883287281802" cy="58.2989215987217" seq="289" r="0.1" class="bzpt2"/>
<circle cx="40.5813939382559" cy="58.2295993742862" seq="290" r="0.1" class="bzpt2"/>
<circle cx="40.2765952960847" cy="58.1578618938702" seq="291" r="0.1" class="bzpt2"/>
<circle cx="39.9740073663796" cy="58.0837127724272" seq="292" r="0.1" class="bzpt2"/>
<circle cx="39.6737047501675" cy="58.0071558509465" seq="293" r="0.1" class="bzpt2"/>
<circle cx="39.3757620815239" cy="57.9281952085692" seq="294" r="0.1" class="bzpt2"/>
<circle cx="39.0802540234975" cy="57.8468351753463" seq="295" r="0.1" class="bzpt2"/>
<circle cx="38.7872552631261" cy="57.7630803456448" seq="296" r="0.1" class="bzpt2"/>
<circle cx="38.4968405054286" cy="57.6769355922002" seq="297" r="0.1" class="bzpt2"/>
<circle cx="38.2090844662513" cy="57.588406080807" seq="298" r="0.1" class="bzpt2"/>
<circle cx="37.9240618638293" cy="57.4974972856317" seq="299" r="0.1" class="bzpt2"/>
<circle cx="37.6418474089133" cy="57.4042150051186" seq="300" r="0.1" class="bzpt2"/>
<circle cx="37.3625157932972" cy="57.3085653784511" seq="301" r="0.1" class="bzpt2"/>
<circle cx="37.0861416765646" cy="57.2105549025107" seq="302" r="0.1" class="bzpt2"/>
<circle cx="36.8127996708606" cy="57.1101904492617" seq="303" r="0.1" class="bzpt2"/>
<circle cx="36.5425643234732" cy="57.0074792834664" seq="304" r="0.1" class="bzpt2"/>
<circle cx="36.2755100969977" cy="56.9024290806107" seq="305" r="0.1" class="bzpt2"/>
<circle cx="36.0117113468385" cy="56.7950479448912" seq="306" r="0.1" class="bzpt2"/>
<circle cx="35.7512422957837" cy="56.6853444270806" seq="307" r="0.1" class="bzpt2"/>
<circle cx="35.4941770053792" cy="56.5733275420488" seq="308" r="0.1" class="bzpt2"/>
<circle cx="35.2405893438101" cy="56.4590067856728" seq="309" r="0.1" class="bzpt2"/>
<circle cx="34.9905529499892" cy="56.3423921508169" seq="310" r="0.1" class="bzpt2"/>
<circle cx="34.7441411935442" cy="56.2234941420056" seq="311" r="0.1" class="bzpt2"/>
<circle cx="34.5014271303924" cy="56.1023237883487" seq="312" r="0.1" class="bzpt2"/>
<circle cx="34.2624834535984" cy="55.9788926542032" seq="313" r="0.1" class="bzpt2"/>
<circle cx="34.0273824392182" cy="55.8532128469772" seq="314" r="0.1" class="bzpt2"/>
<circle cx="33.796195886859" cy="55.725297021392" seq="315" r="0.1" class="bzpt2"/>
<circle cx="33.5689950547183" cy="55.5951583794256" seq="316" r="0.1" class="bzpt2"/>
<circle cx="33.3458505889171" cy="55.4628106650556" seq="317" r="0.1" class="bzpt2"/>
<circle cx="33.1268324470092" cy="55.3282681528162" seq="318" r="0.1" class="bzpt2"/>
<circle cx="32.9120098156429" cy="55.1915456290725" seq="319" r="0.1" class="bzpt2"/>
<circle cx="32.7014510224679" cy="55.0526583648058" seq="320" r="0.1" class="bzpt2"/>
<circle cx="32.495223442524" cy="54.9116220785985" seq="321" r="0.1" class="bzpt2"/>
<circle cx="32.2933933995302" cy="54.7684528884083" seq="322" r="0.1" class="bzpt2"/>
<circle cx="32.0960260627071" cy="54.6231672506416" seq="323" r="0.1" class="bzpt2"/>
<circle cx="31.9031853400203" cy="54.4757818849761" seq="324" r="0.1" class="bzpt2"/>
<circle cx="31.7149337690296" cy="54.3263136833549" seq="325" r="0.1" class="bzpt2"/>
<circle cx="31.5313324068622" cy="54.1747796015966" seq="326" r="0.1" class="bzpt2"/>
<circle cx="31.3524407212109" cy="54.0211965321344" seq="327" r="0.1" class="bzpt2"/>
<circle cx="31.1783164846646" cy="53.8655811565463" seq="328" r="0.1" class="bzpt2"/>
<circle cx="31.0090156751218" cy="53.7079497767669" seq="329" r="0.1" class="bzpt2"/>
<circle cx="30.8445923854946" cy="53.5483181242011" seq="330" r="0.1" class="bzpt2"/>
<circle cx="30.685098746359" cy="53.3867011464091" seq="331" r="0.1" class="bzpt2"/>
<circle cx="30.5305848656459" cy="53.2231127716009" seq="332" r="0.1" class="bzpt2"/>
<circle cx="30.3810987898399" cy="53.0575656518909" seq="333" r="0.1" class="bzpt2"/>
<circle cx="30.2366864914518" cy="52.8900708871099" seq="334" r="0.1" class="bzpt2"/>
<circle cx="30.0973918876931" cy="52.7206377319524" seq="335" r="0.1" class="bzpt2"/>
<circle cx="29.9632568952903" cy="52.5492732903367" seq="336" r="0.1" class="bzpt2"/>
<circle cx="29.8343215261613" cy="52.3759822020462" seq="337" r="0.1" class="bzpt2"/>
<circle cx="29.7106240282128" cy="52.2007663279539" seq="338" r="0.1" class="bzpt2"/>
<circle cx="29.5922010747666" cy="52.023624441365" seq="339" r="0.1" class="bzpt2"/>
<circle cx="29.4790880050439" cy="51.844551934151" seq="340" r="0.1" class="bzpt2"/>
<circle cx="29.3713191167441" cy="51.6635405473308" seq="341" r="0.1" class="bzpt2"/>
<circle cx="29.268928010034" cy="51.4805781364616" seq="342" r="0.1" class="bzpt2"/>
<circle cx="29.1719479802752" cy="51.2956484825585" seq="343" r="0.1" class="bzpt2"/>
<circle cx="29.0804124546124" cy="51.1087311591514" seq="344" r="0.1" class="bzpt2"/>
<circle cx="28.9943554652364" cy="50.9198014654518" seq="345" r="0.1" class="bzpt2"/>
<circle cx="28.9138121498381" cy="50.7288304343726" seq="346" r="0.1" class="bzpt2"/>
<circle cx="28.8388192676372" cy="50.5357849223152" seq="347" r="0.1" class="bzpt2"/>
<circle cx="28.7694157175678" cy="50.3406277852266" seq="348" r="0.1" class="bzpt2"/>
<circle cx="28.7056430438856" cy="50.1433181425247" seq="349" r="0.1" class="bzpt2"/>
<circle cx="28.6475459137713" cy="49.9438117272124" seq="350" r="0.1" class="bzpt2"/>
<circle cx="28.5951725515569" cy="49.7420613170266" seq="351" r="0.1" class="bzpt2"/>
<circle cx="28.5485751150576" cy="49.5380172380101" seq="352" r="0.1" class="bzpt2"/>
<circle cx="28.5078100011378" cy="49.3316279286701" seq="353" r="0.1" class="bzpt2"/>
<circle cx="28.4729380700408" cy="49.122840550128" seq="354" r="0.1" class="bzpt2"/>
<circle cx="28.4440247810084" cy="48.9116016255648" seq="355" r="0.1" class="bzpt2"/>
<circle cx="28.4211402351612" cy="48.6978576909777" seq="356" r="0.1" class="bzpt2"/>
<circle cx="28.4043591252538" cy="48.4815559388825" seq="357" r="0.1" class="bzpt2"/>
<circle cx="28.393760595552" cy="48.2626448371372" seq="358" r="0.1" class="bzpt2"/>
<circle cx="28.3894280184515" cy="48.0410747064795" seq="359" r="0.1" class="bzpt2"/>
<circle cx="28.3914486973748" cy="47.8167982425435" seq="360" r="0.1" class="bzpt2"/>
<circle cx="28.3999135077835" cy="47.5897709708725" seq="361" r="0.1" class="bzpt2"/>
<circle cx="28.4149164897225" cy="47.3599516265969" seq="362" r="0.1" class="bzpt2"/>
<circle cx="28.4365544061303" cy="47.1273024537279" seq="363" r="0.1" class="bzpt2"/>
<circle cx="28.4649262812258" cy="46.8917894222938" seq="364" r="0.1" class="bzpt2"/>
<circle cx="28.5001329326863" cy="46.6533823645606" seq="365" r="0.1" class="bzpt2"/>
<circle cx="28.5422765101738" cy="46.4120550342319" seq="366" r="0.1" class="bzpt2"/>
<circle cx="28.591460051182" cy="46.1677850946889" seq="367" r="0.1" class="bzpt2"/>
<circle cx="28.6477870633151" cy="45.9205540439717" seq="368" r="0.1" class="bzpt2"/>
<circle cx="28.7113611401024" cy="45.6703470852886" seq="369" r="0.1" class="bzpt2"/>
<circle cx="28.782285615441" cy="45.4171529524139" seq="370" r="0.1" class="bzpt2"/>
<circle cx="28.8606632598398" cy="45.1609636994387" seq="371" r="0.1" class="bzpt2"/>
<circle cx="28.9465960198956" cy="44.9017744640583" seq="372" r="0.1" class="bzpt2"/>
<circle cx="29.0401848009208" cy="44.6395832129843" seq="373" r="0.1" class="bzpt2"/>
<circle cx="29.141529291394" cy="44.3743904772578" seq="374" r="0.1" class="bzpt2"/>
<circle cx="29.2507278269262" cy="44.1061990842838" seq="375" r="0.1" class="bzpt2"/>
<circle cx="29.3678772907171" cy="43.835013892377" seq="376" r="0.1" class="bzpt2"/>
<circle cx="29.4930730469997" cy="43.5608415325758" seq="377" r="0.1" class="bzpt2"/>
<circle cx="29.6264089037082" cy="43.283690161475" seq="378" r="0.1" class="bzpt2"/>
<circle cx="29.7679771005128" cy="43.0035692278977" seq="379" r="0.1" class="bzpt2"/>
<circle cx="29.917868318427" cy="42.7204892553895" seq="380" r="0.1" class="bzpt2"/>
<circle cx="30.0761717073503" cy="42.4344616417815" seq="381" r="0.1" class="bzpt2"/>
<circle cx="30.24297492816" cy="42.1454984764517" seq="382" r="0.1" class="bzpt2"/>
<circle cx="30.4183642062528" cy="41.8536123753956" seq="383" r="0.1" class="bzpt2"/>
<circle cx="30.6024243937687" cy="41.5588163338127" seq="384" r="0.1" class="bzpt2"/>
<circle cx="30.7952390380582" cy="41.2611235955937" seq="385" r="0.1" class="bzpt2"/>
<circle cx="30.9968904542859" cy="40.9605475388652" seq="386" r="0.1" class="bzpt2"/>
<circle cx="31.2074598003827" cy="40.6571015765827" seq="387" r="0.1" class="bzpt2"/>
<circle cx="31.4270271528522" cy="40.3507990710648" seq="388" r="0.1" class="bzpt2"/>
<circle cx="31.6556715822087" cy="40.0416532613075" seq="389" r="0.1" class="bzpt2"/>
<circle cx="31.8934712270656" cy="39.7296772019032" seq="390" r="0.1" class="bzpt2"/>
<circle cx="32.1405033661066" cy="39.4148837124104" seq="391" r="0.1" class="bzpt2"/>
<circle cx="32.3968444873604" cy="39.0972853360544" seq="392" r="0.1" class="bzpt2"/>
<circle cx="32.6625703543528" cy="38.7768943067017" seq="393" r="0.1" class="bzpt2"/>
<circle cx="32.93775606885" cy="38.4537225231112" seq="394" r="0.1" class="bzpt2"/>
<circle cx="33.2224761300134" cy="38.1277815295463" seq="395" r="0.1" class="bzpt2"/>
<circle cx="33.5168044898805" cy="37.7990825019005" seq="396" r="0.1" class="bzpt2"/>
<circle cx="33.8208146051597" cy="37.467636238574" seq="397" r="0.1" class="bzpt2"/>
<circle cx="34.1345794853801" cy="37.1334531554072" seq="398" r="0.1" class="bzpt2"/>
<circle cx="34.4581717374909" cy="36.7965432840558" seq="399" r="0.1" class="bzpt2"/>
<circle cx="34.7916636070299" cy="36.4569162732549" seq="400" r="0.1" class="bzpt2"/>
<circle cx="35.1351270160098" cy="36.1145813924877" seq="401" r="0.1" class="bzpt2"/>
<circle cx="35.4886335976881" cy="35.7695475376308" seq="402" r="0.1" class="bzpt2"/>
<circle cx="35.8522547283916" cy="35.4218232382036" seq="403" r="0.1" class="bzpt2"/>
<circle cx="36.2260615565802" cy="35.0714166658969" seq="404" r="0.1" class="bzpt2"/>
<circle cx="36.6101250293257" cy="34.7183356440991" seq="405" r="0.1" class="bzpt2"/>
<circle cx="37.0045159163894" cy="34.3625876581814" seq="406" r="0.1" class="bzpt2"/>
<circle cx="37.4093048320703" cy="34.0041798663329" seq="407" r="0.1" class="bzpt2"/>
<circle cx="37.8245622549939" cy="33.6431191107724" seq="408" r="0.1" class="bzpt2"/>
<circle cx="38.2503585460049" cy="33.2794119291875" seq="409" r="0.1" class="bzpt2"/>
<circle cx="38.6867639643125" cy="32.9130645662777" seq="410" r="0.1" class="bzpt2"/>
<circle cx="39.1338486820406" cy="32.5440829852979" seq="411" r="0.1" class="bzpt2"/>
<circle cx="39.5916827973094" cy="32.1724728795165" seq="412" r="0.1" class="bzpt2"/>
<circle cx="40.0603363459854" cy="31.7982396835197" seq="413" r="0.1" class="bzpt2"/>
<circle cx="40.5398793122089" cy="31.4213885843047" seq="414" r="0.1" class="bzpt2"/>
<circle cx="41.0303816378154" cy="31.0419245321184" seq="415" r="0.1" class="bzpt2"/>
<circle cx="41.5319132307479" cy="30.6598522510061" seq="416" r="0.1" class="bzpt2"/>
<circle cx="42.0445439725544" cy="30.2751762490451" seq="417" r="0.1" class="bzpt2"/>
<circle cx="42.5683437250576" cy="29.8879008282435" seq="418" r="0.1" class="bzpt2"/>
<circle cx="43.1033823362736" cy="29.498030094091" seq="419" r="0.1" class="bzpt2"/>
<circle cx="43.6497296456526" cy="29.1055679647551" seq="420" r="0.1" class="bzpt2"/>
<circle cx="44.207455488707" cy="28.7105181799177" seq="421" r="0.1" class="bzpt2"/>
<circle cx="44.7766297010869" cy="28.3128843092518" seq="422" r="0.1" class="bzpt2"/>
<circle cx="45.3573221221587" cy="27.9126697605426" seq="423" r="0.1" class="bzpt2"/>
<circle cx="45.9496025981334" cy="27.5098777874549" seq="424" r="0.1" class="bzpt2"/>
<circle cx="46.5535409847945" cy="27.1045114969573" seq="425" r="0.1" class="bzpt2"/>
<circle cx="47.1692071498629" cy="26.6965738564075" seq="426" r="0.1" class="bzpt2"/>
<circle cx="47.7966709750359" cy="26.2860677003112" seq="427" r="0.1" class="bzpt2"/>
<circle cx="48.4360023577383" cy="25.8729957367624" seq="428" r="0.1" class="bzpt2"/>
<circle cx="49.0872712126093" cy="25.4573605535776" seq="429" r="0.1" class="bzpt2"/>
<circle cx="49.7505474727601" cy="25.0391646241337" seq="430" r="0.1" class="bzpt2"/>
<circle cx="50.4259010908205" cy="24.6184103129219" seq="431" r="0.1" class="bzpt2"/>
<circle cx="51.1134020398025" cy="24.1950998808281" seq="432" r="0.1" class="bzpt2"/>
<circle cx="51.8131203137974" cy="23.7692354901529" seq="433" r="0.1" class="bzpt2"/>
<circle cx="52.5251259285268" cy="23.3408192093804" seq="434" r="0.1" class="bzpt2"/>
<circle cx="53.2494889217633" cy="22.9098530177089" seq="435" r="0.1" class="bzpt2"/>
<circle cx="53.9862793536354" cy="22.4763388093535" seq="436" r="0.1" class="bzpt2"/>
<circle cx="54.7355673068318" cy="22.0402783976314" seq="437" r="0.1" class="bzpt2"/>
<circle cx="55.4974228867137" cy="21.6016735188406" seq="438" r="0.1" class="bzpt2"/>
<circle cx="56.2719162213501" cy="21.1605258359417" seq="439" r="0.1" class="bzpt2"/>
<circle cx="57.0591174614829" cy="20.7168369420524" seq="440" r="0.1" class="bzpt2"/>
<circle cx="57.859096780431" cy="20.2706083637649" seq="441" r="0.1" class="bzpt2"/>
<circle cx="58.6719243739426" cy="19.8218415642939" seq="442" r="0.1" class="bzpt2"/>
<circle cx="59.4976704600003" cy="19.3705379464646" seq="443" r="0.1" class="bzpt2"/>
<circle cx="60.3364052785889" cy="18.9166988555489" seq="444" r="0.1" class="bzpt2"/>
<circle cx="61.1881990914269" cy="18.4603255819568" seq="445" r="0.1" class="bzpt2"/>
<circle cx="62.0531221816711" cy="18.0014193637924" seq="446" r="0.1" class="bzpt2"/>
<circle cx="62.931244853596" cy="17.5399813892786" seq="447" r="0.1" class="bzpt2"/>
<circle cx="63.8226374322523" cy="17.0760127990608" seq="448" r="0.1" class="bzpt2"/>
<circle cx="64.7273702631102" cy="16.6095146883928" seq="449" r="0.1" class="bzpt2"/>
<circle cx="65.6455137116876" cy="16.1404881092133" seq="450" r="0.1" class="bzpt2"/>
<circle cx="66.5771381631681" cy="15.6689340721182" seq="451" r="0.1" class="bzpt2"/>
<circle cx="67.522314022011" cy="15.1948535482328" seq="452" r="0.1" class="bzpt2"/>
<circle cx="68.4811117115541" cy="14.718247470992" seq="453" r="0.1" class="bzpt2"/>
<circle cx="69.4536016736141" cy="14.2391167378305" seq="454" r="0.1" class="bzpt2"/>
<circle cx="70.4398543680825" cy="13.7574622117897" seq="455" r="0.1" class="bzpt2"/>
<circle cx="71.4399402725229" cy="13.2732847230444" seq="456" r="0.1" class="bzpt2"/>
<circle cx="72.4539298817664" cy="12.7865850703551" seq="457" r="0.1" class="bzpt2"/>
<circle cx="73.4818937075101" cy="12.2973640224477" seq="458" r="0.1" class="bzpt2"/>
<circle cx="74.5239022779179" cy="11.8056223193269" seq="459" r="0.1" class="bzpt2"/>
<circle cx="75.5800261372242" cy="11.311360673524" seq="460" r="0.1" class="bzpt2"/>
<circle cx="76.6503358453428" cy="10.8145797712858" seq="461" r="0.1" class="bzpt2"/>
<circle cx="77.7349019774794" cy="10.3152802737043" seq="462" r="0.1" class="bzpt2"/>
<circle cx="78.8337951237504" cy="9.81346281779305" seq="463" r="0.1" class="bzpt2"/>
<circle cx="79.9470858888081" cy="9.30912801751144" seq="464" r="0.1" class="bzpt2"/>
<circle cx="81.0748448914701" cy="8.8022764647399" seq="465" r="0.1" class="bzpt2"/>
<circle cx="82.2171427643577" cy="8.29290873020897" seq="466" r="0.1" class="bzpt2"/>
<circle cx="83.3740501535394" cy="7.78102536438412" seq="467" r="0.1" class="bzpt2"/>
<circle cx="84.5456377181827" cy="7.26662689830911" seq="468" r="0.1" class="bzpt2"/>
<circle cx="85.7319761302118" cy="6.74971384440941" seq="469" r="0.1" class="bzpt2"/>
<circle cx="86.9331360739737" cy="6.23028669725854" seq="470" r="0.1" class="bzpt2"/>
<circle cx="88.1491882459117" cy="5.70834593430816" seq="471" r="0.1" class="bzpt2"/>
<circle cx="89.3802033542455" cy="5.18389201658498" seq="472" r="0.1" class="bzpt2"/>
<circle cx="90.6262521186593" cy="4.65692538935519" seq="473" r="0.1" class="bzpt2"/>
<circle cx="91.8874052699976" cy="4.12744648275843" seq="474" r="0.1" class="bzpt2"/>
<circle cx="93.1637335499677" cy="3.59545571241313" seq="475" r="0.1" class="bzpt2"/>
<circle cx="94.455307710851" cy="3.06095347999396" seq="476" r="0.1" class="bzpt2"/>
<circle cx="95.7621985152192" cy="2.52394017378355" seq="477" r="0.1" class="bzpt2"/>
<circle cx="97.0844767356608" cy="1.98441616919905" seq="478" r="0.1" class="bzpt2"/>
<circle cx="98.4222131545116" cy="1.44238182929557" seq="479" r="0.1" class="bzpt2"/>
<circle cx="99.7754785635951" cy="0.897837505246711" seq="480" r="0.1" class="bzpt2"/>
<circle cx="100.825177850735" cy="0.647281106596744" seq="481" r="0.1" class="bzpt2"/>
<circle cx="101.081399698555" cy="1.08865054255087" seq="482" r="0.1" class="bzpt2"/>
<circle cx="101.309907831387" cy="1.54114724980984" seq="483" r="0.1" class="bzpt2"/>
<circle cx="101.510052173849" cy="2.00348393515654" seq="484" r="0.1" class="bzpt2"/>
<circle cx="101.681263341789" cy="2.47434531193915" seq="485" r="0.1" class="bzpt2"/>
<circle cx="101.823054262104" cy="2.95239184188748" seq="486" r="0.1" class="bzpt2"/>
<circle cx="101.9350215584" cy="3.43626354592192" seq="487" r="0.1" class="bzpt2"/>
<circle cx="102.016846698544" cy="3.9245838731139" seq="488" r="0.1" class="bzpt2"/>
<circle cx="102.068296900848" cy="4.41596361679105" seq="489" r="0.1" class="bzpt2"/>
<circle cx="102.089225796299" cy="4.90900486664589" seq="490" r="0.1" class="bzpt2"/>
<circle cx="102.079573844959" cy="5.40230498560728" seq="491" r="0.1" class="bzpt2"/>
<circle cx="102.039368505353" cy="5.89446060015329" seq="492" r="0.1" class="bzpt2"/>
<circle cx="101.968724156349" cy="6.38407159272738" seq="493" r="0.1" class="bzpt2"/>
<circle cx="101.867841771764" cy="6.86974508488504" seq="494" r="0.1" class="bzpt2"/>
<circle cx="101.737008348626" cy="7.35009939984906" seq="495" r="0.1" class="bzpt2"/>
<circle cx="101.576596090699" cy="7.82376799319708" seq="496" r="0.1" class="bzpt2"/>
<circle cx="101.387061349618" cy="8.28940334049946" seq="497" r="0.1" class="bzpt2"/>
<circle cx="101.168943326623" cy="8.74568077084789" seq="498" r="0.1" class="bzpt2"/>
<circle cx="100.922862538611" cy="9.19130223536868" seq="499" r="0.1" class="bzpt2"/>
<circle cx="100.649519052838" cy="9.625" seq="500" r="0.1" class="bzpt2"/>
</g>
</svg>
