<svg xmlns="http://www.w3.org/2000/svg"
     width="100%"
     viewBox="0,0,100,100"
     preserveAspectRatio="xMidYMin slice"
>
<style>
/* <![CDATA[ */
.bzpt { fill:blue; stroke:none; }
.bzpt2 { fill:green; stroke:none; }
.bzpt3 { fill:red; stroke:none; }
/* ]]> */
</style>
<path d="M 0,0 C 200,80   -100,80   100,0" stroke-width="0.03" stroke="black" fill="none" />
<circle cx="0.278543007265578" cy="-0.696357518163945" seq="0" r="0.1" class="bzpt2"/>
<circle cx="1.47399960588306" cy="-0.216736329458703" seq="1" r="0.1" class="bzpt2"/>
<circle cx="2.65752009412008" cy="0.260974796559457" seq="2" r="0.1" class="bzpt2"/>
<circle cx="3.8291527336911" cy="0.73677609237745" seq="3" r="0.1" class="bzpt2"/>
<circle cx="4.98894579182725" cy="1.21066779733856" seq="4" r="0.1" class="bzpt2"/>
<circle cx="6.13694754140916" cy="1.68265015788416" seq="5" r="0.1" class="bzpt2"/>
<circle cx="7.273206261103" cy="2.15272342780529" seq="6" r="0.1" class="bzpt2"/>
<circle cx="8.39777023549968" cy="2.62088786850439" seq="7" r="0.1" class="bzpt2"/>
<circle cx="9.51068775525733" cy="3.08714374926788" seq="8" r="0.1" class="bzpt2"/>
<circle cx="10.6120071172471" cy="3.55149134754988" seq="9" r="0.1" class="bzpt2"/>
<circle cx="11.701776624702" cy="4.01393094926762" seq="10" r="0.1" class="bzpt2"/>
<circle cx="12.7800445873699" cy="4.47446284910926" seq="11" r="0.1" class="bzpt2"/>
<circle cx="13.8468593216685" cy="4.93308735085434" seq="12" r="0.1" class="bzpt2"/>
<circle cx="14.9022691508452" cy="5.38980476770784" seq="13" r="0.1" class="bzpt2"/>
<circle cx="15.9463224051394" cy="5.84461542264818" seq="14" r="0.1" class="bzpt2"/>
<circle cx="16.9790674219485" cy="6.29751964879" seq="15" r="0.1" class="bzpt2"/>
<circle cx="18.000552545997" cy="6.74851778976223" seq="16" r="0.1" class="bzpt2"/>
<circle cx="19.0108261295099" cy="7.19761020010244" seq="17" r="0.1" class="bzpt2"/>
<circle cx="20.0099365323881" cy="7.64479724566788" seq="18" r="0.1" class="bzpt2"/>
<circle cx="20.9979321223879" cy="8.09007930406439" seq="19" r="0.1" class="bzpt2"/>
<circle cx="21.9748612753039" cy="8.53345676509364" seq="20" r="0.1" class="bzpt2"/>
<circle cx="22.9407723751546" cy="8.97493003121991" seq="21" r="0.1" class="bzpt2"/>
<circle cx="23.8957138143714" cy="9.4144995180571" seq="22" r="0.1" class="bzpt2"/>
<circle cx="24.8397339939899" cy="9.85216565487707" seq="23" r="0.1" class="bzpt2"/>
<circle cx="25.7728813238455" cy="10.2879288851403" seq="24" r="0.1" class="bzpt2"/>
<circle cx="26.6952042227699" cy="10.7217896670499" seq="25" r="0.1" class="bzpt2"/>
<circle cx="27.6067511187915" cy="11.15374847413" seq="26" r="0.1" class="bzpt2"/>
<circle cx="28.5075704493375" cy="11.5838057958304" seq="27" r="0.1" class="bzpt2"/>
<circle cx="29.3977106614378" cy="12.0119621381572" seq="28" r="0.1" class="bzpt2"/>
<circle cx="30.2772202119314" cy="12.4382180243326" seq="29" r="0.1" class="bzpt2"/>
<circle cx="31.1461475676738" cy="12.8625739954835" seq="30" r="0.1" class="bzpt2"/>
<circle cx="32.0045412057454" cy="13.2850306113621" seq="31" r="0.1" class="bzpt2"/>
<circle cx="32.8524496136606" cy="13.7055884510981" seq="32" r="0.1" class="bzpt2"/>
<circle cx="33.689921289578" cy="14.1242481139855" seq="33" r="0.1" class="bzpt2"/>
<circle cx="34.5170047425086" cy="14.5410102203053" seq="34" r="0.1" class="bzpt2"/>
<circle cx="35.333748492525" cy="14.9558754121858" seq="35" r="0.1" class="bzpt2"/>
<circle cx="36.1402010709675" cy="15.3688443545015" seq="36" r="0.1" class="bzpt2"/>
<circle cx="36.9364110206491" cy="15.7799177358147" seq="37" r="0.1" class="bzpt2"/>
<circle cx="37.7224268960568" cy="16.1890962693592" seq="38" r="0.1" class="bzpt2"/>
<circle cx="38.4982972635489" cy="16.59638069407" seq="39" r="0.1" class="bzpt2"/>
<circle cx="39.2640707015476" cy="17.0017717756605" seq="40" r="0.1" class="bzpt2"/>
<circle cx="40.0197958007254" cy="17.4052703077501" seq="41" r="0.1" class="bzpt2"/>
<circle cx="40.7655211641841" cy="17.8068771130432" seq="42" r="0.1" class="bzpt2"/>
<circle cx="41.501295407625" cy="18.2065930445646" seq="43" r="0.1" class="bzpt2"/>
<circle cx="42.2271671595086" cy="18.6044189869509" seq="44" r="0.1" class="bzpt2"/>
<circle cx="42.9431850612031" cy="19.0003558578036" seq="45" r="0.1" class="bzpt2"/>
<circle cx="43.6493977671182" cy="19.3944046091046" seq="46" r="0.1" class="bzpt2"/>
<circle cx="44.3458539448235" cy="19.7865662286985" seq="47" r="0.1" class="bzpt2"/>
<circle cx="45.0326022751484" cy="20.1768417418441" seq="48" r="0.1" class="bzpt2"/>
<circle cx="45.7096914522618" cy="20.5652322128386" seq="49" r="0.1" class="bzpt2"/>
<circle cx="46.3771701837277" cy="20.951738746718" seq="50" r="0.1" class="bzpt2"/>
<circle cx="47.035087190535" cy="21.3363624910371" seq="51" r="0.1" class="bzpt2"/>
<circle cx="47.6834912070967" cy="21.719104637733" seq="52" r="0.1" class="bzpt2"/>
<circle cx="48.322430981216" cy="22.0999664250754" seq="53" r="0.1" class="bzpt2"/>
<circle cx="48.9519552740151" cy="22.4789491397082" seq="54" r="0.1" class="bzpt2"/>
<circle cx="49.5721128598212" cy="22.8560541187862" seq="55" r="0.1" class="bzpt2"/>
<circle cx="50.182952526006" cy="23.2312827522109" seq="56" r="0.1" class="bzpt2"/>
<circle cx="50.7845230727732" cy="23.60463648497" seq="57" r="0.1" class="bzpt2"/>
<circle cx="51.3768733128871" cy="23.9761168195846" seq="58" r="0.1" class="bzpt2"/>
<circle cx="51.9600520713372" cy="24.345725318669" seq="59" r="0.1" class="bzpt2"/>
<circle cx="52.5341081849311" cy="24.713463607607" seq="60" r="0.1" class="bzpt2"/>
<circle cx="53.0990905018072" cy="25.0793333773502" seq="61" r="0.1" class="bzpt2"/>
<circle cx="53.6550478808606" cy="25.4433363873417" seq="62" r="0.1" class="bzpt2"/>
<circle cx="54.2020291910714" cy="25.8054744685706" seq="63" r="0.1" class="bzpt2"/>
<circle cx="54.7400833107253" cy="26.1657495267616" seq="64" r="0.1" class="bzpt2"/>
<circle cx="55.2692591265165" cy="26.5241635457046" seq="65" r="0.1" class="bzpt2"/>
<circle cx="55.78960553252" cy="26.8807185907272" seq="66" r="0.1" class="bzpt2"/>
<circle cx="56.3011714290198" cy="27.2354168123158" seq="67" r="0.1" class="bzpt2"/>
<circle cx="56.8040057211803" cy="27.5882604498885" seq="68" r="0.1" class="bzpt2"/>
<circle cx="57.2981573175426" cy="27.939251835723" seq="69" r="0.1" class="bzpt2"/>
<circle cx="57.783675128331" cy="28.2883933990425" seq="70" r="0.1" class="bzpt2"/>
<circle cx="58.26060806355" cy="28.6356876702632" seq="71" r="0.1" class="bzpt2"/>
<circle cx="58.7290050308517" cy="28.9811372854032" seq="72" r="0.1" class="bzpt2"/>
<circle cx="59.1889149331515" cy="29.3247449906561" seq="73" r="0.1" class="bzpt2"/>
<circle cx="59.6403866659695" cy="29.6665136471269" seq="74" r="0.1" class="bzpt2"/>
<circle cx="60.0834691144696" cy="30.0064462357313" seq="75" r="0.1" class="bzpt2"/>
<circle cx="60.5182111501703" cy="30.3445458622538" seq="76" r="0.1" class="bzpt2"/>
<circle cx="60.9446616272964" cy="30.6808157625615" seq="77" r="0.1" class="bzpt2"/>
<circle cx="61.3628693787387" cy="31.0152593079671" seq="78" r="0.1" class="bzpt2"/>
<circle cx="61.7728832115866" cy="31.3478800107331" seq="79" r="0.1" class="bzpt2"/>
<circle cx="62.1747519021959" cy="31.678681529705" seq="80" r="0.1" class="bzpt2"/>
<circle cx="62.5685241907518" cy="32.0076676760603" seq="81" r="0.1" class="bzpt2"/>
<circle cx="62.9542487752823" cy="32.3348424191563" seq="82" r="0.1" class="bzpt2"/>
<circle cx="63.3319743050761" cy="32.6602098924539" seq="83" r="0.1" class="bzpt2"/>
<circle cx="63.7017493734559" cy="32.9837743994916" seq="84" r="0.1" class="bzpt2"/>
<circle cx="64.0636225098532" cy="33.3055404198796" seq="85" r="0.1" class="bzpt2"/>
<circle cx="64.4176421711303" cy="33.6255126152751" seq="86" r="0.1" class="bzpt2"/>
<circle cx="64.7638567320879" cy="33.9436958352957" seq="87" r="0.1" class="bzpt2"/>
<circle cx="65.1023144750997" cy="34.2600951233201" seq="88" r="0.1" class="bzpt2"/>
<circle cx="65.4330635788068" cy="34.5747157221144" seq="89" r="0.1" class="bzpt2"/>
<circle cx="65.7561521058046" cy="34.8875630792156" seq="90" r="0.1" class="bzpt2"/>
<circle cx="66.0716279892544" cy="35.1986428519921" seq="91" r="0.1" class="bzpt2"/>
<circle cx="66.3795390183471" cy="35.5079609122881" seq="92" r="0.1" class="bzpt2"/>
<circle cx="66.6799328225472" cy="35.8155233505473" seq="93" r="0.1" class="bzpt2"/>
<circle cx="66.972856854545" cy="36.1213364792953" seq="94" r="0.1" class="bzpt2"/>
<circle cx="67.2583583718463" cy="36.4254068358445" seq="95" r="0.1" class="bzpt2"/>
<circle cx="67.5364844169293" cy="36.7277411840683" seq="96" r="0.1" class="bzpt2"/>
<circle cx="67.807281795905" cy="37.0283465150713" seq="97" r="0.1" class="bzpt2"/>
<circle cx="68.070797055622" cy="37.3272300465612" seq="98" r="0.1" class="bzpt2"/>
<circle cx="68.3270764591633" cy="37.6243992207085" seq="99" r="0.1" class="bzpt2"/>
<circle cx="68.576165959698" cy="37.9198617002516" seq="100" r="0.1" class="bzpt2"/>
<circle cx="68.8181111726597" cy="38.2136253625862" seq="101" r="0.1" class="bzpt2"/>
<circle cx="69.0529573462466" cy="38.5056982915453" seq="102" r="0.1" class="bzpt2"/>
<circle cx="69.2807493302572" cy="38.796088766555" seq="103" r="0.1" class="bzpt2"/>
<circle cx="69.5015315433049" cy="39.0848052488205" seq="104" r="0.1" class="bzpt2"/>
<circle cx="69.7153479384871" cy="39.3718563641722" seq="105" r="0.1" class="bzpt2"/>
<circle cx="69.9222419676243" cy="39.6572508821741" seq="106" r="0.1" class="bzpt2"/>
<circle cx="70.1222565442306" cy="39.9409976910761" seq="107" r="0.1" class="bzpt2"/>
<circle cx="70.315434005431" cy="40.223105768167" seq="108" r="0.1" class="bzpt2"/>
<circle cx="70.5018160731041" cy="40.5035841450726" seq="109" r="0.1" class="bzpt2"/>
<circle cx="70.6814438145958" cy="40.782441867533" seq="110" r="0.1" class="bzpt2"/>
<circle cx="70.8543576034348" cy="41.059687949188" seq="111" r="0.1" class="bzpt2"/>
<circle cx="71.0205970805622" cy="41.3353313189131" seq="112" r="0.1" class="bzpt2"/>
<circle cx="71.180201116689" cy="41.6093807612661" seq="113" r="0.1" class="bzpt2"/>
<circle cx="71.3332077764976" cy="41.8818448496434" seq="114" r="0.1" class="bzpt2"/>
<circle cx="71.4796542855142" cy="42.1527318717992" seq="115" r="0.1" class="bzpt2"/>
<circle cx="71.6195770005946" cy="42.4220497474586" seq="116" r="0.1" class="bzpt2"/>
<circle cx="71.7530113850838" cy="42.6898059378571" seq="117" r="0.1" class="bzpt2"/>
<circle cx="71.8799919898249" cy="42.9560073471688" seq="118" r="0.1" class="bzpt2"/>
<circle cx="72.0005524413018" cy="43.2206602159439" seq="119" r="0.1" class="bzpt2"/>
<circle cx="72.1147254383014" cy="43.4837700068725" seq="120" r="0.1" class="bzpt2"/>
<circle cx="72.2225427585586" cy="43.7453412834117" seq="121" r="0.1" class="bzpt2"/>
<circle cx="72.3240352769029" cy="44.005377582081" seq="122" r="0.1" class="bzpt2"/>
<circle cx="72.4192329964479" cy="44.2638812795168" seq="123" r="0.1" class="bzpt2"/>
<circle cx="72.5081650943424" cy="44.5208534557044" seq="124" r="0.1" class="bzpt2"/>
<circle cx="72.5908599835263" cy="44.776293755148" seq="125" r="0.1" class="bzpt2"/>
<circle cx="72.6673453918016" cy="45.0302002481027" seq="126" r="0.1" class="bzpt2"/>
<circle cx="72.7376484593197" cy="45.2825692943545" seq="127" r="0.1" class="bzpt2"/>
<circle cx="72.801795855306" cy="45.5333954123925" seq="128" r="0.1" class="bzpt2"/>
<circle cx="72.8598139144741" cy="45.7826711571396" seq="129" r="0.1" class="bzpt2"/>
<circle cx="72.9117287931387" cy="46.0303870096913" seq="130" r="0.1" class="bzpt2"/>
<circle cx="72.9575666445016" cy="46.2765312827188" seq="131" r="0.1" class="bzpt2"/>
<circle cx="72.9973538119885" cy="46.5210900453102" seq="132" r="0.1" class="bzpt2"/>
<circle cx="73.0311170388536" cy="46.764047071026" seq="133" r="0.1" class="bzpt2"/>
<circle cx="73.0588836915672" cy="47.0053838128084" seq="134" r="0.1" class="bzpt2"/>
<circle cx="73.0806819937981" cy="47.2450794080974" seq="135" r="0.1" class="bzpt2"/>
<circle cx="73.0965412671019" cy="47.4831107170524" seq="136" r="0.1" class="bzpt2"/>
<circle cx="73.1064921738014" cy="47.7194523961557" seq="137" r="0.1" class="bzpt2"/>
<circle cx="73.1105669569955" cy="47.9540770086936" seq="138" r="0.1" class="bzpt2"/>
<circle cx="73.1087996722342" cy="48.1869551726722" seq="139" r="0.1" class="bzpt2"/>
<circle cx="73.1012264051577" cy="48.418055745689" seq="140" r="0.1" class="bzpt2"/>
<circle cx="73.087885469366" cy="48.6473460451305" seq="141" r="0.1" class="bzpt2"/>
<circle cx="73.0688175789759" cy="48.8747921009287" seq="142" r="0.1" class="bzpt2"/>
<circle cx="73.0440659907475" cy="49.1003589369481" seq="143" r="0.1" class="bzpt2"/>
<circle cx="73.0136766113194" cy="49.3240108760269" seq="144" r="0.1" class="bzpt2"/>
<circle cx="72.977698065962" cy="49.5457118627731" seq="145" r="0.1" class="bzpt2"/>
<circle cx="72.9361817263135" cy="49.7654257974894" seq="146" r="0.1" class="bzpt2"/>
<circle cx="72.8891816957482" cy="49.9831168741092" seq="147" r="0.1" class="bzpt2"/>
<circle cx="72.8367547522996" cy="50.1987499148064" seq="148" r="0.1" class="bzpt2"/>
<circle cx="72.7789602503485" cy="50.4122906940039" seq="149" r="0.1" class="bzpt2"/>
<circle cx="72.7158599835263" cy="50.623706244852" seq="150" r="0.1" class="bzpt2"/>
<circle cx="72.6475180124215" cy="50.8329651418593" seq="151" r="0.1" class="bzpt2"/>
<circle cx="72.5740004616502" cy="51.0400377542014" seq="152" r="0.1" class="bzpt2"/>
<circle cx="72.4953752916161" cy="51.2448964652558" seq="153" r="0.1" class="bzpt2"/>
<circle cx="72.4117120508257" cy="51.4475158550666" seq="154" r="0.1" class="bzpt2"/>
<circle cx="72.3230816149036" cy="51.6478728436566" seq="155" r="0.1" class="bzpt2"/>
<circle cx="72.2295559184954" cy="51.8459467943307" seq="156" r="0.1" class="bzpt2"/>
<circle cx="72.1312076860487" cy="52.0417195772814" seq="157" r="0.1" class="bzpt2"/>
<circle cx="72.0281101670702" cy="52.2351755948771" seq="158" r="0.1" class="bzpt2"/>
<circle cx="71.920336880885" cy="52.4263017709415" seq="159" r="0.1" class="bzpt2"/>
<circle cx="71.807961375239" cy="52.6150875070905" seq="160" r="0.1" class="bzpt2"/>
<circle cx="71.6910570023093" cy="52.8015246097717" seq="161" r="0.1" class="bzpt2"/>
<circle cx="71.5696967148772" cy="52.9856071920392" seq="162" r="0.1" class="bzpt2"/>
<circle cx="71.443952884607" cy="53.1673315543099" seq="163" r="0.1" class="bzpt2"/>
<circle cx="71.3138971435986" cy="53.3466960483906" seq="164" r="0.1" class="bzpt2"/>
<circle cx="71.1796002496665" cy="53.5237009289692" seq="165" r="0.1" class="bzpt2"/>
<circle cx="71.0411319751664" cy="53.6983481965485" seq="166" r="0.1" class="bzpt2"/>
<circle cx="70.8985610186493" cy="53.8706414354881" seq="167" r="0.1" class="bzpt2"/>
<circle cx="70.7519549381878" cy="54.0405856504531" seq="168" r="0.1" class="bzpt2"/>
<circle cx="70.6013801048776" cy="54.2081871041463" seq="169" r="0.1" class="bzpt2"/>
<circle cx="70.4469016747777" cy="54.3734531587725" seq="170" r="0.1" class="bzpt2"/>
<circle cx="70.288583577396" cy="54.5363921232471" seq="171" r="0.1" class="bzpt2"/>
<circle cx="70.1264885187537" cy="54.6970131077442" seq="172" r="0.1" class="bzpt2"/>
<circle cx="69.9606779970489" cy="54.8553258867871" seq="173" r="0.1" class="bzpt2"/>
<circle cx="69.7912123289871" cy="55.0113407717285" seq="174" r="0.1" class="bzpt2"/>
<circle cx="69.6181506849315" cy="55.1650684931507" seq="175" r="0.1" class="bzpt2"/>
<circle cx="69.4415511311465" cy="55.3165200934414" seq="176" r="0.1" class="bzpt2"/>
<circle cx="69.2614706775469" cy="55.46570682957" seq="177" r="0.1" class="bzpt2"/>
<circle cx="69.0779653295212" cy="55.6126400858988" seq="178" r="0.1" class="bzpt2"/>
<circle cx="68.8910901425541" cy="55.7573312967097" seq="179" r="0.1" class="bzpt2"/>
<circle cx="68.7008992785374" cy="55.899791878015" seq="180" r="0.1" class="bzpt2"/>
<circle cx="68.5074460628089" cy="56.0400331681301" seq="181" r="0.1" class="bzpt2"/>
<circle cx="68.3107830411109" cy="56.1780663764319" seq="182" r="0.1" class="bzpt2"/>
<circle cx="68.1109620357933" cy="56.3139025396904" seq="183" r="0.1" class="bzpt2"/>
<circle cx="67.9080342007151" cy="56.4475524853454" seq="184" r="0.1" class="bzpt2"/>
<circle cx="67.7020500744073" cy="56.5790268011001" seq="185" r="0.1" class="bzpt2"/>
<circle cx="67.4930596311644" cy="56.7083358102158" seq="186" r="0.1" class="bzpt2"/>
<circle cx="67.2811123298145" cy="56.8354895519142" seq="187" r="0.1" class="bzpt2"/>
<circle cx="67.0662571599995" cy="56.9604977663217" seq="188" r="0.1" class="bzpt2"/>
<circle cx="66.848542685854" cy="57.0833698834247" seq="189" r="0.1" class="bzpt2"/>
<circle cx="66.6280170870326" cy="57.2041150155396" seq="190" r="0.1" class="bzpt2"/>
<circle cx="66.4047281970744" cy="57.322741952842" seq="191" r="0.1" class="bzpt2"/>
<circle cx="66.1787235391337" cy="57.4392591615357" seq="192" r="0.1" class="bzpt2"/>
<circle cx="65.9500503591317" cy="57.5536747842823" seq="193" r="0.1" class="bzpt2"/>
<circle cx="65.7187556564085" cy="57.6659966425467" seq="194" r="0.1" class="bzpt2"/>
<circle cx="65.4848862119714" cy="57.776232240552" seq="195" r="0.1" class="bzpt2"/>
<circle cx="65.2484886144468" cy="57.884388770569" seq="196" r="0.1" class="bzpt2"/>
<circle cx="65.0096092838525" cy="57.9904731192959" seq="197" r="0.1" class="bzpt2"/>
<circle cx="64.7682944933113" cy="58.0944918751148" seq="198" r="0.1" class="bzpt2"/>
<circle cx="64.5245903888296" cy="58.1964513360354" seq="199" r="0.1" class="bzpt2"/>
<circle cx="64.2785430072656" cy="58.2963575181639" seq="200" r="0.1" class="bzpt2"/>
<circle cx="64.0301982926077" cy="58.3942161645525" seq="201" r="0.1" class="bzpt2"/>
<circle cx="63.7796021106848" cy="58.4900327543078" seq="202" r="0.1" class="bzpt2"/>
<circle cx="63.5268002624208" cy="58.5838125118545" seq="203" r="0.1" class="bzpt2"/>
<circle cx="63.2718384957478" cy="58.6755604162622" seq="204" r="0.1" class="bzpt2"/>
<circle cx="63.0147625162793" cy="58.7652812105626" seq="205" r="0.1" class="bzpt2"/>
<circle cx="62.7556179968471" cy="58.8529794109922" seq="206" r="0.1" class="bzpt2"/>
<circle cx="62.4944505859932" cy="58.9386593161085" seq="207" r="0.1" class="bzpt2"/>
<circle cx="62.2313059155067" cy="59.0223250157382" seq="208" r="0.1" class="bzpt2"/>
<circle cx="61.9662296070876" cy="59.1039803997197" seq="209" r="0.1" class="bzpt2"/>
<circle cx="61.6992672782138" cy="59.1836291664157" seq="210" r="0.1" class="bzpt2"/>
<circle cx="61.4304645472842" cy="59.2612748309721" seq="211" r="0.1" class="bzpt2"/>
<circle cx="61.159867038102" cy="59.3369207333079" seq="212" r="0.1" class="bzpt2"/>
<circle cx="60.8875203837608" cy="59.4105700458249" seq="213" r="0.1" class="bzpt2"/>
<circle cx="60.6134702299881" cy="59.4822257808287" seq="214" r="0.1" class="bzpt2"/>
<circle cx="60.3377622379991" cy="59.5518907976569" seq="215" r="0.1" class="bzpt2"/>
<circle cx="60.0604420869071" cy="59.6195678095126" seq="216" r="0.1" class="bzpt2"/>
<circle cx="59.7815554757348" cy="59.6852593900038" seq="217" r="0.1" class="bzpt2"/>
<circle cx="59.5011481250645" cy="59.7489679793909" seq="218" r="0.1" class="bzpt2"/>
<circle cx="59.2192657783651" cy="59.8106958905461" seq="219" r="0.1" class="bzpt2"/>
<circle cx="58.935954203027" cy="59.8704453146303" seq="220" r="0.1" class="bzpt2"/>
<circle cx="58.6512591911366" cy="59.9282183264923" seq="221" r="0.1" class="bzpt2"/>
<circle cx="58.3652265600162" cy="59.9840168897988" seq="222" r="0.1" class="bzpt2"/>
<circle cx="58.0779021525535" cy="60.0378428619013" seq="223" r="0.1" class="bzpt2"/>
<circle cx="57.7893318373453" cy="60.0896979984476" seq="224" r="0.1" class="bzpt2"/>
<circle cx="57.4995615086732" cy="60.1395839577472" seq="225" r="0.1" class="bzpt2"/>
<circle cx="57.2086370863302" cy="60.1875023048966" seq="226" r="0.1" class="bzpt2"/>
<circle cx="56.9166045153155" cy="60.2334545156749" seq="227" r="0.1" class="bzpt2"/>
<circle cx="56.6235097654111" cy="60.2774419802156" seq="228" r="0.1" class="bzpt2"/>
<circle cx="56.3293988306544" cy="60.3194660064652" seq="229" r="0.1" class="bzpt2"/>
<circle cx="56.0343177287185" cy="60.3595278234334" seq="230" r="0.1" class="bzpt2"/>
<circle cx="55.7383125002102" cy="60.397628584245" seq="231" r="0.1" class="bzpt2"/>
<circle cx="55.4414292078975" cy="60.4337693689996" seq="232" r="0.1" class="bzpt2"/>
<circle cx="55.1437139358716" cy="60.467951187447" seq="233" r="0.1" class="bzpt2"/>
<circle cx="54.8452127886555" cy="60.5001749814834" seq="234" r="0.1" class="bzpt2"/>
<circle cx="54.5459718902626" cy="60.5304416274777" seq="235" r="0.1" class="bzpt2"/>
<circle cx="54.2460373832122" cy="60.5587519384308" seq="236" r="0.1" class="bzpt2"/>
<circle cx="53.9454554275092" cy="60.5851066659765" seq="237" r="0.1" class="bzpt2"/>
<circle cx="53.6442721995903" cy="60.6095065022273" seq="238" r="0.1" class="bzpt2"/>
<circle cx="53.3425338912428" cy="60.6319520814716" seq="239" r="0.1" class="bzpt2"/>
<circle cx="53.0402867084985" cy="60.6524439817263" seq="240" r="0.1" class="bzpt2"/>
<circle cx="52.7375768705071" cy="60.6709827261492" seq="241" r="0.1" class="bzpt2"/>
<circle cx="52.4344506083919" cy="60.6875687843153" seq="242" r="0.1" class="bzpt2"/>
<circle cx="52.1309541640898" cy="60.7022025733612" seq="243" r="0.1" class="bzpt2"/>
<circle cx="51.8271337891784" cy="60.7148844589997" seq="244" r="0.1" class="bzpt2"/>
<circle cx="51.5230357436925" cy="60.7256147564083" seq="245" r="0.1" class="bzpt2"/>
<circle cx="51.218706294931" cy="60.7343937309943" seq="246" r="0.1" class="bzpt2"/>
<circle cx="50.9141917162572" cy="60.7412215990383" seq="247" r="0.1" class="bzpt2"/>
<circle cx="50.6095382858927" cy="60.7460985282179" seq="248" r="0.1" class="bzpt2"/>
<circle cx="50.3047922857062" cy="60.7490246380141" seq="249" r="0.1" class="bzpt2"/>
<circle cx="50" cy="60.75" seq="250" r="0.1" class="bzpt2"/>
<circle cx="49.6952077142939" cy="60.7490246380141" seq="251" r="0.1" class="bzpt2"/>
<circle cx="49.3904617141073" cy="60.7460985282179" seq="252" r="0.1" class="bzpt2"/>
<circle cx="49.0858082837428" cy="60.7412215990383" seq="253" r="0.1" class="bzpt2"/>
<circle cx="48.781293705069" cy="60.7343937309943" seq="254" r="0.1" class="bzpt2"/>
<circle cx="48.4769642563075" cy="60.7256147564083" seq="255" r="0.1" class="bzpt2"/>
<circle cx="48.1728662108216" cy="60.7148844589997" seq="256" r="0.1" class="bzpt2"/>
<circle cx="47.8690458359102" cy="60.7022025733612" seq="257" r="0.1" class="bzpt2"/>
<circle cx="47.5655493916081" cy="60.6875687843153" seq="258" r="0.1" class="bzpt2"/>
<circle cx="47.2624231294929" cy="60.6709827261492" seq="259" r="0.1" class="bzpt2"/>
<circle cx="46.9597132915015" cy="60.6524439817263" seq="260" r="0.1" class="bzpt2"/>
<circle cx="46.6574661087572" cy="60.6319520814716" seq="261" r="0.1" class="bzpt2"/>
<circle cx="46.3557278004096" cy="60.6095065022273" seq="262" r="0.1" class="bzpt2"/>
<circle cx="46.0545445724908" cy="60.5851066659765" seq="263" r="0.1" class="bzpt2"/>
<circle cx="45.7539626167878" cy="60.5587519384308" seq="264" r="0.1" class="bzpt2"/>
<circle cx="45.4540281097374" cy="60.5304416274777" seq="265" r="0.1" class="bzpt2"/>
<circle cx="45.1547872113444" cy="60.5001749814834" seq="266" r="0.1" class="bzpt2"/>
<circle cx="44.8562860641284" cy="60.467951187447" seq="267" r="0.1" class="bzpt2"/>
<circle cx="44.5585707921025" cy="60.4337693689996" seq="268" r="0.1" class="bzpt2"/>
<circle cx="44.2616874997897" cy="60.397628584245" seq="269" r="0.1" class="bzpt2"/>
<circle cx="43.9656822712815" cy="60.3595278234334" seq="270" r="0.1" class="bzpt2"/>
<circle cx="43.6706011693456" cy="60.3194660064652" seq="271" r="0.1" class="bzpt2"/>
<circle cx="43.3764902345889" cy="60.2774419802156" seq="272" r="0.1" class="bzpt2"/>
<circle cx="43.0833954846845" cy="60.2334545156749" seq="273" r="0.1" class="bzpt2"/>
<circle cx="42.7913629136698" cy="60.1875023048967" seq="274" r="0.1" class="bzpt2"/>
<circle cx="42.5004384913268" cy="60.1395839577472" seq="275" r="0.1" class="bzpt2"/>
<circle cx="42.2106681626547" cy="60.0896979984476" seq="276" r="0.1" class="bzpt2"/>
<circle cx="41.9220978474465" cy="60.0378428619013" seq="277" r="0.1" class="bzpt2"/>
<circle cx="41.6347734399838" cy="59.9840168897988" seq="278" r="0.1" class="bzpt2"/>
<circle cx="41.3487408088633" cy="59.9282183264923" seq="279" r="0.1" class="bzpt2"/>
<circle cx="41.064045796973" cy="59.8704453146303" seq="280" r="0.1" class="bzpt2"/>
<circle cx="40.7807342216349" cy="59.8106958905461" seq="281" r="0.1" class="bzpt2"/>
<circle cx="40.4988518749355" cy="59.7489679793909" seq="282" r="0.1" class="bzpt2"/>
<circle cx="40.2184445242652" cy="59.6852593900038" seq="283" r="0.1" class="bzpt2"/>
<circle cx="39.9395579130929" cy="59.6195678095126" seq="284" r="0.1" class="bzpt2"/>
<circle cx="39.6622377620009" cy="59.5518907976569" seq="285" r="0.1" class="bzpt2"/>
<circle cx="39.3865297700119" cy="59.4822257808287" seq="286" r="0.1" class="bzpt2"/>
<circle cx="39.1124796162392" cy="59.4105700458249" seq="287" r="0.1" class="bzpt2"/>
<circle cx="38.840132961898" cy="59.3369207333079" seq="288" r="0.1" class="bzpt2"/>
<circle cx="38.5695354527159" cy="59.2612748309721" seq="289" r="0.1" class="bzpt2"/>
<circle cx="38.3007327217863" cy="59.1836291664157" seq="290" r="0.1" class="bzpt2"/>
<circle cx="38.0337703929124" cy="59.1039803997197" seq="291" r="0.1" class="bzpt2"/>
<circle cx="37.7686940844933" cy="59.0223250157382" seq="292" r="0.1" class="bzpt2"/>
<circle cx="37.5055494140069" cy="58.9386593161085" seq="293" r="0.1" class="bzpt2"/>
<circle cx="37.244382003153" cy="58.8529794109921" seq="294" r="0.1" class="bzpt2"/>
<circle cx="36.9852374837207" cy="58.7652812105626" seq="295" r="0.1" class="bzpt2"/>
<circle cx="36.7281615042523" cy="58.6755604162622" seq="296" r="0.1" class="bzpt2"/>
<circle cx="36.4731997375792" cy="58.5838125118545" seq="297" r="0.1" class="bzpt2"/>
<circle cx="36.2203978893152" cy="58.4900327543078" seq="298" r="0.1" class="bzpt2"/>
<circle cx="35.9698017073923" cy="58.3942161645525" seq="299" r="0.1" class="bzpt2"/>
<circle cx="35.7214569927344" cy="58.2963575181639" seq="300" r="0.1" class="bzpt2"/>
<circle cx="35.4754096111704" cy="58.1964513360354" seq="301" r="0.1" class="bzpt2"/>
<circle cx="35.2317055066887" cy="58.0944918751147" seq="302" r="0.1" class="bzpt2"/>
<circle cx="34.9903907161475" cy="57.9904731192959" seq="303" r="0.1" class="bzpt2"/>
<circle cx="34.7515113855532" cy="57.884388770569" seq="304" r="0.1" class="bzpt2"/>
<circle cx="34.5151137880286" cy="57.776232240552" seq="305" r="0.1" class="bzpt2"/>
<circle cx="34.2812443435915" cy="57.6659966425467" seq="306" r="0.1" class="bzpt2"/>
<circle cx="34.0499496408683" cy="57.5536747842823" seq="307" r="0.1" class="bzpt2"/>
<circle cx="33.8212764608663" cy="57.4392591615357" seq="308" r="0.1" class="bzpt2"/>
<circle cx="33.5952718029256" cy="57.322741952842" seq="309" r="0.1" class="bzpt2"/>
<circle cx="33.3719829129674" cy="57.2041150155396" seq="310" r="0.1" class="bzpt2"/>
<circle cx="33.151457314146" cy="57.0833698834247" seq="311" r="0.1" class="bzpt2"/>
<circle cx="32.9337428400005" cy="56.9604977663218" seq="312" r="0.1" class="bzpt2"/>
<circle cx="32.7188876701855" cy="56.8354895519142" seq="313" r="0.1" class="bzpt2"/>
<circle cx="32.5069403688357" cy="56.7083358102159" seq="314" r="0.1" class="bzpt2"/>
<circle cx="32.2979499255926" cy="56.5790268011002" seq="315" r="0.1" class="bzpt2"/>
<circle cx="32.0919657992849" cy="56.4475524853454" seq="316" r="0.1" class="bzpt2"/>
<circle cx="31.8890379642067" cy="56.3139025396904" seq="317" r="0.1" class="bzpt2"/>
<circle cx="31.6892169588891" cy="56.1780663764319" seq="318" r="0.1" class="bzpt2"/>
<circle cx="31.4925539371911" cy="56.0400331681301" seq="319" r="0.1" class="bzpt2"/>
<circle cx="31.2991007214626" cy="55.899791878015" seq="320" r="0.1" class="bzpt2"/>
<circle cx="31.1089098574459" cy="55.7573312967097" seq="321" r="0.1" class="bzpt2"/>
<circle cx="30.9220346704788" cy="55.6126400858988" seq="322" r="0.1" class="bzpt2"/>
<circle cx="30.7385293224531" cy="55.46570682957" seq="323" r="0.1" class="bzpt2"/>
<circle cx="30.5584488688535" cy="55.3165200934414" seq="324" r="0.1" class="bzpt2"/>
<circle cx="30.3818493150685" cy="55.1650684931507" seq="325" r="0.1" class="bzpt2"/>
<circle cx="30.2087876710129" cy="55.0113407717285" seq="326" r="0.1" class="bzpt2"/>
<circle cx="30.0393220029511" cy="54.8553258867871" seq="327" r="0.1" class="bzpt2"/>
<circle cx="29.8735114812463" cy="54.6970131077442" seq="328" r="0.1" class="bzpt2"/>
<circle cx="29.711416422604" cy="54.5363921232471" seq="329" r="0.1" class="bzpt2"/>
<circle cx="29.5530983252224" cy="54.3734531587725" seq="330" r="0.1" class="bzpt2"/>
<circle cx="29.3986198951224" cy="54.2081871041463" seq="331" r="0.1" class="bzpt2"/>
<circle cx="29.2480450618122" cy="54.0405856504531" seq="332" r="0.1" class="bzpt2"/>
<circle cx="29.1014389813507" cy="53.8706414354881" seq="333" r="0.1" class="bzpt2"/>
<circle cx="28.9588680248336" cy="53.6983481965485" seq="334" r="0.1" class="bzpt2"/>
<circle cx="28.8203997503335" cy="53.5237009289692" seq="335" r="0.1" class="bzpt2"/>
<circle cx="28.6861028564014" cy="53.3466960483906" seq="336" r="0.1" class="bzpt2"/>
<circle cx="28.556047115393" cy="53.1673315543099" seq="337" r="0.1" class="bzpt2"/>
<circle cx="28.4303032851228" cy="52.9856071920392" seq="338" r="0.1" class="bzpt2"/>
<circle cx="28.3089429976907" cy="52.8015246097717" seq="339" r="0.1" class="bzpt2"/>
<circle cx="28.192038624761" cy="52.6150875070905" seq="340" r="0.1" class="bzpt2"/>
<circle cx="28.0796631191149" cy="52.4263017709415" seq="341" r="0.1" class="bzpt2"/>
<circle cx="27.9718898329298" cy="52.2351755948771" seq="342" r="0.1" class="bzpt2"/>
<circle cx="27.8687923139513" cy="52.0417195772814" seq="343" r="0.1" class="bzpt2"/>
<circle cx="27.7704440815046" cy="51.8459467943307" seq="344" r="0.1" class="bzpt2"/>
<circle cx="27.6769183850964" cy="51.6478728436566" seq="345" r="0.1" class="bzpt2"/>
<circle cx="27.5882879491744" cy="51.4475158550666" seq="346" r="0.1" class="bzpt2"/>
<circle cx="27.504624708384" cy="51.2448964652559" seq="347" r="0.1" class="bzpt2"/>
<circle cx="27.4259995383499" cy="51.0400377542014" seq="348" r="0.1" class="bzpt2"/>
<circle cx="27.3524819875785" cy="50.8329651418593" seq="349" r="0.1" class="bzpt2"/>
<circle cx="27.2841400164737" cy="50.623706244852" seq="350" r="0.1" class="bzpt2"/>
<circle cx="27.2210397496514" cy="50.4122906940039" seq="351" r="0.1" class="bzpt2"/>
<circle cx="27.1632452477004" cy="50.1987499148064" seq="352" r="0.1" class="bzpt2"/>
<circle cx="27.1108183042519" cy="49.9831168741092" seq="353" r="0.1" class="bzpt2"/>
<circle cx="27.0638182736865" cy="49.7654257974894" seq="354" r="0.1" class="bzpt2"/>
<circle cx="27.0223019340381" cy="49.5457118627731" seq="355" r="0.1" class="bzpt2"/>
<circle cx="26.9863233886807" cy="49.3240108760269" seq="356" r="0.1" class="bzpt2"/>
<circle cx="26.9559340092525" cy="49.1003589369481" seq="357" r="0.1" class="bzpt2"/>
<circle cx="26.9311824210241" cy="48.8747921009287" seq="358" r="0.1" class="bzpt2"/>
<circle cx="26.912114530634" cy="48.6473460451305" seq="359" r="0.1" class="bzpt2"/>
<circle cx="26.8987735948423" cy="48.418055745689" seq="360" r="0.1" class="bzpt2"/>
<circle cx="26.8912003277658" cy="48.1869551726723" seq="361" r="0.1" class="bzpt2"/>
<circle cx="26.8894330430045" cy="47.9540770086924" seq="362" r="0.1" class="bzpt2"/>
<circle cx="26.8935078261986" cy="47.7194523961555" seq="363" r="0.1" class="bzpt2"/>
<circle cx="26.9034587328981" cy="47.4831107170523" seq="364" r="0.1" class="bzpt2"/>
<circle cx="26.9193180062019" cy="47.2450794080974" seq="365" r="0.1" class="bzpt2"/>
<circle cx="26.9411163084328" cy="47.0053838128083" seq="366" r="0.1" class="bzpt2"/>
<circle cx="26.9688829611464" cy="46.764047071026" seq="367" r="0.1" class="bzpt2"/>
<circle cx="27.0026461880115" cy="46.5210900453102" seq="368" r="0.1" class="bzpt2"/>
<circle cx="27.0424333554984" cy="46.2765312827188" seq="369" r="0.1" class="bzpt2"/>
<circle cx="27.0882712068613" cy="46.0303870096913" seq="370" r="0.1" class="bzpt2"/>
<circle cx="27.1401860855259" cy="45.7826711571396" seq="371" r="0.1" class="bzpt2"/>
<circle cx="27.1982041446941" cy="45.5333954123924" seq="372" r="0.1" class="bzpt2"/>
<circle cx="27.2623515406802" cy="45.2825692943545" seq="373" r="0.1" class="bzpt2"/>
<circle cx="27.3326546081985" cy="45.0302002481027" seq="374" r="0.1" class="bzpt2"/>
<circle cx="27.4091400164737" cy="44.776293755148" seq="375" r="0.1" class="bzpt2"/>
<circle cx="27.4918349056576" cy="44.5208534557044" seq="376" r="0.1" class="bzpt2"/>
<circle cx="27.5807670035521" cy="44.2638812795168" seq="377" r="0.1" class="bzpt2"/>
<circle cx="27.6759647230971" cy="44.005377582081" seq="378" r="0.1" class="bzpt2"/>
<circle cx="27.7774572414413" cy="43.7453412834117" seq="379" r="0.1" class="bzpt2"/>
<circle cx="27.8852745616986" cy="43.4837700068725" seq="380" r="0.1" class="bzpt2"/>
<circle cx="27.9994475586982" cy="43.2206602159439" seq="381" r="0.1" class="bzpt2"/>
<circle cx="28.1200080101751" cy="42.9560073471688" seq="382" r="0.1" class="bzpt2"/>
<circle cx="28.2469886149161" cy="42.6898059378571" seq="383" r="0.1" class="bzpt2"/>
<circle cx="28.3804229994054" cy="42.4220497474586" seq="384" r="0.1" class="bzpt2"/>
<circle cx="28.5203457144858" cy="42.1527318717992" seq="385" r="0.1" class="bzpt2"/>
<circle cx="28.6667922235024" cy="41.8818448496434" seq="386" r="0.1" class="bzpt2"/>
<circle cx="28.819798883311" cy="41.6093807612661" seq="387" r="0.1" class="bzpt2"/>
<circle cx="28.9794029194377" cy="41.3353313189131" seq="388" r="0.1" class="bzpt2"/>
<circle cx="29.1456423965652" cy="41.0596879491881" seq="389" r="0.1" class="bzpt2"/>
<circle cx="29.3185561854042" cy="40.782441867533" seq="390" r="0.1" class="bzpt2"/>
<circle cx="29.498183926896" cy="40.5035841450726" seq="391" r="0.1" class="bzpt2"/>
<circle cx="29.6845659945689" cy="40.223105768167" seq="392" r="0.1" class="bzpt2"/>
<circle cx="29.8777434557694" cy="39.9409976910761" seq="393" r="0.1" class="bzpt2"/>
<circle cx="30.0777580323756" cy="39.6572508821741" seq="394" r="0.1" class="bzpt2"/>
<circle cx="30.2846520615129" cy="39.3718563641722" seq="395" r="0.1" class="bzpt2"/>
<circle cx="30.4984684566951" cy="39.0848052488205" seq="396" r="0.1" class="bzpt2"/>
<circle cx="30.7192506697427" cy="38.796088766555" seq="397" r="0.1" class="bzpt2"/>
<circle cx="30.9470426537534" cy="38.5056982915453" seq="398" r="0.1" class="bzpt2"/>
<circle cx="31.1818888273403" cy="38.2136253625862" seq="399" r="0.1" class="bzpt2"/>
<circle cx="31.423834040302" cy="37.9198617002516" seq="400" r="0.1" class="bzpt2"/>
<circle cx="31.6729235408366" cy="37.6243992207085" seq="401" r="0.1" class="bzpt2"/>
<circle cx="31.929202944378" cy="37.3272300465612" seq="402" r="0.1" class="bzpt2"/>
<circle cx="32.192718204095" cy="37.0283465150713" seq="403" r="0.1" class="bzpt2"/>
<circle cx="32.4635155830707" cy="36.7277411840683" seq="404" r="0.1" class="bzpt2"/>
<circle cx="32.7416416281536" cy="36.4254068358445" seq="405" r="0.1" class="bzpt2"/>
<circle cx="33.0271431454549" cy="36.1213364792953" seq="406" r="0.1" class="bzpt2"/>
<circle cx="33.3200671774528" cy="35.8155233505473" seq="407" r="0.1" class="bzpt2"/>
<circle cx="33.620460981653" cy="35.5079609122881" seq="408" r="0.1" class="bzpt2"/>
<circle cx="33.9283720107456" cy="35.1986428519921" seq="409" r="0.1" class="bzpt2"/>
<circle cx="34.2438478941955" cy="34.8875630792156" seq="410" r="0.1" class="bzpt2"/>
<circle cx="34.5669364211933" cy="34.5747157221144" seq="411" r="0.1" class="bzpt2"/>
<circle cx="34.8976855249003" cy="34.2600951233201" seq="412" r="0.1" class="bzpt2"/>
<circle cx="35.2361432679122" cy="33.9436958352957" seq="413" r="0.1" class="bzpt2"/>
<circle cx="35.5823578288698" cy="33.625512615275" seq="414" r="0.1" class="bzpt2"/>
<circle cx="35.9363774901468" cy="33.3055404198796" seq="415" r="0.1" class="bzpt2"/>
<circle cx="36.2982506265442" cy="32.9837743994916" seq="416" r="0.1" class="bzpt2"/>
<circle cx="36.6680256949239" cy="32.6602098924539" seq="417" r="0.1" class="bzpt2"/>
<circle cx="37.0457512247177" cy="32.3348424191563" seq="418" r="0.1" class="bzpt2"/>
<circle cx="37.4314758092482" cy="32.0076676760603" seq="419" r="0.1" class="bzpt2"/>
<circle cx="37.8252480978041" cy="31.678681529705" seq="420" r="0.1" class="bzpt2"/>
<circle cx="38.2271167884135" cy="31.3478800107331" seq="421" r="0.1" class="bzpt2"/>
<circle cx="38.6371306212613" cy="31.0152593079671" seq="422" r="0.1" class="bzpt2"/>
<circle cx="39.0553383727036" cy="30.6808157625615" seq="423" r="0.1" class="bzpt2"/>
<circle cx="39.4817888498298" cy="30.3445458622538" seq="424" r="0.1" class="bzpt2"/>
<circle cx="39.9165308855304" cy="30.0064462357313" seq="425" r="0.1" class="bzpt2"/>
<circle cx="40.3596133340305" cy="29.6665136471269" seq="426" r="0.1" class="bzpt2"/>
<circle cx="40.8110850668485" cy="29.3247449906561" seq="427" r="0.1" class="bzpt2"/>
<circle cx="41.2709949691483" cy="28.9811372854032" seq="428" r="0.1" class="bzpt2"/>
<circle cx="41.73939193645" cy="28.6356876702632" seq="429" r="0.1" class="bzpt2"/>
<circle cx="42.216324871669" cy="28.2883933990425" seq="430" r="0.1" class="bzpt2"/>
<circle cx="42.7018426824574" cy="27.939251835723" seq="431" r="0.1" class="bzpt2"/>
<circle cx="43.1959942788196" cy="27.5882604498885" seq="432" r="0.1" class="bzpt2"/>
<circle cx="43.6988285709802" cy="27.2354168123158" seq="433" r="0.1" class="bzpt2"/>
<circle cx="44.21039446748" cy="26.8807185907272" seq="434" r="0.1" class="bzpt2"/>
<circle cx="44.7307408734834" cy="26.5241635457046" seq="435" r="0.1" class="bzpt2"/>
<circle cx="45.2599166892747" cy="26.1657495267616" seq="436" r="0.1" class="bzpt2"/>
<circle cx="45.7979708089285" cy="25.8054744685706" seq="437" r="0.1" class="bzpt2"/>
<circle cx="46.3449521191393" cy="25.4433363873417" seq="438" r="0.1" class="bzpt2"/>
<circle cx="46.9009094981928" cy="25.0793333773502" seq="439" r="0.1" class="bzpt2"/>
<circle cx="47.4658918150689" cy="24.713463607607" seq="440" r="0.1" class="bzpt2"/>
<circle cx="48.0399479286627" cy="24.3457253186689" seq="441" r="0.1" class="bzpt2"/>
<circle cx="48.6231266871129" cy="23.9761168195846" seq="442" r="0.1" class="bzpt2"/>
<circle cx="49.2154769272268" cy="23.60463648497" seq="443" r="0.1" class="bzpt2"/>
<circle cx="49.817047473994" cy="23.2312827522109" seq="444" r="0.1" class="bzpt2"/>
<circle cx="50.4278871401789" cy="22.8560541187862" seq="445" r="0.1" class="bzpt2"/>
<circle cx="51.0480447259849" cy="22.4789491397082" seq="446" r="0.1" class="bzpt2"/>
<circle cx="51.677569018784" cy="22.0999664250754" seq="447" r="0.1" class="bzpt2"/>
<circle cx="52.3165087929034" cy="21.719104637733" seq="448" r="0.1" class="bzpt2"/>
<circle cx="52.964912809465" cy="21.3363624910371" seq="449" r="0.1" class="bzpt2"/>
<circle cx="53.6228298162723" cy="20.951738746718" seq="450" r="0.1" class="bzpt2"/>
<circle cx="54.2903085477383" cy="20.5652322128386" seq="451" r="0.1" class="bzpt2"/>
<circle cx="54.9673977248516" cy="20.1768417418441" seq="452" r="0.1" class="bzpt2"/>
<circle cx="55.6541460551765" cy="19.7865662286985" seq="453" r="0.1" class="bzpt2"/>
<circle cx="56.3506022328817" cy="19.3944046091045" seq="454" r="0.1" class="bzpt2"/>
<circle cx="57.0568149387969" cy="19.0003558578036" seq="455" r="0.1" class="bzpt2"/>
<circle cx="57.7728328404914" cy="18.6044189869509" seq="456" r="0.1" class="bzpt2"/>
<circle cx="58.498704592375" cy="18.2065930445646" seq="457" r="0.1" class="bzpt2"/>
<circle cx="59.2344788358158" cy="17.8068771130432" seq="458" r="0.1" class="bzpt2"/>
<circle cx="59.9802041992745" cy="17.4052703077501" seq="459" r="0.1" class="bzpt2"/>
<circle cx="60.7359292984524" cy="17.0017717756605" seq="460" r="0.1" class="bzpt2"/>
<circle cx="61.5017027364511" cy="16.59638069407" seq="461" r="0.1" class="bzpt2"/>
<circle cx="62.2775731039431" cy="16.1890962693592" seq="462" r="0.1" class="bzpt2"/>
<circle cx="63.0635889793509" cy="15.7799177358147" seq="463" r="0.1" class="bzpt2"/>
<circle cx="63.8597989290325" cy="15.3688443545015" seq="464" r="0.1" class="bzpt2"/>
<circle cx="64.666251507475" cy="14.9558754121857" seq="465" r="0.1" class="bzpt2"/>
<circle cx="65.4829952574914" cy="14.5410102203053" seq="466" r="0.1" class="bzpt2"/>
<circle cx="66.310078710422" cy="14.1242481139854" seq="467" r="0.1" class="bzpt2"/>
<circle cx="67.1475503863394" cy="13.705588451098" seq="468" r="0.1" class="bzpt2"/>
<circle cx="67.9954587942546" cy="13.2850306113621" seq="469" r="0.1" class="bzpt2"/>
<circle cx="68.8538524323262" cy="12.8625739954835" seq="470" r="0.1" class="bzpt2"/>
<circle cx="69.7227797880686" cy="12.4382180243326" seq="471" r="0.1" class="bzpt2"/>
<circle cx="70.6022893385623" cy="12.0119621381572" seq="472" r="0.1" class="bzpt2"/>
<circle cx="71.4924295506626" cy="11.5838057958304" seq="473" r="0.1" class="bzpt2"/>
<circle cx="72.3932488812085" cy="11.15374847413" seq="474" r="0.1" class="bzpt2"/>
<circle cx="73.3047957772302" cy="10.7217896670498" seq="475" r="0.1" class="bzpt2"/>
<circle cx="74.2271186761546" cy="10.2879288851403" seq="476" r="0.1" class="bzpt2"/>
<circle cx="75.1602660060102" cy="9.85216565487707" seq="477" r="0.1" class="bzpt2"/>
<circle cx="76.1042861856287" cy="9.41449951805707" seq="478" r="0.1" class="bzpt2"/>
<circle cx="77.0592276248455" cy="8.97493003121989" seq="479" r="0.1" class="bzpt2"/>
<circle cx="78.0251387246961" cy="8.53345676509366" seq="480" r="0.1" class="bzpt2"/>
<circle cx="79.0020678776122" cy="8.09007930406439" seq="481" r="0.1" class="bzpt2"/>
<circle cx="79.990063467612" cy="7.6447972456679" seq="482" r="0.1" class="bzpt2"/>
<circle cx="80.9891738704901" cy="7.19761020010243" seq="483" r="0.1" class="bzpt2"/>
<circle cx="81.9994474540029" cy="6.74851778976224" seq="484" r="0.1" class="bzpt2"/>
<circle cx="83.0209325780515" cy="6.29751964879001" seq="485" r="0.1" class="bzpt2"/>
<circle cx="84.0536775948606" cy="5.84461542264818" seq="486" r="0.1" class="bzpt2"/>
<circle cx="85.0977308491548" cy="5.38980476770785" seq="487" r="0.1" class="bzpt2"/>
<circle cx="86.1531406783315" cy="4.93308735085433" seq="488" r="0.1" class="bzpt2"/>
<circle cx="87.2199554126302" cy="4.47446284910926" seq="489" r="0.1" class="bzpt2"/>
<circle cx="88.298223375298" cy="4.01393094926764" seq="490" r="0.1" class="bzpt2"/>
<circle cx="89.3879928827529" cy="3.55149134754987" seq="491" r="0.1" class="bzpt2"/>
<circle cx="90.4893122447427" cy="3.08714374926788" seq="492" r="0.1" class="bzpt2"/>
<circle cx="91.6022297645004" cy="2.6208878685044" seq="493" r="0.1" class="bzpt2"/>
<circle cx="92.726793738897" cy="2.15272342780528" seq="494" r="0.1" class="bzpt2"/>
<circle cx="93.8630524585909" cy="1.68265015788417" seq="495" r="0.1" class="bzpt2"/>
<circle cx="95.0110542081728" cy="1.21066779733857" seq="496" r="0.1" class="bzpt2"/>
<circle cx="96.1708472663089" cy="0.736776092377448" seq="497" r="0.1" class="bzpt2"/>
<circle cx="97.3424799058799" cy="0.260974796559465" seq="498" r="0.1" class="bzpt2"/>
<circle cx="98.526000394117" cy="-0.216736329458713" seq="499" r="0.1" class="bzpt2"/>
<circle cx="99.7214569927344" cy="-0.696357518163945" seq="500" r="0.1" class="bzpt2"/>
</svg>
