<svg xmlns="http://www.w3.org/2000/svg"
     width="100%"
     viewBox="0,0,100,100"
     preserveAspectRatio="xMidYMin slice"
>
<style>
/* <![CDATA[ */
.bzpt { fill:blue; stroke:none; }
.bzpt2 { fill:green; stroke:none; }
.bzpt3 { fill:red; stroke:none; }
/* ]]> */
</style>
<path d="M 5,-10 L 0,0 C 200,80   -100,80   100,0" stroke-width="0.03" stroke="black" fill="none" />
<circle cx="4.32917960675006" cy="-10.335410196625" seq="0" r="0.1" class="bzpt2"/>
<circle cx="4.1099860848554" cy="-9.89702315283563" seq="1" r="0.1" class="bzpt2"/>
<circle cx="3.89079256296073" cy="-9.4586361090463" seq="2" r="0.1" class="bzpt2"/>
<circle cx="3.67159904106606" cy="-9.02024906525696" seq="3" r="0.1" class="bzpt2"/>
<circle cx="3.45240551917139" cy="-8.58186202146763" seq="4" r="0.1" class="bzpt2"/>
<circle cx="3.23321199727672" cy="-8.14347497767829" seq="5" r="0.1" class="bzpt2"/>
<circle cx="3.01401847538206" cy="-7.70508793388895" seq="6" r="0.1" class="bzpt2"/>
<circle cx="2.79482495348739" cy="-7.26670089009962" seq="7" r="0.1" class="bzpt2"/>
<circle cx="2.57563143159272" cy="-6.82831384631028" seq="8" r="0.1" class="bzpt2"/>
<circle cx="2.35643790969805" cy="-6.38992680252095" seq="9" r="0.1" class="bzpt2"/>
<circle cx="2.13724438780338" cy="-5.95153975873161" seq="10" r="0.1" class="bzpt2"/>
<circle cx="1.91805086590872" cy="-5.51315271494228" seq="11" r="0.1" class="bzpt2"/>
<circle cx="1.69885734401405" cy="-5.07476567115294" seq="12" r="0.1" class="bzpt2"/>
<circle cx="1.47966382211938" cy="-4.6363786273636" seq="13" r="0.1" class="bzpt2"/>
<circle cx="1.26047030022471" cy="-4.19799158357427" seq="14" r="0.1" class="bzpt2"/>
<circle cx="1.04127677833005" cy="-3.75960453978493" seq="15" r="0.1" class="bzpt2"/>
<circle cx="0.822083256435378" cy="-3.3212174959956" seq="16" r="0.1" class="bzpt2"/>
<circle cx="0.602889734540709" cy="-2.88283045220626" seq="17" r="0.1" class="bzpt2"/>
<circle cx="0.383696212646041" cy="-2.44444340841692" seq="18" r="0.1" class="bzpt2"/>
<circle cx="0.164502690751374" cy="-2.00605636462759" seq="19" r="0.1" class="bzpt2"/>
<circle cx="-0.054690831143294" cy="-1.56766932083825" seq="20" r="0.1" class="bzpt2"/>
<circle cx="-0.273884353037963" cy="-1.12928227704892" seq="21" r="0.1" class="bzpt2"/>
<circle cx="-0.493077874932629" cy="-0.690895233259584" seq="22" r="0.1" class="bzpt2"/>
<circle cx="0.516369307820486" cy="-0.601170417361236" seq="23" r="0.1" class="bzpt2"/>
<circle cx="1.7661906266973" cy="-0.0990664952684225" seq="24" r="0.1" class="bzpt2"/>
<circle cx="3.00292043659901" cy="0.40094044959283" seq="25" r="0.1" class="bzpt2"/>
<circle cx="4.22661425816893" cy="0.898850686773995" seq="26" r="0.1" class="bzpt2"/>
<circle cx="5.43732761874664" cy="1.39466449417554" seq="27" r="0.1" class="bzpt2"/>
<circle cx="6.63511605253707" cy="1.88838215835612" seq="28" r="0.1" class="bzpt2"/>
<circle cx="7.82003510078377" cy="2.38000397485495" seq="29" r="0.1" class="bzpt2"/>
<circle cx="8.99214031194639" cy="2.86953024852798" seq="30" r="0.1" class="bzpt2"/>
<circle cx="10.1514872418826" cy="3.35696129389854" seq="31" r="0.1" class="bzpt2"/>
<circle cx="11.2981314540341" cy="3.84229743552319" seq="32" r="0.1" class="bzpt2"/>
<circle cx="12.4321285196177" cy="4.32553900837338" seq="33" r="0.1" class="bzpt2"/>
<circle cx="13.5535340178198" cy="4.80668635823387" seq="34" r="0.1" class="bzpt2"/>
<circle cx="14.6624035359965" cy="5.28573984211855" seq="35" r="0.1" class="bzpt2"/>
<circle cx="15.7587926698773" cy="5.76269982870463" seq="36" r="0.1" class="bzpt2"/>
<circle cx="16.8427570237736" cy="6.23756669878602" seq="37" r="0.1" class="bzpt2"/>
<circle cx="17.914352210792" cy="6.7103408457469" seq="38" r="0.1" class="bzpt2"/>
<circle cx="18.9736338530516" cy="7.1810226760564" seq="39" r="0.1" class="bzpt2"/>
<circle cx="20.020657581906" cy="7.64961260978556" seq="40" r="0.1" class="bzpt2"/>
<circle cx="21.0554790381694" cy="8.11611108114752" seq="41" r="0.1" class="bzpt2"/>
<circle cx="22.0781538723475" cy="8.58051853906217" seq="42" r="0.1" class="bzpt2"/>
<circle cx="23.0887377448719" cy="9.04283544774656" seq="43" r="0.1" class="bzpt2"/>
<circle cx="24.0872863263394" cy="9.50306228733218" seq="44" r="0.1" class="bzpt2"/>
<circle cx="25.0738552977543" cy="9.96119955451061" seq="45" r="0.1" class="bzpt2"/>
<circle cx="26.0485003507752" cy="10.4172477632089" seq="46" r="0.1" class="bzpt2"/>
<circle cx="27.0112771879648" cy="10.8712074452962" seq="47" r="0.1" class="bzpt2"/>
<circle cx="27.9622415230451" cy="11.3230791513239" seq="48" r="0.1" class="bzpt2"/>
<circle cx="28.9014490811449" cy="11.7728634512957" seq="49" r="0.1" class="bzpt2"/>
<circle cx="29.8289555990757" cy="12.2205609354857" seq="50" r="0.1" class="bzpt2"/>
<circle cx="30.7448168255757" cy="12.6661722152787" seq="51" r="0.1" class="bzpt2"/>
<circle cx="31.6490885215809" cy="13.1096979240621" seq="52" r="0.1" class="bzpt2"/>
<circle cx="32.5418264604874" cy="13.551138718156" seq="53" r="0.1" class="bzpt2"/>
<circle cx="33.423086428416" cy="13.990495277787" seq="54" r="0.1" class="bzpt2"/>
<circle cx="34.2929242244764" cy="14.4277683081099" seq="55" r="0.1" class="bzpt2"/>
<circle cx="35.1513956610311" cy="14.8629585402769" seq="56" r="0.1" class="bzpt2"/>
<circle cx="35.9985565639567" cy="15.2960667325591" seq="57" r="0.1" class="bzpt2"/>
<circle cx="36.8344627729035" cy="15.7270936715214" seq="58" r="0.1" class="bzpt2"/>
<circle cx="37.6591701415503" cy="16.1560401732547" seq="59" r="0.1" class="bzpt2"/>
<circle cx="38.4727345378551" cy="16.5829070846668" seq="60" r="0.1" class="bzpt2"/>
<circle cx="39.2752118442984" cy="17.0076952848375" seq="61" r="0.1" class="bzpt2"/>
<circle cx="40.0666579581196" cy="17.4304056864376" seq="62" r="0.1" class="bzpt2"/>
<circle cx="40.8471287915423" cy="17.8510392372191" seq="63" r="0.1" class="bzpt2"/>
<circle cx="41.6166802719897" cy="18.2695969215767" seq="64" r="0.1" class="bzpt2"/>
<circle cx="42.3753683422846" cy="18.6860797621866" seq="65" r="0.1" class="bzpt2"/>
<circle cx="43.1232489608346" cy="19.1004888217252" seq="66" r="0.1" class="bzpt2"/>
<circle cx="43.8603781017978" cy="19.5128252046726" seq="67" r="0.1" class="bzpt2"/>
<circle cx="44.5868117552271" cy="19.9230900592038" seq="68" r="0.1" class="bzpt2"/>
<circle cx="45.3026059271897" cy="20.3312845791738" seq="69" r="0.1" class="bzpt2"/>
<circle cx="46.0078166398579" cy="20.7374100061998" seq="70" r="0.1" class="bzpt2"/>
<circle cx="46.7024999315678" cy="21.141467631846" seq="71" r="0.1" class="bzpt2"/>
<circle cx="47.3867118568409" cy="21.5434587999152" seq="72" r="0.1" class="bzpt2"/>
<circle cx="48.0605084863644" cy="21.9433849088536" seq="73" r="0.1" class="bzpt2"/>
<circle cx="48.7239459069241" cy="22.341247414273" seq="74" r="0.1" class="bzpt2"/>
<circle cx="49.3770802212849" cy="22.7370478315966" seq="75" r="0.1" class="bzpt2"/>
<circle cx="50.0199675480115" cy="23.1307877388335" seq="76" r="0.1" class="bzpt2"/>
<circle cx="50.6526640212228" cy="23.5224687794884" seq="77" r="0.1" class="bzpt2"/>
<circle cx="51.2752257902717" cy="23.9120926656126" seq="78" r="0.1" class="bzpt2"/>
<circle cx="51.8877090193417" cy="24.2996611810012" seq="79" r="0.1" class="bzpt2"/>
<circle cx="52.4901698869513" cy="24.6851761845447" seq="80" r="0.1" class="bzpt2"/>
<circle cx="53.0826645853539" cy="25.0686396137391" seq="81" r="0.1" class="bzpt2"/>
<circle cx="53.6652493198243" cy="25.450053488363" seq="82" r="0.1" class="bzpt2"/>
<circle cx="54.2379803078163" cy="25.8294199143266" seq="83" r="0.1" class="bzpt2"/>
<circle cx="54.8009137779799" cy="26.206741087699" seq="84" r="0.1" class="bzpt2"/>
<circle cx="55.3541059690203" cy="26.582019298921" seq="85" r="0.1" class="bzpt2"/>
<circle cx="55.8976131283845" cy="26.955256937208" seq="86" r="0.1" class="bzpt2"/>
<circle cx="56.4314915107546" cy="27.3264564951494" seq="87" r="0.1" class="bzpt2"/>
<circle cx="56.9557973763295" cy="27.69562057351" seq="88" r="0.1" class="bzpt2"/>
<circle cx="57.4705869888719" cy="28.062751886237" seq="89" r="0.1" class="bzpt2"/>
<circle cx="57.9759166134965" cy="28.427853265678" seq="90" r="0.1" class="bzpt2"/>
<circle cx="58.4718425141736" cy="28.790927668012" seq="91" r="0.1" class="bzpt2"/>
<circle cx="58.9584209509185" cy="29.1519781788966" seq="92" r="0.1" class="bzpt2"/>
<circle cx="59.4357081766366" cy="29.5110080193314" seq="93" r="0.1" class="bzpt2"/>
<circle cx="59.9037604335881" cy="29.8680205517369" seq="94" r="0.1" class="bzpt2"/>
<circle cx="60.3626339494368" cy="30.2230192862472" seq="95" r="0.1" class="bzpt2"/>
<circle cx="60.8123849328424" cy="30.5760078872107" seq="96" r="0.1" class="bzpt2"/>
<circle cx="61.2530695685517" cy="30.9269901798925" seq="97" r="0.1" class="bzpt2"/>
<circle cx="61.6847440119417" cy="31.2759701573661" seq="98" r="0.1" class="bzpt2"/>
<circle cx="62.1074643829644" cy="31.6229519875837" seq="99" r="0.1" class="bzpt2"/>
<circle cx="62.5212867594364" cy="31.9679400206024" seq="100" r="0.1" class="bzpt2"/>
<circle cx="62.9262671696152" cy="32.3109387959478" seq="101" r="0.1" class="bzpt2"/>
<circle cx="63.3224615839979" cy="32.6519530500825" seq="102" r="0.1" class="bzpt2"/>
<circle cx="63.7099259062742" cy="32.9909877239462" seq="103" r="0.1" class="bzpt2"/>
<circle cx="64.0887159633614" cy="33.3280479705248" seq="104" r="0.1" class="bzpt2"/>
<circle cx="64.4588874944429" cy="33.6631391623961" seq="105" r="0.1" class="bzpt2"/>
<circle cx="64.8204961389304" cy="33.9962668991922" seq="106" r="0.1" class="bzpt2"/>
<circle cx="65.1735974232613" cy="34.3274370149063" seq="107" r="0.1" class="bzpt2"/>
<circle cx="65.5182467464433" cy="34.656655584959" seq="108" r="0.1" class="bzpt2"/>
<circle cx="65.8544993642512" cy="34.9839289329269" seq="109" r="0.1" class="bzpt2"/>
<circle cx="66.1824103719789" cy="35.3092636368171" seq="110" r="0.1" class="bzpt2"/>
<circle cx="66.5020346856485" cy="35.6326665347575" seq="111" r="0.1" class="bzpt2"/>
<circle cx="66.8134270215759" cy="35.9541447299494" seq="112" r="0.1" class="bzpt2"/>
<circle cx="67.1166418741926" cy="36.2737055947093" seq="113" r="0.1" class="bzpt2"/>
<circle cx="67.4117334920268" cy="36.591356773403" seq="114" r="0.1" class="bzpt2"/>
<circle cx="67.6987558517499" cy="36.9071061840453" seq="115" r="0.1" class="bzpt2"/>
<circle cx="67.9777626302018" cy="37.2209620183141" seq="116" r="0.1" class="bzpt2"/>
<circle cx="68.2488071743188" cy="37.5329327396937" seq="117" r="0.1" class="bzpt2"/>
<circle cx="68.5119424689026" cy="37.8430270794294" seq="118" r="0.1" class="bzpt2"/>
<circle cx="68.7672211021863" cy="38.1512540299396" seq="119" r="0.1" class="bzpt2"/>
<circle cx="69.0146952291792" cy="38.4576228352957" seq="120" r="0.1" class="bzpt2"/>
<circle cx="69.2544165328017" cy="38.76214297834" seq="121" r="0.1" class="bzpt2"/>
<circle cx="69.4864361828606" cy="39.0648241639724" seq="122" r="0.1" class="bzpt2"/>
<circle cx="69.7108047929604" cy="39.3656762981001" seq="123" r="0.1" class="bzpt2"/>
<circle cx="69.9275723755025" cy="39.6647094617041" seq="124" r="0.1" class="bzpt2"/>
<circle cx="70.136788294991" cy="39.9619338794428" seq="125" r="0.1" class="bzpt2"/>
<circle cx="70.3385012199393" cy="40.257359882183" seq="126" r="0.1" class="bzpt2"/>
<circle cx="70.532759073764" cy="40.550997862825" seq="127" r="0.1" class="bzpt2"/>
<circle cx="70.7196089851537" cy="40.8428582247743" seq="128" r="0.1" class="bzpt2"/>
<circle cx="70.8990972385178" cy="41.1329513224105" seq="129" r="0.1" class="bzpt2"/>
<circle cx="71.0712692252478" cy="41.421287392921" seq="130" r="0.1" class="bzpt2"/>
<circle cx="71.2361693966688" cy="41.7078764788979" seq="131" r="0.1" class="bzpt2"/>
<circle cx="71.3938412197103" cy="41.9927283411595" seq="132" r="0.1" class="bzpt2"/>
<circle cx="71.544327136489" cy="42.275852361344" seq="133" r="0.1" class="bzpt2"/>
<circle cx="71.6876685291663" cy="42.5572574339473" seq="134" r="0.1" class="bzpt2"/>
<circle cx="71.8239056916111" cy="42.8369518476371" seq="135" r="0.1" class="bzpt2"/>
<circle cx="71.953077809566" cy="43.1149431558833" seq="136" r="0.1" class="bzpt2"/>
<circle cx="72.0752229511669" cy="43.3912380371968" seq="137" r="0.1" class="bzpt2"/>
<circle cx="72.190378069796" cy="43.6658421455742" seq="138" r="0.1" class="bzpt2"/>
<circle cx="72.2985790213469" cy="43.938759952102" seq="139" r="0.1" class="bzpt2"/>
<circle cx="72.3998605980315" cy="44.2099945790791" seq="140" r="0.1" class="bzpt2"/>
<circle cx="72.4942565808497" cy="44.4795476284739" seq="141" r="0.1" class="bzpt2"/>
<circle cx="72.5817998127589" cy="44.747419007021" seq="142" r="0.1" class="bzpt2"/>
<circle cx="72.6625222944083" cy="45.0136067507835" seq="143" r="0.1" class="bzpt2"/>
<circle cx="72.7364553040237" cy="45.2781068525381" seq="144" r="0.1" class="bzpt2"/>
<circle cx="72.8036295426371" cy="45.5409130958556" seq="145" r="0.1" class="bzpt2"/>
<circle cx="72.8640753053371" cy="45.8020169002317" seq="146" r="0.1" class="bzpt2"/>
<circle cx="72.9178226785751" cy="46.0614071820305" seq="147" r="0.1" class="bzpt2"/>
<circle cx="72.9649017627924" cy="46.3190702363102" seq="148" r="0.1" class="bzpt2"/>
<circle cx="73.0053429187627" cy="46.5749896447643" seq="149" r="0.1" class="bzpt2"/>
<circle cx="73.0391770350765" cy="46.8291462149962" seq="150" r="0.1" class="bzpt2"/>
<circle cx="73.0664358131797" cy="47.0815179561251" seq="151" r="0.1" class="bzpt2"/>
<circle cx="73.0871520653465" cy="47.3320800952578" seq="152" r="0.1" class="bzpt2"/>
<circle cx="73.1013600199805" cy="47.5808051386507" seq="153" r="0.1" class="bzpt2"/>
<circle cx="73.109095627744" cy="47.8276629804167" seq="154" r="0.1" class="bzpt2"/>
<circle cx="73.1103968612931" cy="48.0726210604237" seq="155" r="0.1" class="bzpt2"/>
<circle cx="73.1053040008889" cy="48.3156445716089" seq="156" r="0.1" class="bzpt2"/>
<circle cx="73.0938598979321" cy="48.5566967153644" seq="157" r="0.1" class="bzpt2"/>
<circle cx="73.0761102085676" cy="48.7957390019587" seq="158" r="0.1" class="bzpt2"/>
<circle cx="73.0521035899546" cy="49.0327315913055" seq="159" r="0.1" class="bzpt2"/>
<circle cx="73.0218918526058" cy="49.2676336677688" seq="160" r="0.1" class="bzpt2"/>
<circle cx="72.9855300633427" cy="49.5004038412827" seq="161" r="0.1" class="bzpt2"/>
<circle cx="72.9430765948575" cy="49.7310005659008" seq="162" r="0.1" class="bzpt2"/>
<circle cx="72.8945931195451" cy="49.9593825660674" seq="163" r="0.1" class="bzpt2"/>
<circle cx="72.8401445470887" cy="50.1855092604861" seq="164" r="0.1" class="bzpt2"/>
<circle cx="72.7797989071524" cy="50.4093411734598" seq="165" r="0.1" class="bzpt2"/>
<circle cx="72.7136271803563" cy="50.6308403240239" seq="166" r="0.1" class="bzpt2"/>
<circle cx="72.6417030823714" cy="50.8499705840324" seq="167" r="0.1" class="bzpt2"/>
<circle cx="72.564102807405" cy="51.0666979975659" seq="168" r="0.1" class="bzpt2"/>
<circle cx="72.4809047384643" cy="51.2809910555092" seq="169" r="0.1" class="bzpt2"/>
<circle cx="72.3921891325489" cy="51.4928209208241" seq="170" r="0.1" class="bzpt2"/>
<circle cx="72.2980377893087" cy="51.702161601813" seq="171" r="0.1" class="bzpt2"/>
<circle cx="72.1985337117139" cy="51.9089900724366" seq="172" r="0.1" class="bzpt2"/>
<circle cx="72.0937607669499" cy="52.1132863404248" seq="173" r="0.1" class="bzpt2"/>
<circle cx="71.9838033551114" cy="52.3150334654304" seq="174" r="0.1" class="bzpt2"/>
<circle cx="71.8687460923986" cy="52.5142175307558" seq="175" r="0.1" class="bzpt2"/>
<circle cx="71.7486735144667" cy="52.7108275732037" seq="176" r="0.1" class="bzpt2"/>
<circle cx="71.6236698044364" cy="52.9048554763403" seq="177" r="0.1" class="bzpt2"/>
<circle cx="71.4938185488852" cy="53.0962958329156" seq="178" r="0.1" class="bzpt2"/>
<circle cx="71.3592025239837" cy="53.2851457823791" seq="179" r="0.1" class="bzpt2"/>
<circle cx="71.2199035128549" cy="53.4714048293837" seq="180" r="0.1" class="bzpt2"/>
<circle cx="71.0760021542619" cy="53.6550746489328" seq="181" r="0.1" class="bzpt2"/>
<circle cx="70.9275778218899" cy="53.8361588834232" seq="182" r="0.1" class="bzpt2"/>
<circle cx="70.7747085328024" cy="54.0146629363247" seq="183" r="0.1" class="bzpt2"/>
<circle cx="70.6174708831167" cy="54.1905937666504" seq="184" r="0.1" class="bzpt2"/>
<circle cx="70.4559400085566" cy="54.363959687746" seq="185" r="0.1" class="bzpt2"/>
<circle cx="70.2901895672915" cy="54.5347701732949" seq="186" r="0.1" class="bzpt2"/>
<circle cx="70.1202917423448" cy="54.7030356728252" seq="187" r="0.1" class="bzpt2"/>
<circle cx="69.9463172608275" cy="54.8687674384321" seq="188" r="0.1" class="bzpt2"/>
<circle cx="69.7683354273156" cy="55.0319773639057" seq="189" r="0.1" class="bzpt2"/>
<circle cx="69.5864141688144" cy="55.1926778369975" seq="190" r="0.1" class="bzpt2"/>
<circle cx="69.4006200889257" cy="55.3508816051587" seq="191" r="0.1" class="bzpt2"/>
<circle cx="69.2110185290429" cy="55.5066016547565" seq="192" r="0.1" class="bzpt2"/>
<circle cx="69.0176736346195" cy="55.6598511035016" seq="193" r="0.1" class="bzpt2"/>
<circle cx="68.8206484247942" cy="55.8106431056111" seq="194" r="0.1" class="bzpt2"/>
<circle cx="68.6200048638808" cy="55.9589907690728" seq="195" r="0.1" class="bzpt2"/>
<circle cx="68.4158039334601" cy="56.1049070842631" seq="196" r="0.1" class="bzpt2"/>
<circle cx="68.2081057040161" cy="56.2484048630985" seq="197" r="0.1" class="bzpt2"/>
<circle cx="67.9969694052529" cy="56.3894966878601" seq="198" r="0.1" class="bzpt2"/>
<circle cx="67.782453494405" cy="56.5281948688199" seq="199" r="0.1" class="bzpt2"/>
<circle cx="67.5646157220069" cy="56.6645114098037" seq="200" r="0.1" class="bzpt2"/>
<circle cx="67.3435131947248" cy="56.7984579808522" seq="201" r="0.1" class="bzpt2"/>
<circle cx="67.1192024349705" cy="56.9300458971802" seq="202" r="0.1" class="bzpt2"/>
<circle cx="66.891739437117" cy="57.0592861036789" seq="203" r="0.1" class="bzpt2"/>
<circle cx="66.6611797202189" cy="57.1861891642577" seq="204" r="0.1" class="bzpt2"/>
<circle cx="66.4275783772101" cy="57.3107652553792" seq="205" r="0.1" class="bzpt2"/>
<circle cx="66.1909901206041" cy="57.4330241631939" seq="206" r="0.1" class="bzpt2"/>
<circle cx="65.9514693247714" cy="57.5529752837396" seq="207" r="0.1" class="bzpt2"/>
<circle cx="65.7090700648962" cy="57.6706276257224" seq="208" r="0.1" class="bzpt2"/>
<circle cx="65.4638461527457" cy="57.7859898154483" seq="209" r="0.1" class="bzpt2"/>
<circle cx="65.2158511693999" cy="57.8990701035243" seq="210" r="0.1" class="bzpt2"/>
<circle cx="64.9651384951034" cy="58.0098763729912" seq="211" r="0.1" class="bzpt2"/>
<circle cx="64.711761336408" cy="58.1184161485932" seq="212" r="0.1" class="bzpt2"/>
<circle cx="64.4557727507765" cy="58.2246966069271" seq="213" r="0.1" class="bzpt2"/>
<circle cx="64.1972256688211" cy="58.3287245872484" seq="214" r="0.1" class="bzpt2"/>
<circle cx="63.9361729143431" cy="58.4305066027435" seq="215" r="0.1" class="bzpt2"/>
<circle cx="63.6726672223392" cy="58.5300488521036" seq="216" r="0.1" class="bzpt2"/>
<circle cx="63.4067612551326" cy="58.6273572312622" seq="217" r="0.1" class="bzpt2"/>
<circle cx="63.1385076167789" cy="58.722437345179" seq="218" r="0.1" class="bzpt2"/>
<circle cx="62.8679588658912" cy="58.8152945195718" seq="219" r="0.1" class="bzpt2"/>
<circle cx="62.5951675270184" cy="58.9059338125183" seq="220" r="0.1" class="bzpt2"/>
<circle cx="62.3201861007034" cy="58.9943600258581" seq="221" r="0.1" class="bzpt2"/>
<circle cx="62.0430670723401" cy="59.0805777163453" seq="222" r="0.1" class="bzpt2"/>
<circle cx="61.7638629199377" cy="59.164591206507" seq="223" r="0.1" class="bzpt2"/>
<circle cx="61.4826261208945" cy="59.2464045951765" seq="224" r="0.1" class="bzpt2"/>
<circle cx="61.1994091578758" cy="59.3260217676759" seq="225" r="0.1" class="bzpt2"/>
<circle cx="60.9142645238806" cy="59.4034464056313" seq="226" r="0.1" class="bzpt2"/>
<circle cx="60.6272447265776" cy="59.4786819964071" seq="227" r="0.1" class="bzpt2"/>
<circle cx="60.3384022919824" cy="59.5517318421543" seq="228" r="0.1" class="bzpt2"/>
<circle cx="60.0477897675433" cy="59.6225990684686" seq="229" r="0.1" class="bzpt2"/>
<circle cx="59.7554597246938" cy="59.6912866326595" seq="230" r="0.1" class="bzpt2"/>
<circle cx="59.4614647609295" cy="59.7577973316325" seq="231" r="0.1" class="bzpt2"/>
<circle cx="59.1658575014573" cy="59.8221338093915" seq="232" r="0.1" class="bzpt2"/>
<circle cx="58.8686906004637" cy="59.8842985641666" seq="233" r="0.1" class="bzpt2"/>
<circle cx="58.5700167420417" cy="59.9442939551772" seq="234" r="0.1" class="bzpt2"/>
<circle cx="58.2698886408141" cy="60.0021222090395" seq="235" r="0.1" class="bzpt2"/>
<circle cx="57.9683590422875" cy="60.0577854258288" seq="236" r="0.1" class="bzpt2"/>
<circle cx="57.6654807229655" cy="60.1112855848064" seq="237" r="0.1" class="bzpt2"/>
<circle cx="57.3613064902486" cy="60.1626245498248" seq="238" r="0.1" class="bzpt2"/>
<circle cx="57.0558891821467" cy="60.211804074419" seq="239" r="0.1" class="bzpt2"/>
<circle cx="56.749281666824" cy="60.2588258065983" seq="240" r="0.1" class="bzpt2"/>
<circle cx="56.441536841997" cy="60.3036912933479" seq="241" r="0.1" class="bzpt2"/>
<circle cx="56.132707634203" cy="60.3464019848519" seq="242" r="0.1" class="bzpt2"/>
<circle cx="55.8228469979544" cy="60.3869592384484" seq="243" r="0.1" class="bzpt2"/>
<circle cx="55.5120079147937" cy="60.425364322327" seq="244" r="0.1" class="bzpt2"/>
<circle cx="55.2002433922598" cy="60.4616184189789" seq="245" r="0.1" class="bzpt2"/>
<circle cx="54.8876064627794" cy="60.4957226284081" seq="246" r="0.1" class="bzpt2"/>
<circle cx="54.5741501824903" cy="60.5276779711149" seq="247" r="0.1" class="bzpt2"/>
<circle cx="54.2599276300075" cy="60.5574853908578" seq="248" r="0.1" class="bzpt2"/>
<circle cx="53.9449919051391" cy="60.5851457572034" seq="249" r="0.1" class="bzpt2"/>
<circle cx="53.6293961275585" cy="60.610659867872" seq="250" r="0.1" class="bzpt2"/>
<circle cx="53.3131934354395" cy="60.6340284508849" seq="251" r="0.1" class="bzpt2"/>
<circle cx="52.9964369840591" cy="60.6552521665207" seq="252" r="0.1" class="bzpt2"/>
<circle cx="52.6791799443726" cy="60.6743316090872" seq="253" r="0.1" class="bzpt2"/>
<circle cx="52.3614755015658" cy="60.6912673085124" seq="254" r="0.1" class="bzpt2"/>
<circle cx="52.0433768535874" cy="60.7060597317623" seq="255" r="0.1" class="bzpt2"/>
<circle cx="51.7249372096643" cy="60.7187092840872" seq="256" r="0.1" class="bzpt2"/>
<circle cx="51.4062097888034" cy="60.729216310103" seq="257" r="0.1" class="bzpt2"/>
<circle cx="51.0872478182826" cy="60.7375810947087" seq="258" r="0.1" class="bzpt2"/>
<circle cx="50.7681045321315" cy="60.7438038638451" seq="259" r="0.1" class="bzpt2"/>
<circle cx="50.4488331696062" cy="60.7478847850951" seq="260" r="0.1" class="bzpt2"/>
<circle cx="50.1294869736577" cy="60.7498239681293" seq="261" r="0.1" class="bzpt2"/>
<circle cx="49.8101191893976" cy="60.7496214649971" seq="262" r="0.1" class="bzpt2"/>
<circle cx="49.4907830625608" cy="60.747277270265" seq="263" r="0.1" class="bzpt2"/>
<circle cx="49.1715318379679" cy="60.7427913210023" seq="264" r="0.1" class="bzpt2"/>
<circle cx="48.8524187579888" cy="60.7361634966139" seq="265" r="0.1" class="bzpt2"/>
<circle cx="48.5334970610085" cy="60.7273936185197" seq="266" r="0.1" class="bzpt2"/>
<circle cx="48.2148199798968" cy="60.7164814496805" seq="267" r="0.1" class="bzpt2"/>
<circle cx="47.8964407404833" cy="60.7034266939672" seq="268" r="0.1" class="bzpt2"/>
<circle cx="47.5784125600413" cy="60.688228995373" seq="269" r="0.1" class="bzpt2"/>
<circle cx="47.2607886457791" cy="60.6708879370644" seq="270" r="0.1" class="bzpt2"/>
<circle cx="46.9436221933453" cy="60.6514030402697" seq="271" r="0.1" class="bzpt2"/>
<circle cx="46.6269663853466" cy="60.6297737630001" seq="272" r="0.1" class="bzpt2"/>
<circle cx="46.3108743898838" cy="60.6059994985998" seq="273" r="0.1" class="bzpt2"/>
<circle cx="45.9953993591079" cy="60.5800795741207" seq="274" r="0.1" class="bzpt2"/>
<circle cx="45.6805944278005" cy="60.5520132485168" seq="275" r="0.1" class="bzpt2"/>
<circle cx="45.3665127119819" cy="60.5217997106518" seq="276" r="0.1" class="bzpt2"/>
<circle cx="45.053207307553" cy="60.4894380771147" seq="277" r="0.1" class="bzpt2"/>
<circle cx="44.7407312889752" cy="60.4549273898366" seq="278" r="0.1" class="bzpt2"/>
<circle cx="44.4291377079955" cy="60.4182666135009" seq="279" r="0.1" class="bzpt2"/>
<circle cx="44.1184795924221" cy="60.3794546327402" seq="280" r="0.1" class="bzpt2"/>
<circle cx="43.8088099449611" cy="60.3384902491104" seq="281" r="0.1" class="bzpt2"/>
<circle cx="43.5001817421198" cy="60.2953721778353" seq="282" r="0.1" class="bzpt2"/>
<circle cx="43.19264793319" cy="60.2500990443101" seq="283" r="0.1" class="bzpt2"/>
<circle cx="42.8862614393205" cy="60.2026693803562" seq="284" r="0.1" class="bzpt2"/>
<circle cx="42.5810751526916" cy="60.1530816202163" seq="285" r="0.1" class="bzpt2"/>
<circle cx="42.2771419358069" cy="60.1013340962792" seq="286" r="0.1" class="bzpt2"/>
<circle cx="41.9745146209181" cy="60.0474250345244" seq="287" r="0.1" class="bzpt2"/>
<circle cx="41.6732460095995" cy="59.9913525496746" seq="288" r="0.1" class="bzpt2"/>
<circle cx="41.3733888724945" cy="59.9331146400457" seq="289" r="0.1" class="bzpt2"/>
<circle cx="41.0749959492536" cy="59.8727091820819" seq="290" r="0.1" class="bzpt2"/>
<circle cx="40.7781199486916" cy="59.810133924566" seq="291" r="0.1" class="bzpt2"/>
<circle cx="40.4828135491892" cy="59.7453864824925" seq="292" r="0.1" class="bzpt2"/>
<circle cx="40.1891293993719" cy="59.6784643305941" seq="293" r="0.1" class="bzpt2"/>
<circle cx="39.8971201190978" cy="59.60936479651" seq="294" r="0.1" class="bzpt2"/>
<circle cx="39.6068383007954" cy="59.5380850535877" seq="295" r="0.1" class="bzpt2"/>
<circle cx="39.3183365111894" cy="59.4646221133099" seq="296" r="0.1" class="bzpt2"/>
<circle cx="39.0316672934637" cy="59.3889728173387" seq="297" r="0.1" class="bzpt2"/>
<circle cx="38.7468831699109" cy="59.3111338291737" seq="298" r="0.1" class="bzpt2"/>
<circle cx="38.4640366451245" cy="59.2311016254198" seq="299" r="0.1" class="bzpt2"/>
<circle cx="38.1831802097956" cy="59.1488724866659" seq="300" r="0.1" class="bzpt2"/>
<circle cx="37.9043663451815" cy="59.064442487977" seq="301" r="0.1" class="bzpt2"/>
<circle cx="37.6276475283194" cy="58.9778074890097" seq="302" r="0.1" class="bzpt2"/>
<circle cx="37.3530762380669" cy="58.8889631237607" seq="303" r="0.1" class="bzpt2"/>
<circle cx="37.0807049620556" cy="58.7979047899706" seq="304" r="0.1" class="bzpt2"/>
<circle cx="36.8105862046541" cy="58.7046276382067" seq="305" r="0.1" class="bzpt2"/>
<circle cx="36.5427724960433" cy="58.6091265606599" seq="306" r="0.1" class="bzpt2"/>
<circle cx="36.2773164025152" cy="58.5113961797002" seq="307" r="0.1" class="bzpt2"/>
<circle cx="36.014270538115" cy="58.4114308362451" seq="308" r="0.1" class="bzpt2"/>
<circle cx="35.7536875777537" cy="58.3092245780111" seq="309" r="0.1" class="bzpt2"/>
<circle cx="35.49562027193" cy="58.2047711477306" seq="310" r="0.1" class="bzpt2"/>
<circle cx="35.2401214632037" cy="58.0980639714353" seq="311" r="0.1" class="bzpt2"/>
<circle cx="34.9872441045743" cy="57.9890961469289" seq="312" r="0.1" class="bzpt2"/>
<circle cx="34.7370412799239" cy="57.8778604325887" seq="313" r="0.1" class="bzpt2"/>
<circle cx="34.4895662266892" cy="57.7643492366691" seq="314" r="0.1" class="bzpt2"/>
<circle cx="34.2448723609334" cy="57.6485546072999" seq="315" r="0.1" class="bzpt2"/>
<circle cx="34.0030133049869" cy="57.5304682234109" seq="316" r="0.1" class="bzpt2"/>
<circle cx="33.7640429178312" cy="57.4100813868468" seq="317" r="0.1" class="bzpt2"/>
<circle cx="33.5280153283914" cy="57.2873850159726" seq="318" r="0.1" class="bzpt2"/>
<circle cx="33.2949849718966" cy="57.1623696411186" seq="319" r="0.1" class="bzpt2"/>
<circle cx="33.0650066294566" cy="57.0350254022526" seq="320" r="0.1" class="bzpt2"/>
<circle cx="32.8381354709778" cy="56.9053420493217" seq="321" r="0.1" class="bzpt2"/>
<circle cx="32.6144271015218" cy="56.7733089457558" seq="322" r="0.1" class="bzpt2"/>
<circle cx="32.3939376111683" cy="56.6389150756778" seq="323" r="0.1" class="bzpt2"/>
<circle cx="32.1767236284002" cy="56.5021490554262" seq="324" r="0.1" class="bzpt2"/>
<circle cx="31.9628423769721" cy="56.3629991500452" seq="325" r="0.1" class="bzpt2"/>
<circle cx="31.752351736149" cy="56.2214532954574" seq="326" r="0.1" class="bzpt2"/>
<circle cx="31.5453103041187" cy="56.0774991270821" seq="327" r="0.1" class="bzpt2"/>
<circle cx="31.3417774642757" cy="55.931124015708" seq="328" r="0.1" class="bzpt2"/>
<circle cx="31.1418134539566" cy="55.7823151114652" seq="329" r="0.1" class="bzpt2"/>
<circle cx="30.9454794350645" cy="55.6310593967622" seq="330" r="0.1" class="bzpt2"/>
<circle cx="30.7528375658632" cy="55.4773437490617" seq="331" r="0.1" class="bzpt2"/>
<circle cx="30.5639510730415" cy="55.3211550143485" seq="332" r="0.1" class="bzpt2"/>
<circle cx="30.3788843229552" cy="55.1624800920995" seq="333" r="0.1" class="bzpt2"/>
<circle cx="30.1977028907383" cy="55.0013060324842" seq="334" r="0.1" class="bzpt2"/>
<circle cx="30.0204736257507" cy="54.8376201464047" seq="335" r="0.1" class="bzpt2"/>
<circle cx="29.8472647116009" cy="54.6714101288156" seq="336" r="0.1" class="bzpt2"/>
<circle cx="29.6781457187468" cy="54.5026641955425" seq="337" r="0.1" class="bzpt2"/>
<circle cx="29.5131876474569" cy="54.331371233537" seq="338" r="0.1" class="bzpt2"/>
<circle cx="29.3524629587143" cy="54.157520964164" seq="339" r="0.1" class="bzpt2"/>
<circle cx="29.1960455904762" cy="53.9811041187068" seq="340" r="0.1" class="bzpt2"/>
<circle cx="29.0440109565928" cy="53.8021126248048" seq="341" r="0.1" class="bzpt2"/>
<circle cx="28.8964359256385" cy="53.6205398020066" seq="342" r="0.1" class="bzpt2"/>
<circle cx="28.753398776952" cy="53.4363805640384" seq="343" r="0.1" class="bzpt2"/>
<circle cx="28.6149791313348" cy="53.2496316247734" seq="344" r="0.1" class="bzpt2"/>
<circle cx="28.4812578541261" cy="53.0602917042528" seq="345" r="0.1" class="bzpt2"/>
<circle cx="28.3523169287892" cy="52.8683617304909" seq="346" r="0.1" class="bzpt2"/>
<circle cx="28.2282392997078" cy="52.6738450322189" seq="347" r="0.1" class="bzpt2"/>
<circle cx="28.1091086836042" cy="52.4767475172288" seq="348" r="0.1" class="bzpt2"/>
<circle cx="27.9950093498619" cy="52.2770778306044" seq="349" r="0.1" class="bzpt2"/>
<circle cx="27.8860258710239" cy="52.0748474869215" seq="350" r="0.1" class="bzpt2"/>
<circle cx="27.7822428458503" cy="51.8700709704954" seq="351" r="0.1" class="bzpt2"/>
<circle cx="27.683744598474" cy="51.662765797999" seq="352" r="0.1" class="bzpt2"/>
<circle cx="27.5906148583888" cy="51.4529525382775" seq="353" r="0.1" class="bzpt2"/>
<circle cx="27.5029364271244" cy="51.240654784983" seq="354" r="0.1" class="bzpt2"/>
<circle cx="27.4207908384955" cy="51.0258990787204" seq="355" r="0.1" class="bzpt2"/>
<circle cx="27.3442580201378" cy="50.8087147767246" seq="356" r="0.1" class="bzpt2"/>
<circle cx="27.2734159646328" cy="50.5891338696369" seq="357" r="0.1" class="bzpt2"/>
<circle cx="27.2083404187932" cy="50.3671907466468" seq="358" r="0.1" class="bzpt2"/>
<circle cx="27.1491045996028" cy="50.1429219120407" seq="359" r="0.1" class="bzpt2"/>
<circle cx="27.0957789448431" cy="49.9163656579596" seq="360" r="0.1" class="bzpt2"/>
<circle cx="27.0484309056136" cy="49.6875616998154" seq="361" r="0.1" class="bzpt2"/>
<circle cx="27.0071247867625" cy="49.4565507822502" seq="362" r="0.1" class="bzpt2"/>
<circle cx="26.9719216397722" cy="49.2233742646652" seq="363" r="0.1" class="bzpt2"/>
<circle cx="26.9428792109329" cy="48.9880736961154" seq="364" r="0.1" class="bzpt2"/>
<circle cx="26.92005194581" cy="48.7506903897293" seq="365" r="0.1" class="bzpt2"/>
<circle cx="26.9034910491361" cy="48.5112650067311" seq="366" r="0.1" class="bzpt2"/>
<circle cx="26.8932445974599" cy="48.269837159647" seq="367" r="0.1" class="bzpt2"/>
<circle cx="26.88935770025" cy="48.0264450433858" seq="368" r="0.1" class="bzpt2"/>
<circle cx="26.8918727037605" cy="47.7811251016561" seq="369" r="0.1" class="bzpt2"/>
<circle cx="26.9008294308821" cy="47.5339117347671" seq="370" r="0.1" class="bzpt2"/>
<circle cx="26.9162654494614" cy="47.2848370531366" seq="371" r="0.1" class="bzpt2"/>
<circle cx="26.9382163611897" cy="47.0339306792771" seq="372" r="0.1" class="bzpt2"/>
<circle cx="26.9667161031286" cy="46.7812195992598" seq="373" r="0.1" class="bzpt2"/>
<circle cx="27.001797254217" cy="46.5267280631658" seq="374" r="0.1" class="bzpt2"/>
<circle cx="27.0434913396597" cy="46.2704775326265" seq="375" r="0.1" class="bzpt2"/>
<circle cx="27.0918291268548" cy="46.0124866723987" seq="376" r="0.1" class="bzpt2"/>
<circle cx="27.1468409074357" cy="45.7527713819941" seq="377" r="0.1" class="bzpt2"/>
<circle cx="27.208556761002" cy="45.4913448627228" seq="378" r="0.1" class="bzpt2"/>
<circle cx="27.2770067971433" cy="45.2282177150945" seq="379" r="0.1" class="bzpt2"/>
<circle cx="27.3522213733736" cy="44.9633980613401" seq="380" r="0.1" class="bzpt2"/>
<circle cx="27.4342312875412" cy="44.6968916878393" seq="381" r="0.1" class="bzpt2"/>
<circle cx="27.5230679441353" cy="44.4287022024338" seq="382" r="0.1" class="bzpt2"/>
<circle cx="27.6187634946526" cy="44.1588312019325" seq="383" r="0.1" class="bzpt2"/>
<circle cx="27.7213509528101" cy="43.8872784455427" seq="384" r="0.1" class="bzpt2"/>
<circle cx="27.8308642858807" cy="43.614042030447" seq="385" r="0.1" class="bzpt2"/>
<circle cx="27.9473384837987" cy="43.3391185662722" seq="386" r="0.1" class="bzpt2"/>
<circle cx="28.0708096079407" cy="43.0625033457226" seq="387" r="0.1" class="bzpt2"/>
<circle cx="28.2013148216397" cy="42.7841905091667" seq="388" r="0.1" class="bzpt2"/>
<circle cx="28.3388924045629" cy="42.5041732014528" seq="389" r="0.1" class="bzpt2"/>
<circle cx="28.4835817530754" cy="42.2224437196737" seq="390" r="0.1" class="bzpt2"/>
<circle cx="28.6354233686533" cy="41.9389936509987" seq="391" r="0.1" class="bzpt2"/>
<circle cx="28.7944588363047" cy="41.6538140000368" seq="392" r="0.1" class="bzpt2"/>
<circle cx="28.9607307948204" cy="41.3668953054904" seq="393" r="0.1" class="bzpt2"/>
<circle cx="29.1342829005213" cy="41.0782277461038" seq="394" r="0.1" class="bzpt2"/>
<circle cx="29.3151597860026" cy="40.7878012361053" seq="395" r="0.1" class="bzpt2"/>
<circle cx="29.5034070152033" cy="40.4956055104995" seq="396" r="0.1" class="bzpt2"/>
<circle cx="29.6990710359645" cy="40.2016302006801" seq="397" r="0.1" class="bzpt2"/>
<circle cx="29.9021991310746" cy="39.9058649009159" seq="398" r="0.1" class="bzpt2"/>
<circle cx="30.1128393686501" cy="39.6082992263191" seq="399" r="0.1" class="bzpt2"/>
<circle cx="30.3310405525613" cy="39.3089228629333" seq="400" r="0.1" class="bzpt2"/>
<circle cx="30.5568521734836" cy="39.0077256105909" seq="401" r="0.1" class="bzpt2"/>
<circle cx="30.7903243610426" cy="38.7046974191854" seq="402" r="0.1" class="bzpt2"/>
<circle cx="31.0315078374192" cy="38.3998284189894" seq="403" r="0.1" class="bzpt2"/>
<circle cx="31.2804538726961" cy="38.0931089456206" seq="404" r="0.1" class="bzpt2"/>
<circle cx="31.53721424215" cy="37.7845295602317" seq="405" r="0.1" class="bzpt2"/>
<circle cx="31.8018411856289" cy="37.4740810654613" seq="406" r="0.1" class="bzpt2"/>
<circle cx="32.0743873691027" cy="37.1617545176454" seq="407" r="0.1" class="bzpt2"/>
<circle cx="32.354905848428" cy="36.8475412357516" seq="408" r="0.1" class="bzpt2"/>
<circle cx="32.643450035333" cy="36.531432807457" seq="409" r="0.1" class="bzpt2"/>
<circle cx="32.9400736655989" cy="36.2134210927538" seq="410" r="0.1" class="bzpt2"/>
<circle cx="33.2448307693894" cy="35.8934982254292" seq="411" r="0.1" class="bzpt2"/>
<circle cx="33.5577756436645" cy="35.5716566127304" seq="412" r="0.1" class="bzpt2"/>
<circle cx="33.8789628266001" cy="35.2478889334938" seq="413" r="0.1" class="bzpt2"/>
<circle cx="34.2084470739238" cy="34.9221881349855" seq="414" r="0.1" class="bzpt2"/>
<circle cx="34.5462833370749" cy="34.5945474286727" seq="415" r="0.1" class="bzpt2"/>
<circle cx="34.8925267430876" cy="34.2649602851189" seq="416" r="0.1" class="bzpt2"/>
<circle cx="35.2472325761004" cy="33.9334204281722" seq="417" r="0.1" class="bzpt2"/>
<circle cx="35.6104562603882" cy="33.5999218285948" seq="418" r="0.1" class="bzpt2"/>
<circle cx="35.9822533448216" cy="33.2644586972635" seq="419" r="0.1" class="bzpt2"/>
<circle cx="36.3626794886552" cy="32.9270254780497" seq="420" r="0.1" class="bzpt2"/>
<circle cx="36.7517904485532" cy="32.5876168404776" seq="421" r="0.1" class="bzpt2"/>
<circle cx="37.1496420667596" cy="32.2462276722407" seq="422" r="0.1" class="bzpt2"/>
<circle cx="37.5562902603331" cy="31.9028530716474" seq="423" r="0.1" class="bzpt2"/>
<circle cx="37.9717910113607" cy="31.5574883400537" seq="424" r="0.1" class="bzpt2"/>
<circle cx="38.3962003580762" cy="31.2101289743338" seq="425" r="0.1" class="bzpt2"/>
<circle cx="38.8295743868111" cy="30.8607706594285" seq="426" r="0.1" class="bzpt2"/>
<circle cx="39.2719692247098" cy="30.5094092610063" seq="427" r="0.1" class="bzpt2"/>
<circle cx="39.7234410331491" cy="30.1560408182638" seq="428" r="0.1" class="bzpt2"/>
<circle cx="40.184046001799" cy="29.8006615368896" seq="429" r="0.1" class="bzpt2"/>
<circle cx="40.6538403432732" cy="29.443267782206" seq="430" r="0.1" class="bzpt2"/>
<circle cx="41.1328802883196" cy="29.0838560725048" seq="431" r="0.1" class="bzpt2"/>
<circle cx="41.6212220815011" cy="28.7224230725851" seq="432" r="0.1" class="bzpt2"/>
<circle cx="42.1189219773266" cy="28.3589655875011" seq="433" r="0.1" class="bzpt2"/>
<circle cx="42.6260362367903" cy="27.9934805565235" seq="434" r="0.1" class="bzpt2"/>
<circle cx="43.1426211242846" cy="27.625965047317" seq="435" r="0.1" class="bzpt2"/>
<circle cx="43.6687329048507" cy="27.2564162503341" seq="436" r="0.1" class="bzpt2"/>
<circle cx="44.2044278417389" cy="26.8848314734249" seq="437" r="0.1" class="bzpt2"/>
<circle cx="44.749762194247" cy="26.511208136659" seq="438" r="0.1" class="bzpt2"/>
<circle cx="45.304792215814" cy="26.1355437673575" seq="439" r="0.1" class="bzpt2"/>
<circle cx="45.869574152343" cy="25.7578359953307" seq="440" r="0.1" class="bzpt2"/>
<circle cx="46.4441642407332" cy="25.3780825483158" seq="441" r="0.1" class="bzpt2"/>
<circle cx="47.0286187075995" cy="24.9962812476107" seq="442" r="0.1" class="bzpt2"/>
<circle cx="47.6229937681636" cy="24.6124300038965" seq="443" r="0.1" class="bzpt2"/>
<circle cx="48.2273456252982" cy="24.2265268132446" seq="444" r="0.1" class="bzpt2"/>
<circle cx="48.8417304687107" cy="23.8385697533005" seq="445" r="0.1" class="bzpt2"/>
<circle cx="49.4662044742511" cy="23.4485569796393" seq="446" r="0.1" class="bzpt2"/>
<circle cx="50.1008238033337" cy="23.0564867222851" seq="447" r="0.1" class="bzpt2"/>
<circle cx="50.7456446024586" cy="22.6623572823899" seq="448" r="0.1" class="bzpt2"/>
<circle cx="51.4007230028255" cy="22.2661670290642" seq="449" r="0.1" class="bzpt2"/>
<circle cx="52.0661151200281" cy="21.8679143963532" seq="450" r="0.1" class="bzpt2"/>
<circle cx="52.7418770538212" cy="21.4675978803533" seq="451" r="0.1" class="bzpt2"/>
<circle cx="53.4280648879538" cy="21.0652160364621" seq="452" r="0.1" class="bzpt2"/>
<circle cx="54.1247346900597" cy="20.6607674767566" seq="453" r="0.1" class="bzpt2"/>
<circle cx="54.8319425115998" cy="20.2542508674934" seq="454" r="0.1" class="bzpt2"/>
<circle cx="55.5497443878507" cy="19.8456649267262" seq="455" r="0.1" class="bzpt2"/>
<circle cx="56.2781963379335" cy="19.4350084220341" seq="456" r="0.1" class="bzpt2"/>
<circle cx="57.0173543648793" cy="19.0222801683573" seq="457" r="0.1" class="bzpt2"/>
<circle cx="57.7672744557249" cy="18.607479025933" seq="458" r="0.1" class="bzpt2"/>
<circle cx="58.5280125816384" cy="18.1906038983288" seq="459" r="0.1" class="bzpt2"/>
<circle cx="59.2996246980667" cy="17.7716537305682" seq="460" r="0.1" class="bzpt2"/>
<circle cx="60.0821667449058" cy="17.3506275073437" seq="461" r="0.1" class="bzpt2"/>
<circle cx="60.8756946466886" cy="16.9275242513131" seq="462" r="0.1" class="bzpt2"/>
<circle cx="61.6802643127885" cy="16.5023430214761" seq="463" r="0.1" class="bzpt2"/>
<circle cx="62.4959316376361" cy="16.0750829116262" seq="464" r="0.1" class="bzpt2"/>
<circle cx="63.3227525009473" cy="15.6457430488744" seq="465" r="0.1" class="bzpt2"/>
<circle cx="64.1607827679608" cy="15.2143225922424" seq="466" r="0.1" class="bzpt2"/>
<circle cx="65.0100782896832" cy="14.7808207313201" seq="467" r="0.1" class="bzpt2"/>
<circle cx="65.8706949031404" cy="14.3452366849858" seq="468" r="0.1" class="bzpt2"/>
<circle cx="66.7426884316336" cy="13.9075697001852" seq="469" r="0.1" class="bzpt2"/>
<circle cx="67.6261146849986" cy="13.4678190507667" seq="470" r="0.1" class="bzpt2"/>
<circle cx="68.5210294598688" cy="13.0259840363703" seq="471" r="0.1" class="bzpt2"/>
<circle cx="69.4274885399383" cy="12.5820639813669" seq="472" r="0.1" class="bzpt2"/>
<circle cx="70.3455476962268" cy="12.1360582338467" seq="473" r="0.1" class="bzpt2"/>
<circle cx="71.2752626873435" cy="11.6879661646527" seq="474" r="0.1" class="bzpt2"/>
<circle cx="72.2166892597517" cy="11.2377871664592" seq="475" r="0.1" class="bzpt2"/>
<circle cx="73.1698831480304" cy="10.7855206528906" seq="476" r="0.1" class="bzpt2"/>
<circle cx="74.1349000751353" cy="10.3311660576811" seq="477" r="0.1" class="bzpt2"/>
<circle cx="75.1117957526573" cy="9.874722833871" seq="478" r="0.1" class="bzpt2"/>
<circle cx="76.1006258810774" cy="9.41619045303985" seq="479" r="0.1" class="bzpt2"/>
<circle cx="77.1014461500208" cy="8.95556840457322" seq="480" r="0.1" class="bzpt2"/>
<circle cx="78.1143122385046" cy="8.49285619496194" seq="481" r="0.1" class="bzpt2"/>
<circle cx="79.139279815185" cy="8.0280533471327" seq="482" r="0.1" class="bzpt2"/>
<circle cx="80.176404538598" cy="7.56115939980772" seq="483" r="0.1" class="bzpt2"/>
<circle cx="81.225742057399" cy="7.09217390689276" seq="484" r="0.1" class="bzpt2"/>
<circle cx="82.2873480105955" cy="6.62109643689157" seq="485" r="0.1" class="bzpt2"/>
<circle cx="83.3612780277776" cy="6.14792657234603" seq="486" r="0.1" class="bzpt2"/>
<circle cx="84.447587729343" cy="5.67266390930036" seq="487" r="0.1" class="bzpt2"/>
<circle cx="85.5463327267188" cy="5.19530805678862" seq="488" r="0.1" class="bzpt2"/>
<circle cx="86.6575686225772" cy="4.71585863634392" seq="489" r="0.1" class="bzpt2"/>
<circle cx="87.7813510110484" cy="4.23431528152882" seq="490" r="0.1" class="bzpt2"/>
<circle cx="88.9177354779279" cy="3.75067763748564" seq="491" r="0.1" class="bzpt2"/>
<circle cx="90.0667776008801" cy="3.26494536050587" seq="492" r="0.1" class="bzpt2"/>
<circle cx="91.2285329496364" cy="2.7771181176176" seq="493" r="0.1" class="bzpt2"/>
<circle cx="92.4030570861899" cy="2.28719558619039" seq="494" r="0.1" class="bzpt2"/>
<circle cx="93.5904055649852" cy="1.79517745355663" seq="495" r="0.1" class="bzpt2"/>
<circle cx="94.7906339331035" cy="1.30106341664871" seq="496" r="0.1" class="bzpt2"/>
<circle cx="96.0037977304438" cy="0.80485318165104" seq="497" r="0.1" class="bzpt2"/>
<circle cx="97.2299524898996" cy="0.306546463666585" seq="498" r="0.1" class="bzpt2"/>
<circle cx="98.4691537375312" cy="-0.193857013602981" seq="499" r="0.1" class="bzpt2"/>
<circle cx="99.7214569927344" cy="-0.696357518163945" seq="500" r="0.1" class="bzpt2"/>
</svg>
