<svg xmlns="http://www.w3.org/2000/svg"
     width="100%"
     viewBox="0,0,100,100"
     preserveAspectRatio="xMidYMin slice"
>
<style>
/* <![CDATA[ */
.bzpt { fill:blue; stroke:none; }
.bzpt2 { fill:green; stroke:none; }
.bzpt3 { fill:red; stroke:none; }
/* ]]> */
</style>
<path d="M 5,-10 L 0,0 C 200,80   -100,80   100,0" stroke-width="0.03" stroke="black" fill="none" />
<circle cx="4.32917960675006" cy="-10.335410196625" seq="0" r="0.1" class="bzpt2"/>
<circle cx="4.1099860848554" cy="-9.89702315283563" seq="1" r="0.1" class="bzpt2"/>
<circle cx="3.89079256296073" cy="-9.4586361090463" seq="2" r="0.1" class="bzpt2"/>
<circle cx="3.67159904106606" cy="-9.02024906525696" seq="3" r="0.1" class="bzpt2"/>
<circle cx="3.45240551917139" cy="-8.58186202146763" seq="4" r="0.1" class="bzpt2"/>
<circle cx="3.23321199727672" cy="-8.14347497767829" seq="5" r="0.1" class="bzpt2"/>
<circle cx="3.01401847538206" cy="-7.70508793388895" seq="6" r="0.1" class="bzpt2"/>
<circle cx="2.79482495348739" cy="-7.26670089009962" seq="7" r="0.1" class="bzpt2"/>
<circle cx="2.57563143159272" cy="-6.82831384631028" seq="8" r="0.1" class="bzpt2"/>
<circle cx="2.35643790969805" cy="-6.38992680252095" seq="9" r="0.1" class="bzpt2"/>
<circle cx="2.13724438780338" cy="-5.95153975873161" seq="10" r="0.1" class="bzpt2"/>
<circle cx="1.91805086590872" cy="-5.51315271494228" seq="11" r="0.1" class="bzpt2"/>
<circle cx="1.69885734401405" cy="-5.07476567115294" seq="12" r="0.1" class="bzpt2"/>
<circle cx="1.47966382211938" cy="-4.6363786273636" seq="13" r="0.1" class="bzpt2"/>
<circle cx="1.26047030022471" cy="-4.19799158357427" seq="14" r="0.1" class="bzpt2"/>
<circle cx="1.04127677833005" cy="-3.75960453978493" seq="15" r="0.1" class="bzpt2"/>
<circle cx="0.822083256435378" cy="-3.3212174959956" seq="16" r="0.1" class="bzpt2"/>
<circle cx="0.602889734540709" cy="-2.88283045220626" seq="17" r="0.1" class="bzpt2"/>
<circle cx="0.383696212646041" cy="-2.44444340841692" seq="18" r="0.1" class="bzpt2"/>
<circle cx="0.164502690751374" cy="-2.00605636462759" seq="19" r="0.1" class="bzpt2"/>
<circle cx="-0.054690831143294" cy="-1.56766932083825" seq="20" r="0.1" class="bzpt2"/>
<circle cx="-0.273884353037963" cy="-1.12928227704892" seq="21" r="0.1" class="bzpt2"/>
<circle cx="-0.493077874932629" cy="-0.690895233259584" seq="22" r="0.1" class="bzpt2"/>
<circle cx="-0.0412882767456242" cy="0.791315854878419" seq="23" r="0.1" class="bzpt2"/>
<circle cx="1.20549000200682" cy="1.29219725020607" seq="24" r="0.1" class="bzpt2"/>
<circle cx="2.43914174133593" cy="1.79095972383598" seq="25" r="0.1" class="bzpt2"/>
<circle cx="3.6597218563478" cy="2.28760300621669" seq="26" r="0.1" class="bzpt2"/>
<circle cx="4.8672852554522" cy="2.78212681944772" seq="27" r="0.1" class="bzpt2"/>
<circle cx="6.0618868401936" cy="3.27453087697043" seq="28" r="0.1" class="bzpt2"/>
<circle cx="7.24358150507784" cy="3.76481488324559" seq="29" r="0.1" class="bzpt2"/>
<circle cx="8.41242413739464" cy="4.25297853341726" seq="30" r="0.1" class="bzpt2"/>
<circle cx="9.56846961703577" cy="4.7390215129621" seq="31" r="0.1" class="bzpt2"/>
<circle cx="10.7117728163088" cy="5.22294349732356" seq="32" r="0.1" class="bzpt2"/>
<circle cx="11.8423885997464" cy="5.70474415153018" seq="33" r="0.1" class="bzpt2"/>
<circle cx="12.9603718239114" cy="6.18442312979721" seq="34" r="0.1" class="bzpt2"/>
<circle cx="14.0657773371973" cy="6.66198007511075" seq="35" r="0.1" class="bzpt2"/>
<circle cx="15.158659979624" cy="7.1374146187936" seq="36" r="0.1" class="bzpt2"/>
<circle cx="16.2390745826293" cy="7.61072638005184" seq="37" r="0.1" class="bzpt2"/>
<circle cx="17.307075968856" cy="8.0819149655013" seq="38" r="0.1" class="bzpt2"/>
<circle cx="18.3627189519344" cy="8.55097996867284" seq="39" r="0.1" class="bzpt2"/>
<circle cx="19.4060583362604" cy="9.01792096949544" seq="40" r="0.1" class="bzpt2"/>
<circle cx="20.4371489167691" cy="9.48273753375594" seq="41" r="0.1" class="bzpt2"/>
<circle cx="21.4560454787042" cy="9.94542921253445" seq="42" r="0.1" class="bzpt2"/>
<circle cx="22.4628027973834" cy="10.4059955416139" seq="43" r="0.1" class="bzpt2"/>
<circle cx="23.4574756379594" cy="10.8644360408629" seq="44" r="0.1" class="bzpt2"/>
<circle cx="24.4401187551772" cy="11.3207502135897" seq="45" r="0.1" class="bzpt2"/>
<circle cx="25.4107868931277" cy="11.7749375458674" seq="46" r="0.1" class="bzpt2"/>
<circle cx="26.3695347849975" cy="12.2269975058268" seq="47" r="0.1" class="bzpt2"/>
<circle cx="27.3164171528139" cy="12.6769295429165" seq="48" r="0.1" class="bzpt2"/>
<circle cx="28.2514887071977" cy="13.1247330871328" seq="49" r="0.1" class="bzpt2"/>
<circle cx="29.1748041470865" cy="13.5704075482016" seq="50" r="0.1" class="bzpt2"/>
<circle cx="30.0864181594918" cy="14.0139523147382" seq="51" r="0.1" class="bzpt2"/>
<circle cx="30.9863854192268" cy="14.4553667533549" seq="52" r="0.1" class="bzpt2"/>
<circle cx="31.8747605886447" cy="14.894650207732" seq="53" r="0.1" class="bzpt2"/>
<circle cx="32.7515983173743" cy="15.3318019976426" seq="54" r="0.1" class="bzpt2"/>
<circle cx="33.616953242055" cy="15.766821417932" seq="55" r="0.1" class="bzpt2"/>
<circle cx="34.470879986074" cy="16.1997077374481" seq="56" r="0.1" class="bzpt2"/>
<circle cx="35.3134331593039" cy="16.6304601979196" seq="57" r="0.1" class="bzpt2"/>
<circle cx="36.1446673578439" cy="17.0590780127818" seq="58" r="0.1" class="bzpt2"/>
<circle cx="36.9646371637644" cy="17.4855603659437" seq="59" r="0.1" class="bzpt2"/>
<circle cx="37.773397144857" cy="17.9099064104974" seq="60" r="0.1" class="bzpt2"/>
<circle cx="38.5710018543903" cy="18.3321152673633" seq="61" r="0.1" class="bzpt2"/>
<circle cx="39.3575058308747" cy="18.7521860238704" seq="62" r="0.1" class="bzpt2"/>
<circle cx="40.1329635978355" cy="19.1701177322669" seq="63" r="0.1" class="bzpt2"/>
<circle cx="40.8974296635993" cy="19.5859094081581" seq="64" r="0.1" class="bzpt2"/>
<circle cx="41.6509585210924" cy="19.9995600288675" seq="65" r="0.1" class="bzpt2"/>
<circle cx="42.3936046476567" cy="20.411068531719" seq="66" r="0.1" class="bzpt2"/>
<circle cx="43.1254225048835" cy="20.8204338122324" seq="67" r="0.1" class="bzpt2"/>
<circle cx="43.8464665384692" cy="21.2276547222327" seq="68" r="0.1" class="bzpt2"/>
<circle cx="44.5567911780961" cy="21.6327300678649" seq="69" r="0.1" class="bzpt2"/>
<circle cx="45.2564508373413" cy="22.0356586075118" seq="70" r="0.1" class="bzpt2"/>
<circle cx="45.9454999136179" cy="22.4364390496093" seq="71" r="0.1" class="bzpt2"/>
<circle cx="46.6239927881539" cy="22.8350700503544" seq="72" r="0.1" class="bzpt2"/>
<circle cx="47.2919838260116" cy="23.2315502113011" seq="73" r="0.1" class="bzpt2"/>
<circle cx="47.9495273761543" cy="23.6258780768373" seq="74" r="0.1" class="bzpt2"/>
<circle cx="48.5966777715667" cy="24.0180521315402" seq="75" r="0.1" class="bzpt2"/>
<circle cx="49.2334893294334" cy="24.4080707974005" seq="76" r="0.1" class="bzpt2"/>
<circle cx="49.860016351385" cy="24.7959324309134" seq="77" r="0.1" class="bzpt2"/>
<circle cx="50.4763131238178" cy="25.1816353200278" seq="78" r="0.1" class="bzpt2"/>
<circle cx="51.0824339182977" cy="25.5651776809484" seq="79" r="0.1" class="bzpt2"/>
<circle cx="51.6784329920559" cy="25.946557654785" seq="80" r="0.1" class="bzpt2"/>
<circle cx="52.2643645885879" cy="26.3257733040412" seq="81" r="0.1" class="bzpt2"/>
<circle cx="52.8402829383687" cy="26.7028226089387" seq="82" r="0.1" class="bzpt2"/>
<circle cx="53.4062422596936" cy="27.0777034635672" seq="83" r="0.1" class="bzpt2"/>
<circle cx="53.9622967596622" cy="27.4504136718576" seq="84" r="0.1" class="bzpt2"/>
<circle cx="54.5085006353185" cy="27.8209509433691" seq="85" r="0.1" class="bzpt2"/>
<circle cx="55.044908074965" cy="28.1893128888863" seq="86" r="0.1" class="bzpt2"/>
<circle cx="55.5715732596689" cy="28.5554970158198" seq="87" r="0.1" class="bzpt2"/>
<circle cx="56.0885503649807" cy="28.9195007234048" seq="88" r="0.1" class="bzpt2"/>
<circle cx="56.5958935628871" cy="29.2813212976941" seq="89" r="0.1" class="bzpt2"/>
<circle cx="57.0936570240228" cy="29.6409559063402" seq="90" r="0.1" class="bzpt2"/>
<circle cx="57.581894920167" cy="29.998401593164" seq="91" r="0.1" class="bzpt2"/>
<circle cx="58.0606614270535" cy="30.3536552725077" seq="92" r="0.1" class="bzpt2"/>
<circle cx="58.5300107275265" cy="30.7067137233721" seq="93" r="0.1" class="bzpt2"/>
<circle cx="58.9899970150753" cy="31.0575735833365" seq="94" r="0.1" class="bzpt2"/>
<circle cx="59.4406744977851" cy="31.4062313422668" seq="95" r="0.1" class="bzpt2"/>
<circle cx="59.8820974027458" cy="31.7526833358145" seq="96" r="0.1" class="bzpt2"/>
<circle cx="60.3143199809601" cy="32.0969257387147" seq="97" r="0.1" class="bzpt2"/>
<circle cx="60.7373965128002" cy="32.4389545578937" seq="98" r="0.1" class="bzpt2"/>
<circle cx="61.1513813140636" cy="32.7787656253996" seq="99" r="0.1" class="bzpt2"/>
<circle cx="61.5563287426829" cy="33.1163545911749" seq="100" r="0.1" class="bzpt2"/>
<circle cx="61.9522932061502" cy="33.4517169156943" seq="101" r="0.1" class="bzpt2"/>
<circle cx="62.3393291697177" cy="33.7848478624952" seq="102" r="0.1" class="bzpt2"/>
<circle cx="62.717491165445" cy="34.1157424906377" seq="103" r="0.1" class="bzpt2"/>
<circle cx="63.0868338021643" cy="34.4443956471359" seq="104" r="0.1" class="bzpt2"/>
<circle cx="63.4474117764415" cy="34.7708019594122" seq="105" r="0.1" class="bzpt2"/>
<circle cx="63.7992798846144" cy="35.0949558278344" seq="106" r="0.1" class="bzpt2"/>
<circle cx="64.142493035995" cy="35.4168514184094" seq="107" r="0.1" class="bzpt2"/>
<circle cx="64.4771062673247" cy="35.7364826557164" seq="108" r="0.1" class="bzpt2"/>
<circle cx="64.8031747585784" cy="36.053843216179" seq="109" r="0.1" class="bzpt2"/>
<circle cx="65.1207538502115" cy="36.3689265217899" seq="110" r="0.1" class="bzpt2"/>
<circle cx="65.4298990619511" cy="36.6817257344213" seq="111" r="0.1" class="bzpt2"/>
<circle cx="65.730666113231" cy="36.992233750872" seq="112" r="0.1" class="bzpt2"/>
<circle cx="66.0231109453688" cy="37.3004431988253" seq="113" r="0.1" class="bzpt2"/>
<circle cx="66.3072897455858" cy="37.6063464339156" seq="114" r="0.1" class="bzpt2"/>
<circle cx="66.58325897296" cy="37.909935538128" seq="115" r="0.1" class="bzpt2"/>
<circle cx="66.8510753864009" cy="38.2112023197846" seq="116" r="0.1" class="bzpt2"/>
<circle cx="67.1107960747215" cy="38.510138315401" seq="117" r="0.1" class="bzpt2"/>
<circle cx="67.3624784888695" cy="38.8067347937321" seq="118" r="0.1" class="bzpt2"/>
<circle cx="67.6061804763613" cy="39.1009827623594" seq="119" r="0.1" class="bzpt2"/>
<circle cx="67.8419603179369" cy="39.3928729772115" seq="120" r="0.1" class="bzpt2"/>
<circle cx="68.0698767664252" cy="39.6823959554461" seq="121" r="0.1" class="bzpt2"/>
<circle cx="68.2899890877689" cy="39.9695419921634" seq="122" r="0.1" class="bzpt2"/>
<circle cx="68.5023571041129" cy="40.2543011814559" seq="123" r="0.1" class="bzpt2"/>
<circle cx="68.707041238805" cy="40.5366634423429" seq="124" r="0.1" class="bzpt2"/>
<circle cx="68.9041025630906" cy="40.816618550166" seq="125" r="0.1" class="bzpt2"/>
<circle cx="69.0936028442058" cy="41.0941561740582" seq="126" r="0.1" class="bzpt2"/>
<circle cx="69.2756045944834" cy="41.3692659211193" seq="127" r="0.1" class="bzpt2"/>
<circle cx="69.4501711209839" cy="41.6419373879439" seq="128" r="0.1" class="bzpt2"/>
<circle cx="69.6173665750475" cy="41.9121602201523" seq="129" r="0.1" class="bzpt2"/>
<circle cx="69.777256001032" cy="42.179924180557" seq="130" r="0.1" class="bzpt2"/>
<circle cx="69.9299053833617" cy="42.445219226566" seq="131" r="0.1" class="bzpt2"/>
<circle cx="70.0753816908565" cy="42.7080355973611" seq="132" r="0.1" class="bzpt2"/>
<circle cx="70.2137529171491" cy="42.968363911304" seq="133" r="0.1" class="bzpt2"/>
<circle cx="70.3450881158275" cy="43.2261952738988" seq="134" r="0.1" class="bzpt2"/>
<circle cx="70.4694574287722" cy="43.4815213964778" seq="135" r="0.1" class="bzpt2"/>
<circle cx="70.5869321059898" cy="43.7343347255711" seq="136" r="0.1" class="bzpt2"/>
<circle cx="70.6975845150939" cy="43.9846285826678" seq="137" r="0.1" class="bzpt2"/>
<circle cx="70.8014881384518" cy="44.2323973137712" seq="138" r="0.1" class="bzpt2"/>
<circle cx="70.8987175559191" cy="44.4776364477951" seq="139" r="0.1" class="bzpt2"/>
<circle cx="70.9893484110334" cy="44.7203428624403" seq="140" r="0.1" class="bzpt2"/>
<circle cx="71.0734573585442" cy="44.9605149557385" seq="141" r="0.1" class="bzpt2"/>
<circle cx="71.1511219912434" cy="45.1981528209551" seq="142" r="0.1" class="bzpt2"/>
<circle cx="71.2224207442312" cy="45.433258422027" seq="143" r="0.1" class="bzpt2"/>
<circle cx="71.2874327750312" cy="45.6658357661776" seq="144" r="0.1" class="bzpt2"/>
<circle cx="71.3462378183609" cy="45.8958910698359" seq="145" r="0.1" class="bzpt2"/>
<circle cx="71.3989160148808" cy="46.1234329135063" seq="146" r="0.1" class="bzpt2"/>
<circle cx="71.4455477138891" cy="46.3484723808248" seq="147" r="0.1" class="bzpt2"/>
<circle cx="71.4862132506938" cy="46.571023176733" seq="148" r="0.1" class="bzpt2"/>
<circle cx="71.5209927002707" cy="46.7911017195376" seq="149" r="0.1" class="bzpt2"/>
<circle cx="71.5499656097786" cy="47.008727201635" seq="150" r="0.1" class="bzpt2"/>
<circle cx="71.573210713521" cy="47.2239216139062" seq="151" r="0.1" class="bzpt2"/>
<circle cx="71.5908056349729" cy="47.4367097292443" seq="152" r="0.1" class="bzpt2"/>
<circle cx="71.6028265814804" cy="47.6471190413929" seq="153" r="0.1" class="bzpt2"/>
<circle cx="71.6093480381304" cy="47.855179656239" seq="154" r="0.1" class="bzpt2"/>
<circle cx="71.6104424680163" cy="48.060924133915" seq="155" r="0.1" class="bzpt2"/>
<circle cx="71.6061800266262" cy="48.2643872814833" seq="156" r="0.1" class="bzpt2"/>
<circle cx="71.5966282983089" cy="48.4656058975522" seq="157" r="0.1" class="bzpt2"/>
<circle cx="71.5818520626688" cy="48.6646184718529" seq="158" r="0.1" class="bzpt2"/>
<circle cx="71.5619130982963" cy="48.8614648444718" seq="159" r="0.1" class="bzpt2"/>
<circle cx="71.5368700304278" cy="49.056185831045" seq="160" r="0.1" class="bzpt2"/>
<circle cx="71.5067782279915" cy="49.2488228216382" seq="161" r="0.1" class="bzpt2"/>
<circle cx="71.4716897540442" cy="49.4394173621979" seq="162" r="0.1" class="bzpt2"/>
<circle cx="71.4316533719406" cy="49.6280107282798" seq="163" r="0.1" class="bzpt2"/>
<circle cx="71.386714607747" cy="49.8146435011804" seq="164" r="0.1" class="bzpt2"/>
<circle cx="71.3369158675485" cy="49.9993551565966" seq="165" r="0.1" class="bzpt2"/>
<circle cx="71.2822966064744" cy="50.1821836754932" seq="166" r="0.1" class="bzpt2"/>
<circle cx="71.2228935446032" cy="50.3631651860161" seq="167" r="0.1" class="bzpt2"/>
<circle cx="71.1587409234768" cy="50.5423336440846" seq="168" r="0.1" class="bzpt2"/>
<circle cx="71.0898707958376" cy="50.7197205588141" seq="169" r="0.1" class="bzpt2"/>
<circle cx="71.0163133404351" cy="50.8953547672427" seq="170" r="0.1" class="bzpt2"/>
<circle cx="70.9380971933691" cy="51.0692622610679" seq="171" r="0.1" class="bzpt2"/>
<circle cx="70.8552497874185" cy="51.2414660663292" seq="172" r="0.1" class="bzpt2"/>
<circle cx="70.7677976911476" cy="51.4119861752966" seq="173" r="0.1" class="bzpt2"/>
<circle cx="70.6757669402107" cy="51.5808395283173" seq="174" r="0.1" class="bzpt2"/>
<circle cx="70.5791833541574" cy="51.7480400420889" seq="175" r="0.1" class="bzpt2"/>
<circle cx="70.4780728330816" cy="51.9135986798088" seq="176" r="0.1" class="bzpt2"/>
<circle cx="70.3724616296119" cy="52.0775235579106" seq="177" r="0.1" class="bzpt2"/>
<circle cx="70.2623765929205" cy="52.2398200836443" seq="178" r="0.1" class="bzpt2"/>
<circle cx="70.147845382586" cy="52.4004911175607" seq="179" r="0.1" class="bzpt2"/>
<circle cx="70.0288966512347" cy="52.5595371550067" seq="180" r="0.1" class="bzpt2"/>
<circle cx="69.9055601958531" cy="52.7169565209787" seq="181" r="0.1" class="bzpt2"/>
<circle cx="69.7778670785053" cy="52.8727455730803" seq="182" r="0.1" class="bzpt2"/>
<circle cx="69.645849717877" cy="53.0268989078415" seq="183" r="0.1" class="bzpt2"/>
<circle cx="69.5095419536005" cy="53.1794095662491" seq="184" r="0.1" class="bzpt2"/>
<circle cx="69.3689790857015" cy="53.3302692349576" seq="185" r="0.1" class="bzpt2"/>
<circle cx="69.2241978917596" cy="53.4794684402835" seq="186" r="0.1" class="bzpt2"/>
<circle cx="69.075236624501" cy="53.6269967326987" seq="187" r="0.1" class="bzpt2"/>
<circle cx="68.9221349925641" cy="53.7728428601079" seq="188" r="0.1" class="bzpt2"/>
<circle cx="68.7649341271223" cy="53.9169949287211" seq="189" r="0.1" class="bzpt2"/>
<circle cx="68.6036765369196" cy="54.059440550787" seq="190" r="0.1" class="bzpt2"/>
<circle cx="68.4384060541036" cy="54.2001669788541" seq="191" r="0.1" class="bzpt2"/>
<circle cx="68.2691677730304" cy="54.3391612265553" seq="192" r="0.1" class="bzpt2"/>
<circle cx="68.0960079839957" cy="54.4764101761799" seq="193" r="0.1" class="bzpt2"/>
<circle cx="67.9189741036103" cy="54.6119006735108" seq="194" r="0.1" class="bzpt2"/>
<circle cx="67.7381146033098" cy="54.7456196105602" seq="195" r="0.1" class="bzpt2"/>
<circle cx="67.5534789372626" cy="54.8775539969517" seq="196" r="0.1" class="bzpt2"/>
<circle cx="67.3651174707343" cy="55.0076910207688" seq="197" r="0.1" class="bzpt2"/>
<circle cx="67.1730814097701" cy="55.1360180997305" seq="198" r="0.1" class="bzpt2"/>
<circle cx="66.977422732885" cy="55.2625229235646" seq="199" r="0.1" class="bzpt2"/>
<circle cx="66.7781941252936" cy="55.3871934884455" seq="200" r="0.1" class="bzpt2"/>
<circle cx="66.5754489160793" cy="55.5100181243324" seq="201" r="0.1" class="bzpt2"/>
<circle cx="66.3692410185797" cy="55.6309855160104" seq="202" r="0.1" class="bzpt2"/>
<circle cx="66.1596248741712" cy="55.7500847185885" seq="203" r="0.1" class="bzpt2"/>
<circle cx="65.9466553995483" cy="55.8673051681571" seq="204" r="0.1" class="bzpt2"/>
<circle cx="65.7303879375269" cy="55.9826366882538" seq="205" r="0.1" class="bzpt2"/>
<circle cx="65.5108782113425" cy="56.096069492728" seq="206" r="0.1" class="bzpt2"/>
<circle cx="65.2881822823742" cy="56.2075941855418" seq="207" r="0.1" class="bzpt2"/>
<circle cx="65.0623565111872" cy="56.3172017579893" seq="208" r="0.1" class="bzpt2"/>
<circle cx="64.8334575217636" cy="56.4248835837645" seq="209" r="0.1" class="bzpt2"/>
<circle cx="64.6015421687728" cy="56.5306314122602" seq="210" r="0.1" class="bzpt2"/>
<circle cx="64.3666675077195" cy="56.6344373604357" seq="211" r="0.1" class="bzpt2"/>
<circle cx="64.1288907678016" cy="56.7362939035467" seq="212" r="0.1" class="bzpt2"/>
<circle cx="63.8882693273053" cy="56.8361938649967" seq="213" r="0.1" class="bzpt2"/>
<circle cx="63.6448606913679" cy="56.9341304055299" seq="214" r="0.1" class="bzpt2"/>
<circle cx="63.3987224719377" cy="57.03009701196" seq="215" r="0.1" class="bzpt2"/>
<circle cx="63.149912369767" cy="57.1240874855959" seq="216" r="0.1" class="bzpt2"/>
<circle cx="62.8984881582823" cy="57.2160959305039" seq="217" r="0.1" class="bzpt2"/>
<circle cx="62.6445076691773" cy="57.3061167417245" seq="218" r="0.1" class="bzpt2"/>
<circle cx="62.3880287795881" cy="57.3941445935397" seq="219" r="0.1" class="bzpt2"/>
<circle cx="62.1291094007155" cy="57.480174427872" seq="220" r="0.1" class="bzpt2"/>
<circle cx="61.8678074677658" cy="57.5642014428816" seq="221" r="0.1" class="bzpt2"/>
<circle cx="61.6041809310945" cy="57.6462210818146" seq="222" r="0.1" class="bzpt2"/>
<circle cx="61.3382877484418" cy="57.7262290221437" seq="223" r="0.1" class="bzpt2"/>
<circle cx="61.0701858781588" cy="57.8042211650359" seq="224" r="0.1" class="bzpt2"/>
<circle cx="60.7999332733294" cy="57.8801936251687" seq="225" r="0.1" class="bzpt2"/>
<circle cx="60.5275878767043" cy="57.9541427209163" seq="226" r="0.1" class="bzpt2"/>
<circle cx="60.253207616364" cy="58.0260649649142" seq="227" r="0.1" class="bzpt2"/>
<circle cx="59.9768504020422" cy="58.0959570550115" seq="228" r="0.1" class="bzpt2"/>
<circle cx="59.6985741220402" cy="58.1638158656122" seq="229" r="0.1" class="bzpt2"/>
<circle cx="59.4184366406738" cy="58.2296384394072" seq="230" r="0.1" class="bzpt2"/>
<circle cx="59.1364957961968" cy="58.2934219794906" seq="231" r="0.1" class="bzpt2"/>
<circle cx="58.8528093991515" cy="58.3551638418589" seq="232" r="0.1" class="bzpt2"/>
<circle cx="58.567435231101" cy="58.4148615282817" seq="233" r="0.1" class="bzpt2"/>
<circle cx="58.2804310437017" cy="58.4725126795397" seq="234" r="0.1" class="bzpt2"/>
<circle cx="57.99185455808" cy="58.5281150690167" seq="235" r="0.1" class="bzpt2"/>
<circle cx="57.7017634644786" cy="58.5816665966376" seq="236" r="0.1" class="bzpt2"/>
<circle cx="57.4102154221438" cy="58.6331652831407" seq="237" r="0.1" class="bzpt2"/>
<circle cx="57.1172680594239" cy="58.6826092646738" seq="238" r="0.1" class="bzpt2"/>
<circle cx="56.8229789740587" cy="58.7299967877017" seq="239" r="0.1" class="bzpt2"/>
<circle cx="56.5274057336333" cy="58.7753262042152" seq="240" r="0.1" class="bzpt2"/>
<circle cx="56.2306058761806" cy="58.8185959672292" seq="241" r="0.1" class="bzpt2"/>
<circle cx="55.9326369109128" cy="58.8598046265595" seq="242" r="0.1" class="bzpt2"/>
<circle cx="55.6335563190666" cy="58.898950824868" seq="243" r="0.1" class="bzpt2"/>
<circle cx="55.3334215548491" cy="58.9360332939651" seq="244" r="0.1" class="bzpt2"/>
<circle cx="55.0322900464707" cy="58.9710508513596" seq="245" r="0.1" class="bzpt2"/>
<circle cx="54.7302191972541" cy="59.0040023970475" seq="246" r="0.1" class="bzpt2"/>
<circle cx="54.4272663868109" cy="59.0348869105285" seq="247" r="0.1" class="bzpt2"/>
<circle cx="54.1234889722756" cy="59.0637034480441" seq="248" r="0.1" class="bzpt2"/>
<circle cx="53.8189442895893" cy="59.0904511400277" seq="249" r="0.1" class="bzpt2"/>
<circle cx="53.513689654828" cy="59.115129188759" seq="250" r="0.1" class="bzpt2"/>
<circle cx="53.2077823655673" cy="59.1377368662168" seq="251" r="0.1" class="bzpt2"/>
<circle cx="52.9012797022797" cy="59.1582735121223" seq="252" r="0.1" class="bzpt2"/>
<circle cx="52.5942389297591" cy="59.1767385321679" seq="253" r="0.1" class="bzpt2"/>
<circle cx="52.2867172985692" cy="59.1931313964254" seq="254" r="0.1" class="bzpt2"/>
<circle cx="51.9787720465107" cy="59.207451637929" seq="255" r="0.1" class="bzpt2"/>
<circle cx="51.6704604001061" cy="59.2196988514282" seq="256" r="0.1" class="bzpt2"/>
<circle cx="51.3618395760977" cy="59.2298726923073" seq="257" r="0.1" class="bzpt2"/>
<circle cx="51.0529667829572" cy="59.2379728756672" seq="258" r="0.1" class="bzpt2"/>
<circle cx="50.7438992224042" cy="59.243999175567" seq="259" r="0.1" class="bzpt2"/>
<circle cx="50.4346940909322" cy="59.247951424424" seq="260" r="0.1" class="bzpt2"/>
<circle cx="50.1254085813393" cy="59.2498295125675" seq="261" r="0.1" class="bzpt2"/>
<circle cx="49.8160998842636" cy="59.2496333879481" seq="262" r="0.1" class="bzpt2"/>
<circle cx="49.5068251897194" cy="59.2473630559993" seq="263" r="0.1" class="bzpt2"/>
<circle cx="49.1976416886356" cy="59.2430185796518" seq="264" r="0.1" class="bzpt2"/>
<circle cx="48.8886065743914" cy="59.2366000795007" seq="265" r="0.1" class="bzpt2"/>
<circle cx="48.5797770443515" cy="59.2281077341261" seq="266" r="0.1" class="bzpt2"/>
<circle cx="48.2712103013954" cy="59.2175417805673" seq="267" r="0.1" class="bzpt2"/>
<circle cx="47.9629635554427" cy="59.2049025149531" seq="268" r="0.1" class="bzpt2"/>
<circle cx="47.6550940249698" cy="59.1901902932907" seq="269" r="0.1" class="bzpt2"/>
<circle cx="47.3476589385174" cy="59.1734055324133" seq="270" r="0.1" class="bzpt2"/>
<circle cx="47.0407155361867" cy="59.1545487110927" seq="271" r="0.1" class="bzpt2"/>
<circle cx="46.7343210711201" cy="59.1336203713178" seq="272" r="0.1" class="bzpt2"/>
<circle cx="46.4285328109663" cy="59.1106211197443" seq="273" r="0.1" class="bzpt2"/>
<circle cx="46.1234080393236" cy="59.0855516293202" seq="274" r="0.1" class="bzpt2"/>
<circle cx="45.8190040571599" cy="59.0584126410917" seq="275" r="0.1" class="bzpt2"/>
<circle cx="45.5153781842042" cy="59.029204966195" seq="276" r="0.1" class="bzpt2"/>
<circle cx="45.212587760305" cy="58.997929488041" seq="277" r="0.1" class="bzpt2"/>
<circle cx="44.9106901467502" cy="58.9645871646988" seq="278" r="0.1" class="bzpt2"/>
<circle cx="44.6097427275423" cy="58.9291790314849" seq="279" r="0.1" class="bzpt2"/>
<circle cx="44.3098029106224" cy="58.8917062037668" seq="280" r="0.1" class="bzpt2"/>
<circle cx="44.010928129034" cy="58.8521698799883" seq="281" r="0.1" class="bzpt2"/>
<circle cx="43.7131758420189" cy="58.810571344926" seq="282" r="0.1" class="bzpt2"/>
<circle cx="43.4166035360347" cy="58.7669119731843" seq="283" r="0.1" class="bzpt2"/>
<circle cx="43.1212687256822" cy="58.7211932329421" seq="284" r="0.1" class="bzpt2"/>
<circle cx="42.8272289545304" cy="58.6734166899566" seq="285" r="0.1" class="bzpt2"/>
<circle cx="42.534541795825" cy="58.6235840118391" seq="286" r="0.1" class="bzpt2"/>
<circle cx="42.2432648530638" cy="58.57169697261" seq="287" r="0.1" class="bzpt2"/>
<circle cx="41.9534557604217" cy="58.5177574575465" seq="288" r="0.1" class="bzpt2"/>
<circle cx="41.6651721830049" cy="58.4617674683328" seq="289" r="0.1" class="bzpt2"/>
<circle cx="41.3784718169121" cy="58.4037291285247" seq="290" r="0.1" class="bzpt2"/>
<circle cx="41.0934123890781" cy="58.3436446893395" seq="291" r="0.1" class="bzpt2"/>
<circle cx="40.8100516568712" cy="58.2815165357825" seq="292" r="0.1" class="bzpt2"/>
<circle cx="40.5284474074158" cy="58.2173471931212" seq="293" r="0.1" class="bzpt2"/>
<circle cx="40.2486574566028" cy="58.1511393337163" seq="294" r="0.1" class="bzpt2"/>
<circle cx="39.9707396477532" cy="58.0828957842202" seq="295" r="0.1" class="bzpt2"/>
<circle cx="39.6947518498917" cy="58.0126195331505" seq="296" r="0.1" class="bzpt2"/>
<circle cx="39.4207519555838" cy="57.9403137388447" seq="297" r="0.1" class="bzpt2"/>
<circle cx="39.1487978782862" cy="57.8659817378035" seq="298" r="0.1" class="bzpt2"/>
<circle cx="38.8789475491548" cy="57.7896270534219" seq="299" r="0.1" class="bzpt2"/>
<circle cx="38.611258913248" cy="57.7112534051111" seq="300" r="0.1" class="bzpt2"/>
<circle cx="38.3457899250578" cy="57.6308647178058" seq="301" r="0.1" class="bzpt2"/>
<circle cx="38.0825985432962" cy="57.5484651318497" seq="302" r="0.1" class="bzpt2"/>
<circle cx="37.8217427248553" cy="57.4640590132461" seq="303" r="0.1" class="bzpt2"/>
<circle cx="37.5632804178528" cy="57.3776509642542" seq="304" r="0.1" class="bzpt2"/>
<circle cx="37.3072695536694" cy="57.2892458343068" seq="305" r="0.1" class="bzpt2"/>
<circle cx="37.0537680378736" cy="57.198848731213" seq="306" r="0.1" class="bzpt2"/>
<circle cx="36.8028337399227" cy="57.1064650326029" seq="307" r="0.1" class="bzpt2"/>
<circle cx="36.5545244815213" cy="57.0121003975588" seq="308" r="0.1" class="bzpt2"/>
<circle cx="36.3088980235072" cy="56.9157607783644" seq="309" r="0.1" class="bzpt2"/>
<circle cx="36.0660120511314" cy="56.8174524322872" seq="310" r="0.1" class="bzpt2"/>
<circle cx="35.8259241575834" cy="56.7171819332954" seq="311" r="0.1" class="bzpt2"/>
<circle cx="35.5886918256132" cy="56.6149561835855" seq="312" r="0.1" class="bzpt2"/>
<circle cx="35.354372407088" cy="56.51078242478" seq="313" r="0.1" class="bzpt2"/>
<circle cx="35.1230231003204" cy="56.4046682486247" seq="314" r="0.1" class="bzpt2"/>
<circle cx="34.8947009249968" cy="56.2966216069898" seq="315" r="0.1" class="bzpt2"/>
<circle cx="34.669462694536" cy="56.1866508209452" seq="316" r="0.1" class="bzpt2"/>
<circle cx="34.4473649857058" cy="56.0747645886466" seq="317" r="0.1" class="bzpt2"/>
<circle cx="34.2284641053309" cy="55.9609719917287" seq="318" r="0.1" class="bzpt2"/>
<circle cx="34.012816053931" cy="55.8452824998613" seq="319" r="0.1" class="bzpt2"/>
<circle cx="33.8004764861462" cy="55.7277059730766" seq="320" r="0.1" class="bzpt2"/>
<circle cx="33.5915006678193" cy="55.6082526614274" seq="321" r="0.1" class="bzpt2"/>
<circle cx="33.3859434296378" cy="55.4869332014841" seq="322" r="0.1" class="bzpt2"/>
<circle cx="33.1838591172718" cy="55.3637586091236" seq="323" r="0.1" class="bzpt2"/>
<circle cx="32.9853015379876" cy="55.2387402680073" seq="324" r="0.1" class="bzpt2"/>
<circle cx="32.79032390378" cy="55.1118899130912" seq="325" r="0.1" class="bzpt2"/>
<circle cx="32.5989787711334" cy="54.9832196084525" seq="326" r="0.1" class="bzpt2"/>
<circle cx="32.4113179776094" cy="54.8527417186721" seq="327" r="0.1" class="bzpt2"/>
<circle cx="32.2273925755629" cy="54.720468872961" seq="328" r="0.1" class="bzpt2"/>
<circle cx="32.0472527634065" cy="54.5864139211895" seq="329" r="0.1" class="bzpt2"/>
<circle cx="31.8709478149865" cy="54.4505898809489" seq="330" r="0.1" class="bzpt2"/>
<circle cx="31.6985260077889" cy="54.3130098747765" seq="331" r="0.1" class="bzpt2"/>
<circle cx="31.530034550874" cy="54.1736870566875" seq="332" r="0.1" class="bzpt2"/>
<circle cx="31.3655195136352" cy="54.0326345272049" seq="333" r="0.1" class="bzpt2"/>
<circle cx="31.205025756688" cy="53.8898652361595" seq="334" r="0.1" class="bzpt2"/>
<circle cx="31.048596866422" cy="53.7453918726489" seq="335" r="0.1" class="bzpt2"/>
<circle cx="30.8962750949782" cy="53.5992267417186" seq="336" r="0.1" class="bzpt2"/>
<circle cx="30.7481013076477" cy="53.451381627543" seq="337" r="0.1" class="bzpt2"/>
<circle cx="30.6041149399116" cy="53.3018676431705" seq="338" r="0.1" class="bzpt2"/>
<circle cx="30.4643539665363" cy="53.1506950672362" seq="339" r="0.1" class="bzpt2"/>
<circle cx="30.3288548853138" cy="52.9978731684569" seq="340" r="0.1" class="bzpt2"/>
<circle cx="30.1976527181432" cy="52.843410019193" seq="341" r="0.1" class="bzpt2"/>
<circle cx="30.0707810321998" cy="52.687312299896" seq="342" r="0.1" class="bzpt2"/>
<circle cx="29.9482719838941" cy="52.5295850968398" seq="343" r="0.1" class="bzpt2"/>
<circle cx="29.8301563881738" cy="52.370231696151" seq="344" r="0.1" class="bzpt2"/>
<circle cx="29.7164638154495" cy="52.2092533777885" seq="345" r="0.1" class="bzpt2"/>
<circle cx="29.6072227180069" cy="52.0466492137382" seq="346" r="0.1" class="bzpt2"/>
<circle cx="29.502460587212" cy="51.8824158752686" seq="347" r="0.1" class="bzpt2"/>
<circle cx="29.4022041420916" cy="51.7165474545877" seq="348" r="0.1" class="bzpt2"/>
<circle cx="29.3064795490118" cy="51.5490353066118" seq="349" r="0.1" class="bzpt2"/>
<circle cx="29.2153126711786" cy="51.3798679167653" seq="350" r="0.1" class="bzpt2"/>
<circle cx="29.128729345582" cy="51.2090308007325" seq="351" r="0.1" class="bzpt2"/>
<circle cx="29.0467556838377" cy="51.0365064418408" seq="352" r="0.1" class="bzpt2"/>
<circle cx="28.9694183922019" cy="50.862274271245" seq="353" r="0.1" class="bzpt2"/>
<circle cx="28.8967451048938" cy="50.6863106952927" seq="354" r="0.1" class="bzpt2"/>
<circle cx="28.8287647238485" cy="50.5085891733793" seq="355" r="0.1" class="bzpt2"/>
<circle cx="28.7655077571795" cy="50.3290803482699" seq="356" r="0.1" class="bzpt2"/>
<circle cx="28.7070066480546" cy="50.147752229323" seq="357" r="0.1" class="bzpt2"/>
<circle cx="28.6532960854103" cy="49.9645704273492" seq="358" r="0.1" class="bzpt2"/>
<circle cx="28.6044132880127" cy="49.7794984380622" seq="359" r="0.1" class="bzpt2"/>
<circle cx="28.5603982538295" cy="49.5924979693208" seq="360" r="0.1" class="bzpt2"/>
<circle cx="28.5212939675106" cy="49.4035293057132" seq="361" r="0.1" class="bzpt2"/>
<circle cx="28.4871465599566" cy="49.2125517025973" seq="362" r="0.1" class="bzpt2"/>
<circle cx="28.4580054154353" cy="49.019523800572" seq="363" r="0.1" class="bzpt2"/>
<circle cx="28.4339232234057" cy="48.8244040505822" seq="364" r="0.1" class="bzpt2"/>
<circle cx="28.4149559740515" cy="48.6271511394994" seq="365" r="0.1" class="bzpt2"/>
<circle cx="28.4011628983895" cy="48.4277244060994" seq="366" r="0.1" class="bzpt2"/>
<circle cx="28.3926063556206" cy="48.2260842378559" seq="367" r="0.1" class="bzpt2"/>
<circle cx="28.3893516720256" cy="48.0221924398603" seq="368" r="0.1" class="bzpt2"/>
<circle cx="28.3914669370996" cy="47.8160125684039" seq="369" r="0.1" class="bzpt2"/>
<circle cx="28.3990227637012" cy="47.6075102231775" seq="370" r="0.1" class="bzpt2"/>
<circle cx="28.4120920197335" cy="47.3966532937632" seq="371" r="0.1" class="bzpt2"/>
<circle cx="28.4307495392544" cy="47.1834121576488" seq="372" r="0.1" class="bzpt2"/>
<circle cx="28.4550718209517" cy="46.9677598287628" seq="373" r="0.1" class="bzpt2"/>
<circle cx="28.4851367216359" cy="46.7496720570242" seq="374" r="0.1" class="bzpt2"/>
<circle cx="28.5210231518516" cy="46.5291273808016" seq="375" r="0.1" class="bzpt2"/>
<circle cx="28.5628107799501" cy="46.3061071353383" seq="376" r="0.1" class="bzpt2"/>
<circle cx="28.6105797500472" cy="46.0805954211224" seq="377" r="0.1" class="bzpt2"/>
<circle cx="28.6644104182928" cy="45.8525790368439" seq="378" r="0.1" class="bzpt2"/>
<circle cx="28.724383110847" cy="45.6220473819931" seq="379" r="0.1" class="bzpt2"/>
<circle cx="28.7905779059448" cy="45.3889923343392" seq="380" r="0.1" class="bzpt2"/>
<circle cx="28.8630744414871" cy="45.1534081075023" seq="381" r="0.1" class="bzpt2"/>
<circle cx="28.9419517487345" cy="44.915291093641" seq="382" r="0.1" class="bzpt2"/>
<circle cx="29.0272881119396" cy="44.674639695946" seq="383" r="0.1" class="bzpt2"/>
<circle cx="29.1191609531348" cy="44.4314541552103" seq="384" r="0.1" class="bzpt2"/>
<circle cx="29.2176467407964" cy="44.1857363742512" seq="385" r="0.1" class="bzpt2"/>
<circle cx="29.3228209207395" cy="43.9374897434419" seq="386" r="0.1" class="bzpt2"/>
<circle cx="29.4347578673372" cy="43.686718970078" seq="387" r="0.1" class="bzpt2"/>
<circle cx="29.5535308530056" cy="43.4334299137913" seq="388" r="0.1" class="bzpt2"/>
<circle cx="29.6792120338268" cy="43.1776294297332" seq="389" r="0.1" class="bzpt2"/>
<circle cx="29.8118724491855" cy="42.9193252208109" seq="390" r="0.1" class="bzpt2"/>
<circle cx="29.9515820333545" cy="42.6585256998553" seq="391" r="0.1" class="bzpt2"/>
<circle cx="30.0984096370753" cy="42.3952398622574" seq="392" r="0.1" class="bzpt2"/>
<circle cx="30.2524230573065" cy="42.1294771693146" seq="393" r="0.1" class="bzpt2"/>
<circle cx="30.4136890734766" cy="41.8612474422827" seq="394" r="0.1" class="bzpt2"/>
<circle cx="30.5822734887399" cy="41.5905607669334" seq="395" r="0.1" class="bzpt2"/>
<circle cx="30.7582411749064" cy="41.3174274082621" seq="396" r="0.1" class="bzpt2"/>
<circle cx="30.9416561198845" cy="41.0418577348752" seq="397" r="0.1" class="bzpt2"/>
<circle cx="31.1325814766354" cy="40.7638621525038" seq="398" r="0.1" class="bzpt2"/>
<circle cx="31.331079612792" cy="40.4834510460356" seq="399" r="0.1" class="bzpt2"/>
<circle cx="31.5372121602333" cy="40.2006347294272" seq="400" r="0.1" class="bzpt2"/>
<circle cx="31.7510400640331" cy="39.9154234028461" seq="401" r="0.1" class="bzpt2"/>
<circle cx="31.9726236303154" cy="39.6278271163987" seq="402" r="0.1" class="bzpt2"/>
<circle cx="32.2020225726486" cy="39.3378557398126" seq="403" r="0.1" class="bzpt2"/>
<circle cx="32.4392960566993" cy="39.04551893747" seq="404" r="0.1" class="bzpt2"/>
<circle cx="32.6845027429403" cy="38.7508261482182" seq="405" r="0.1" class="bzpt2"/>
<circle cx="32.937700827273" cy="38.4537865694186" seq="406" r="0.1" class="bzpt2"/>
<circle cx="33.1989480794769" cy="38.1544091447352" seq="407" r="0.1" class="bzpt2"/>
<circle cx="33.4683018794448" cy="37.8527025552004" seq="408" r="0.1" class="bzpt2"/>
<circle cx="33.7458192511976" cy="37.5486752131372" seq="409" r="0.1" class="bzpt2"/>
<circle cx="34.0315568947038" cy="37.2423352585532" seq="410" r="0.1" class="bzpt2"/>
<circle cx="34.3255712155492" cy="36.9336905576613" seq="411" r="0.1" class="bzpt2"/>
<circle cx="34.6279183525226" cy="36.6227487032143" seq="412" r="0.1" class="bzpt2"/>
<circle cx="34.9386542031981" cy="36.3095170163758" seq="413" r="0.1" class="bzpt2"/>
<circle cx="35.257834447597" cy="35.9940025498798" seq="414" r="0.1" class="bzpt2"/>
<circle cx="35.5855145700299" cy="35.6762120922589" seq="415" r="0.1" class="bzpt2"/>
<circle cx="35.9217498792113" cy="35.3561521729497" seq="416" r="0.1" class="bzpt2"/>
<circle cx="36.2665955267528" cy="35.0338290681043" seq="417" r="0.1" class="bzpt2"/>
<circle cx="36.6201065241286" cy="34.7092488069601" seq="418" r="0.1" class="bzpt2"/>
<circle cx="36.9823377582173" cy="34.3824171786406" seq="419" r="0.1" class="bzpt2"/>
<circle cx="37.3533440055136" cy="34.0533397392743" seq="420" r="0.1" class="bzpt2"/>
<circle cx="37.7331799451034" cy="33.7220218193369" seq="421" r="0.1" class="bzpt2"/>
<circle cx="38.1219001704914" cy="33.3884685311351" seq="422" r="0.1" class="bzpt2"/>
<circle cx="38.5195592003684" cy="33.0526847763604" seq="423" r="0.1" class="bzpt2"/>
<circle cx="38.9262114883968" cy="32.7146752536568" seq="424" r="0.1" class="bzpt2"/>
<circle cx="39.3419114320923" cy="32.3744444661501" seq="425" r="0.1" class="bzpt2"/>
<circle cx="39.7667133808731" cy="32.0319967288995" seq="426" r="0.1" class="bzpt2"/>
<circle cx="40.2006716433434" cy="31.6873361762366" seq="427" r="0.1" class="bzpt2"/>
<circle cx="40.6438404938762" cy="31.3404667689646" seq="428" r="0.1" class="bzpt2"/>
<circle cx="41.0962741785511" cy="30.991392301395" seq="429" r="0.1" class="bzpt2"/>
<circle cx="41.5580269205034" cy="30.6401164082055" seq="430" r="0.1" class="bzpt2"/>
<circle cx="42.0291529247349" cy="30.2866425711043" seq="431" r="0.1" class="bzpt2"/>
<circle cx="42.5097063824317" cy="29.9309741252924" seq="432" r="0.1" class="bzpt2"/>
<circle cx="42.9997414748348" cy="29.5731142657154" seq="433" r="0.1" class="bzpt2"/>
<circle cx="43.4993123766989" cy="29.2130660531028" seq="434" r="0.1" class="bzpt2"/>
<circle cx="44.0084732593812" cy="28.8508324197898" seq="435" r="0.1" class="bzpt2"/>
<circle cx="44.5272782935899" cy="28.4864161753238" seq="436" r="0.1" class="bzpt2"/>
<circle cx="45.0557816518241" cy="28.1198200118549" seq="437" r="0.1" class="bzpt2"/>
<circle cx="45.5940375105353" cy="27.7510465093134" seq="438" r="0.1" class="bzpt2"/>
<circle cx="46.142100052034" cy="27.3800981403781" seq="439" r="0.1" class="bzpt2"/>
<circle cx="46.7000234661661" cy="27.0069772752389" seq="440" r="0.1" class="bzpt2"/>
<circle cx="47.2678619517824" cy="26.6316861861585" seq="441" r="0.1" class="bzpt2"/>
<circle cx="47.845669718017" cy="26.254227051839" seq="442" r="0.1" class="bzpt2"/>
<circle cx="48.4335009853976" cy="25.8746019615993" seq="443" r="0.1" class="bzpt2"/>
<circle cx="49.0314099868008" cy="25.492812919368" seq="444" r="0.1" class="bzpt2"/>
<circle cx="49.6394509682689" cy="25.1088618474996" seq="445" r="0.1" class="bzpt2"/>
<circle cx="50.2576781897011" cy="24.722750590419" seq="446" r="0.1" class="bzpt2"/>
<circle cx="50.8861459254325" cy="24.3344809181022" seq="447" r="0.1" class="bzpt2"/>
<circle cx="51.5249084647123" cy="23.9440545293969" seq="448" r="0.1" class="bzpt2"/>
<circle cx="52.1740201120902" cy="23.551473055193" seq="449" r="0.1" class="bzpt2"/>
<circle cx="52.833535187722" cy="23.156738061445" seq="450" r="0.1" class="bzpt2"/>
<circle cx="53.5035080276023" cy="22.7598510520567" seq="451" r="0.1" class="bzpt2"/>
<circle cx="54.1839929837312" cy="22.3608134716303" seq="452" r="0.1" class="bzpt2"/>
<circle cx="54.8750444242246" cy="21.959626708089" seq="453" r="0.1" class="bzpt2"/>
<circle cx="55.5767167333709" cy="21.5562920951761" seq="454" r="0.1" class="bzpt2"/>
<circle cx="56.2890643116428" cy="21.1508109148379" seq="455" r="0.1" class="bzpt2"/>
<circle cx="57.0121415756685" cy="20.7431843994952" seq="456" r="0.1" class="bzpt2"/>
<circle cx="57.7460029581668" cy="20.333413734208" seq="457" r="0.1" class="bzpt2"/>
<circle cx="58.4907029078495" cy="19.921500058739" seq="458" r="0.1" class="bzpt2"/>
<circle cx="59.2462958892985" cy="19.5074444695206" seq="459" r="0.1" class="bzpt2"/>
<circle cx="60.0128363828161" cy="19.0912480215292" seq="460" r="0.1" class="bzpt2"/>
<circle cx="60.7903788842556" cy="18.6729117300726" seq="461" r="0.1" class="bzpt2"/>
<circle cx="61.5789779048334" cy="18.2524365724927" seq="462" r="0.1" class="bzpt2"/>
<circle cx="62.3786879709256" cy="17.8298234897899" seq="463" r="0.1" class="bzpt2"/>
<circle cx="63.1895636238512" cy="17.4050733881708" seq="464" r="0.1" class="bzpt2"/>
<circle cx="64.0116594196435" cy="16.9781871405242" seq="465" r="0.1" class="bzpt2"/>
<circle cx="64.8450299288131" cy="16.5491655878286" seq="466" r="0.1" class="bzpt2"/>
<circle cx="65.6897297361028" cy="16.1180095404939" seq="467" r="0.1" class="bzpt2"/>
<circle cx="66.5458134402362" cy="15.6847197796419" seq="468" r="0.1" class="bzpt2"/>
<circle cx="67.4133356536616" cy="15.249297058327" seq="469" r="0.1" class="bzpt2"/>
<circle cx="68.2923510022921" cy="14.8117421027006" seq="470" r="0.1" class="bzpt2"/>
<circle cx="69.1829141252441" cy="14.3720556131228" seq="471" r="0.1" class="bzpt2"/>
<circle cx="70.0850796745726" cy="13.9302382652228" seq="472" r="0.1" class="bzpt2"/>
<circle cx="70.9989023150078" cy="13.4862907109103" seq="473" r="0.1" class="bzpt2"/>
<circle cx="71.9244367236893" cy="13.0402135793423" seq="474" r="0.1" class="bzpt2"/>
<circle cx="72.8617375899034" cy="12.5920074778444" seq="475" r="0.1" class="bzpt2"/>
<circle cx="73.8108596148207" cy="12.1416729927924" seq="476" r="0.1" class="bzpt2"/>
<circle cx="74.7718575112344" cy="11.689210690452" seq="477" r="0.1" class="bzpt2"/>
<circle cx="75.7447860033037" cy="11.2346211177829" seq="478" r="0.1" class="bzpt2"/>
<circle cx="76.729699826296" cy="10.7779048032055" seq="479" r="0.1" class="bzpt2"/>
<circle cx="77.7266537263364" cy="10.3190622573344" seq="480" r="0.1" class="bzpt2"/>
<circle cx="78.7357024601566" cy="9.85809397367865" seq="481" r="0.1" class="bzpt2"/>
<circle cx="79.7569007948503" cy="9.39500042931152" seq="482" r="0.1" class="bzpt2"/>
<circle cx="80.7903035076303" cy="8.92978208551079" seq="483" r="0.1" class="bzpt2"/>
<circle cx="81.8359653855911" cy="8.46243938837079" seq="484" r="0.1" class="bzpt2"/>
<circle cx="82.8939412254742" cy="7.99297276938773" seq="485" r="0.1" class="bzpt2"/>
<circle cx="83.9642858334392" cy="7.52138264601973" seq="486" r="0.1" class="bzpt2"/>
<circle cx="85.0470540248374" cy="7.0476694222225" seq="487" r="0.1" class="bzpt2"/>
<circle cx="86.1423006239915" cy="6.5718334889621" seq="488" r="0.1" class="bzpt2"/>
<circle cx="87.2500804639784" cy="6.09387522470538" seq="489" r="0.1" class="bzpt2"/>
<circle cx="88.3704483864174" cy="5.61379499588975" seq="490" r="0.1" class="bzpt2"/>
<circle cx="89.5034592412623" cy="5.13159315737287" seq="491" r="0.1" class="bzpt2"/>
<circle cx="90.6491678865982" cy="4.64727005286333" seq="492" r="0.1" class="bzpt2"/>
<circle cx="91.807629188443" cy="4.160826015333" seq="493" r="0.1" class="bzpt2"/>
<circle cx="92.978898020553" cy="3.6722613674123" seq="494" r="0.1" class="bzpt2"/>
<circle cx="94.163029264233" cy="3.18157642176882" seq="495" r="0.1" class="bzpt2"/>
<circle cx="95.3600778081512" cy="2.68877148147024" seq="496" r="0.1" class="bzpt2"/>
<circle cx="96.5700985481579" cy="2.19384684033213" seq="497" r="0.1" class="bzpt2"/>
<circle cx="97.7931463871092" cy="1.69680278325151" seq="498" r="0.1" class="bzpt2"/>
<circle cx="99.0292762346938" cy="1.19763958652665" seq="499" r="0.1" class="bzpt2"/>
<circle cx="100.278543007266" cy="0.696357518163945" seq="500" r="0.1" class="bzpt2"/>
</svg>
